<?xml version="1.0" standalone="no"?>
<!DOCTYPE svg PUBLIC "-//W3C//DTD SVG 20010904//EN"
 "http://www.w3.org/TR/2001/REC-SVG-20010904/DTD/svg10.dtd">
<svg version="1.0" xmlns="http://www.w3.org/2000/svg"
 width="1600.000000pt" height="655.000000pt" viewBox="0 0 1600.000000 655.000000"
 preserveAspectRatio="xMidYMid meet">

<g transform="translate(0.000000,655.000000) scale(0.100000,-0.100000)"
fill="#f72585" stroke="none">
<path d="M5810 6008 c-127 -235 -308 -435 -535 -590 -173 -118 -327 -185 -555
-244 -112 -28 -307 -39 -472 -25 -156 12 -192 18 -453 71 -425 85 -549 103
-715 104 -323 0 -580 -85 -760 -251 -118 -109 -191 -238 -288 -508 -117 -326
-169 -422 -288 -536 -103 -98 -214 -152 -516 -253 -234 -77 -339 -122 -430
-182 -84 -56 -203 -182 -255 -270 -95 -162 -132 -272 -258 -784 -34 -135 -92
-319 -132 -414 -10 -23 -48 -101 -85 -175 l-68 -133 0 -189 c0 -104 3 -189 6
-189 4 0 142 25 308 55 1267 230 2419 372 3551 437 292 17 1293 17 1520 0 887
-66 1420 -189 1945 -452 687 -344 1937 -566 3655 -650 732 -35 2094 -46 2925
-21 578 16 1454 55 1983 87 l107 7 0 2418 0 2419 -27 -5 c-108 -19 -1169 -80
-1903 -110 -1114 -46 -2717 -52 -3708 -15 -1395 52 -2339 148 -3215 326 -258
52 -515 95 -747 123 -166 20 -476 51 -514 51 -16 0 -34 -24 -76 -102z"/>
</g>
</svg>
