<?xml version="1.0" standalone="no"?>
<!DOCTYPE svg PUBLIC "-//W3C//DTD SVG 20010904//EN"
 "http://www.w3.org/TR/2001/REC-SVG-20010904/DTD/svg10.dtd">
<svg version="1.0" xmlns="http://www.w3.org/2000/svg"
 width="1600.000000pt" height="650.000000pt" viewBox="0 0 1600.000000 650.000000"
 preserveAspectRatio="xMidYMid meet">]

<g transform="translate(0.000000,650.000000) scale(0.100000,-0.100000)"
fill="hsla(276, 91%, 38%, 1)" stroke="hsla(276, 91%, 38%, 1)">
<path d="M14197 6383 c-23 -49 -48 -127 -63 -199 -82 -378 -99 -421 -213 -535
-129 -129 -270 -183 -481 -183 -178 0 -311 42 -464 145 -209 143 -350 321
-519 656 l-92 183 -80 0 c-431 0 -2012 -74 -3635 -170 -2197 -131 -2893 -167
-3765 -200 -1292 -48 -2657 -52 -3630 -10 -424 19 -1127 61 -1222 74 l-33 5 0
-1064 0 -1064 30 -60 c17 -32 40 -94 51 -138 19 -71 20 -96 14 -278 -5 -169
-3 -209 10 -255 37 -125 112 -212 259 -301 120 -74 245 -194 300 -288 104
-179 146 -389 116 -581 -22 -140 -64 -235 -216 -495 -197 -337 -219 -463 -141
-800 79 -340 74 -463 -28 -673 l-46 -92 -174 0 -175 0 0 -24 0 -23 433 -7
c426 -7 1287 4 1832 24 1160 42 1920 88 4230 255 2508 181 3522 234 4860 254
1064 16 2075 -11 2970 -79 478 -37 1134 -108 1555 -168 l120 -18 -2 3056 -3
3055 -95 7 c-329 23 -964 52 -1415 64 l-251 7 -37 -80z"/>
</g>
</svg>
