<svg width="60" height="69" viewBox="0 0 60 69" fill="none" xmlns="http://www.w3.org/2000/svg">
<g clip-path="url(#clip0_1061_599)">
<path d="M30.0014 3.8993C30.0014 3.8993 13.7963 3.8993 4.15247 0.206663C2.14559 -0.56299 0 0.916895 0 3.09852V29.2752C0 37.4669 3.34859 45.288 9.24471 50.8736L27.2048 67.8824C28.7814 69.3764 31.2242 69.3764 32.8009 67.8824L50.761 50.8736C56.6571 45.2908 60.0057 37.4669 60.0057 29.2752V3.09852C60.0057 0.916895 57.8601 -0.56299 55.8532 0.206663C46.2065 3.8993 30.0014 3.8993 30.0014 3.8993Z" fill="#95EF76"/>
<path d="M30.0013 7.55505C30.0013 7.55505 15.52 7.55505 6.90084 4.30949C5.10625 3.63322 3.18994 4.93484 3.18994 6.85048V29.8552C3.18994 37.0537 6.18187 43.9297 11.4496 48.8362L27.499 63.785C28.9087 65.098 31.0911 65.098 32.5007 63.785L48.5501 48.8362C53.8179 43.9297 56.8098 37.0537 56.8098 29.8552V6.85048C56.8098 4.93484 54.8935 3.63322 53.0989 4.30949C44.4826 7.55505 30.0013 7.55505 30.0013 7.55505Z" fill="white"/>
<path d="M30.0016 14.53C30.0016 14.53 19.2765 14.53 12.8935 12.1249C11.566 11.624 10.145 12.5889 10.145 14.0066V31.0436C10.145 36.3746 12.3614 41.4679 16.2619 45.1011L28.1476 56.1706C29.1921 57.1411 30.8083 57.1411 31.8528 56.1706L43.7385 45.1011C47.6418 41.4679 49.8554 36.3746 49.8554 31.0436V14.0094C49.8554 12.5918 48.4344 11.6269 47.1069 12.1277C40.7267 14.53 30.0016 14.53 30.0016 14.53Z" fill="#95EF76"/>
<path d="M17.23 43.576L19.0557 36.7651C18.0225 34.9004 17.4762 32.8093 17.4762 30.6899C17.4791 23.7517 23.1233 18.1095 30.061 18.1095C36.9988 18.1095 42.643 23.7517 42.643 30.6871C42.643 37.6225 36.9988 43.2647 30.061 43.2647C27.9777 43.2647 25.9227 42.7384 24.08 41.7396L17.23 43.576ZM24.4197 39.1901L24.8499 39.4476C26.4322 40.3898 28.2353 40.8907 30.0582 40.8907C35.6854 40.8907 40.2625 36.3152 40.2625 30.6899C40.2625 25.0647 35.6854 20.4892 30.0582 20.4892C24.431 20.4892 19.8539 25.0647 19.8539 30.6899C19.8539 32.5462 20.3691 34.3769 21.3457 35.9785L21.6089 36.4142L20.5899 40.2172L24.4197 39.1901Z" fill="white"/>
<path fill-rule="evenodd" clip-rule="evenodd" d="M34.7429 32.4358C34.2249 32.1274 33.5512 31.7793 32.9398 32.0312C32.4728 32.2236 32.1727 32.9565 31.8699 33.33C31.7142 33.5224 31.5274 33.5507 31.2896 33.4545C29.5318 32.7556 28.1873 31.5813 27.2164 29.9656C27.0522 29.7137 27.0805 29.5157 27.2787 29.2836C27.5702 28.9384 27.9382 28.5479 28.0174 28.0839C28.0967 27.6198 27.8787 27.0765 27.6863 26.6634C27.44 26.1343 27.1654 25.3816 26.6361 25.0817C26.1492 24.8072 25.5067 24.96 25.0736 25.3137C24.3235 25.9221 23.964 26.8785 23.9754 27.8264C23.9782 28.0952 24.0122 28.364 24.0744 28.6243C24.2245 29.2497 24.5132 29.8326 24.8387 30.3872C25.0849 30.806 25.351 31.2106 25.6369 31.6011C26.5767 32.8772 27.7457 33.9864 29.0987 34.8155C29.7752 35.2286 30.5027 35.5937 31.2585 35.8427C32.1048 36.1228 32.8577 36.4142 33.772 36.2388C34.7288 36.0577 35.6714 35.4663 36.0506 34.5439C36.1639 34.2722 36.2177 33.9666 36.1554 33.678C36.0308 33.0781 35.2241 32.7244 34.7429 32.4358Z" fill="white"/>
</g>
<defs>
<clipPath id="clip0_1061_599">
<rect width="60" height="69" fill="white"/>
</clipPath>
</defs>
</svg>
