<svg width="48" height="32" viewBox="0 0 48 32" fill="none" xmlns="http://www.w3.org/2000/svg">
<path d="M45 27H43V3C43 2.45 42.55 2 42 2H6C5.45 2 5 2.45 5 3V27H3V3C3 1.35 4.35 0 6 0H42C43.65 0 45 1.35 45 3V27Z" fill="white"/>
<path d="M17.6399 24.36C17.5599 24.36 17.4799 24.36 17.3999 24.35C16.5199 24.28 15.7199 23.82 15.1999 23.1C14.3499 21.93 14.5299 20.23 15.5999 19.16L21.5799 13.18C21.8599 12.9 21.9599 12.51 21.8399 12.2C20.9499 9.95 21.4899 7.62 23.3099 5.8C25.5699 3.54 29.2099 3.21 31.0899 5.09C31.2799 5.28 31.3799 5.53 31.3799 5.8C31.3799 6.07 31.2699 6.32 31.0899 6.51L28.2599 9.34L29.6799 10.75L32.5099 7.92C32.8999 7.53 33.5299 7.53 33.9199 7.92C35.7999 9.8 35.4699 13.44 33.2099 15.7C31.3899 17.52 29.0599 18.05 26.8099 17.17C26.4999 17.05 26.1099 17.15 25.8299 17.43L19.7699 23.49C19.1899 24.05 18.4299 24.36 17.6399 24.36ZM27.8499 5.9C26.8199 5.9 25.6199 6.32 24.7099 7.23C23.9899 7.95 22.8899 9.47 23.6899 11.48C24.1099 12.54 23.8299 13.77 22.9899 14.61L16.9999 20.58C16.6199 20.96 16.5399 21.56 16.8099 21.94C16.9899 22.19 17.2499 22.34 17.5499 22.36C17.8499 22.38 18.1299 22.28 18.3399 22.07L24.3999 16.02C25.2399 15.18 26.4699 14.9 27.5299 15.32C29.5499 16.12 31.0599 15.02 31.7799 14.3C32.9699 13.11 33.3099 11.42 32.9899 10.26L30.3699 12.88C29.9799 13.27 29.3499 13.27 28.9599 12.88L26.1299 10.05C25.9399 9.86 25.8399 9.61 25.8399 9.34C25.8399 9.07 25.9499 8.82 26.1299 8.63L28.7499 6.01C28.4699 5.94 28.1699 5.9 27.8499 5.9Z" fill="white"/>
<path d="M43 32H5C2.24 32 0 29.76 0 27V26H19.41L20.41 27H27.58L28.58 26H48V27C48 29.76 45.76 32 43 32ZM2.17 28C2.58 29.16 3.7 30 5 30H43C44.3 30 45.42 29.16 45.83 28H29.41L28.41 29H19.58L18.58 28H2.17Z" fill="white"/>
</svg>
