<svg width="32" height="50" viewBox="0 0 32 50" fill="none" xmlns="http://www.w3.org/2000/svg">
<g clip-path="url(#clip0_185_71)">
<path d="M28.5992 28.6152C28.3911 28.4762 28.1867 28.3438 27.9913 28.2222C28.3783 26.4634 28.5755 24.7872 28.5755 23.2326C28.5755 16.4734 25.766 10.7196 23.4093 7.08051C22.2191 5.24362 20.8408 3.49792 19.5301 2.1691C17.648 0.262724 16.7627 0 16.0836 0C15.4063 0 14.5191 0.262724 12.6407 2.1691C11.33 3.49792 9.9517 5.24145 8.76147 7.08051C6.40475 10.7174 3.59529 16.4713 3.59529 23.2326C3.59529 24.7916 3.79062 26.4678 4.17946 28.2222C3.98413 28.3459 3.77967 28.4762 3.57156 28.6152C0.0592911 30.9536 0.166996 36.7379 0.376929 39.1154C0.422567 39.63 0.81505 40.0838 1.40286 40.2944C1.6347 40.3791 1.8921 40.4225 2.14949 40.4225C2.49999 40.4225 2.83953 40.3422 3.12979 40.1924C3.94762 39.769 6.02139 38.7289 7.88158 38.045C7.97103 38.2209 8.06048 38.3946 8.1481 38.5618C8.53511 39.3022 9.42048 39.8015 10.4409 39.871C9.16491 45.9766 14.9426 49.3486 15.1927 49.4919L16.0854 50.0022L16.9781 49.4919C17.2282 49.3486 23.0059 45.9766 21.7299 39.871C22.7503 39.8015 23.6357 39.3022 24.0227 38.5596C24.1103 38.3902 24.1979 38.2209 24.2892 38.045C26.1512 38.7289 28.2232 39.7711 29.041 40.1924C29.3313 40.3422 29.6708 40.4225 30.0213 40.4225C30.2787 40.4225 30.5361 40.3791 30.7679 40.2944C31.3557 40.0816 31.7482 39.63 31.7939 39.1154C32.002 36.7357 32.1115 30.9536 28.5992 28.6152ZM16.0836 48.339C15.6418 48.0806 10.8736 45.1494 12.0638 39.9644H20.1033C21.2936 45.1494 16.5253 48.0806 16.0836 48.339ZM22.5459 37.9885C22.3834 38.299 21.958 38.5075 21.4852 38.5075H10.6837C10.2109 38.5075 9.78558 38.299 9.62494 37.9907C9.43508 37.6281 9.24523 37.2547 9.05903 36.879L8.75965 36.2732L8.01849 36.5121C5.88813 37.2004 3.28861 38.4966 2.26998 39.0242C2.20974 39.0546 2.12029 39.0611 2.05274 39.0351C2.01623 39.0221 1.99615 39.0047 1.98885 38.9938C1.84098 37.2981 1.59637 31.6788 4.58289 29.6899C4.92061 29.4641 5.24555 29.26 5.54493 29.0798L5.9721 28.8258L5.86622 28.3785C5.43358 26.5546 5.21452 24.822 5.21452 23.2261C5.21452 16.7665 7.91444 11.2428 10.1799 7.74709C11.3227 5.98185 12.6407 4.31431 13.8875 3.04846C15.1982 1.71965 15.8846 1.36573 16.0854 1.36573C16.2844 1.36573 16.9726 1.71965 18.2833 3.04846C19.5319 4.31431 20.8481 5.98185 21.9909 7.74709C24.2564 11.2428 26.9563 16.7665 26.9563 23.2261C26.9563 24.8176 26.7372 26.5503 26.3046 28.3785L26.1987 28.8258L26.624 29.0798C26.9252 29.26 27.2484 29.4641 27.5861 29.6899C30.5708 31.6788 30.328 37.2981 30.1801 38.9938C30.1728 39.0025 30.1527 39.0199 30.1162 39.0351C30.0487 39.059 29.9592 39.0546 29.899 39.0242C28.8822 38.4988 26.2845 37.2004 24.1505 36.5121L23.4111 36.2732L23.1099 36.8768C22.9183 37.2677 22.7321 37.6303 22.5459 37.9885Z" fill="white"/>
<path d="M16.0834 9.0759C12.1038 9.0759 8.86719 12.9256 8.86719 17.6589C8.86719 22.3923 12.1038 26.242 16.0834 26.242C20.063 26.242 23.2996 22.3923 23.2996 17.6589C23.2996 12.9256 20.063 9.0759 16.0834 9.0759ZM16.0834 24.2813C13.0129 24.2813 10.5156 21.311 10.5156 17.6589C10.5156 14.0069 13.0129 11.0366 16.0834 11.0366C19.1539 11.0366 21.6512 14.0069 21.6512 17.6589C21.6512 21.311 19.1539 24.2813 16.0834 24.2813Z" fill="white"/>
</g>
<defs>
<clipPath id="clip0_185_71">
<rect width="31.5904" height="50" fill="white" transform="translate(0.289185)"/>
</clipPath>
</defs>
</svg>
