<svg width="45" height="45" viewBox="0 0 45 45" fill="none" xmlns="http://www.w3.org/2000/svg">
<g clip-path="url(#clip0_185_59)">
<path d="M36.5625 45C34.2369 45 32.3438 43.1068 32.3438 40.7812C32.3438 38.4557 34.2369 36.5625 36.5625 36.5625C38.8881 36.5625 40.7812 38.4557 40.7812 40.7812C40.7812 43.1068 38.8881 45 36.5625 45ZM36.5625 39.375C35.7873 39.375 35.1562 40.0061 35.1562 40.7812C35.1562 41.5564 35.7873 42.1875 36.5625 42.1875C37.3377 42.1875 37.9688 41.5564 37.9688 40.7812C37.9688 40.0061 37.3377 39.375 36.5625 39.375Z" fill="white"/>
<path d="M16.875 45C14.5494 45 12.6562 43.1068 12.6562 40.7812C12.6562 38.4557 14.5494 36.5625 16.875 36.5625C19.2006 36.5625 21.0938 38.4557 21.0938 40.7812C21.0938 43.1068 19.2006 45 16.875 45ZM16.875 39.375C16.0998 39.375 15.4688 40.0061 15.4688 40.7812C15.4688 41.5564 16.0998 42.1875 16.875 42.1875C17.6502 42.1875 18.2812 41.5564 18.2812 40.7812C18.2812 40.0061 17.6502 39.375 16.875 39.375Z" fill="white"/>
<path d="M38.3414 32.3438H15.0961C13.0096 32.3438 11.2148 30.7863 10.9195 28.7209L8.45508 11.4732C8.45332 11.4592 8.44981 11.4434 8.44805 11.4275L7.21758 2.8125H1.40625C0.629297 2.8125 0 2.1832 0 1.40625C0 0.629297 0.629297 0 1.40625 0H8.4375C9.13711 0 9.73125 0.515039 9.82969 1.20762L11.0637 9.84375H43.5938C44.0016 9.84375 44.3883 10.0213 44.6555 10.3289C44.9227 10.6365 45.0422 11.0461 44.9859 11.4486L42.518 28.7209C42.2227 30.7863 40.4279 32.3438 38.3414 32.3438ZM11.4645 12.6562L13.7021 28.3236C13.8006 29.0127 14.3982 29.5312 15.0943 29.5312H38.3414C39.0375 29.5312 39.6352 29.0127 39.7336 28.3236L41.973 12.6562H11.4645Z" fill="white"/>
</g>
<defs>
<clipPath id="clip0_185_59">
<rect width="45" height="45" fill="white"/>
</clipPath>
</defs>
</svg>
