<svg width="43" height="43" viewBox="0 0 43 43" fill="none" xmlns="http://www.w3.org/2000/svg">
<path d="M3.03725 31.9584C0.684144 27.8937 -0.25621 23.1698 0.361986 18.5189C0.980181 13.868 3.12239 9.55013 6.45647 6.23465C9.79055 2.91918 14.1302 0.791368 18.8027 0.181125C23.4751 -0.429119 28.2193 0.5123 32.2996 2.85942C36.3799 5.20653 39.5684 8.82822 41.3707 13.163C43.173 17.4977 43.4885 22.3033 42.2682 26.8347C41.0478 31.366 38.3599 35.37 34.6212 38.2259C30.8824 41.0817 26.3017 42.6298 21.5892 42.6301H21.5806C18.0063 42.6295 14.489 41.7378 11.3498 40.0364L0 43L3.03725 31.9584ZM12.5249 36.563C15.2666 38.1798 18.3948 39.0324 21.5815 39.0314H21.5884C25.5325 39.0305 29.3645 37.7249 32.4821 35.3198C35.5997 32.9146 37.8261 29.5463 38.8113 25.7442C39.7965 21.9422 39.4846 17.922 37.9248 14.3156C36.3649 10.7092 33.6454 7.72113 30.1939 5.821C26.7423 3.92086 22.7544 3.21643 18.8569 3.81844C14.9594 4.42045 11.3733 6.29476 8.66235 9.14675C5.95141 11.9987 4.26932 15.6667 3.88047 19.5741C3.49162 23.4815 4.41807 27.4067 6.51418 30.7328L6.93748 31.4023L5.13996 37.9362L11.8748 36.1785L12.5249 36.563ZM25.0825 31.2418C24.047 30.9216 23.0291 30.5471 22.0332 30.12C16.6665 27.8138 13.1629 22.4368 12.8947 22.0815C12.6266 21.7262 10.7101 19.1943 10.7101 16.574C10.6952 15.7449 10.854 14.9217 11.1762 14.1571C11.4985 13.3924 11.9771 12.7029 12.5818 12.1325C12.7606 11.9295 12.9797 11.7655 13.2252 11.6509C13.4708 11.5363 13.7375 11.4735 14.0086 11.4665C14.3647 11.4665 14.7216 11.4665 15.0337 11.4845C15.0716 11.4845 15.1121 11.4845 15.1535 11.4845C15.4656 11.4845 15.8535 11.4845 16.2363 12.3977C16.682 13.4636 17.7519 16.0882 17.8856 16.3509C17.9703 16.4904 18.0188 16.6488 18.0264 16.8118C18.0341 16.9747 18.0008 17.1369 17.9295 17.2838C17.795 17.6039 17.615 17.903 17.395 18.1721C17.1269 18.4836 16.8329 18.8664 16.5924 19.105C16.3242 19.3711 16.0458 19.6586 16.3579 20.1916C17.1616 21.5614 18.1648 22.8051 19.3348 23.8821C20.6036 25.0052 22.0594 25.8994 23.6368 26.5247C24.1721 26.7917 24.4834 26.747 24.7954 26.3908C25.1075 26.0347 26.1326 24.8365 26.4895 24.3035C26.8464 23.7706 27.2025 23.8598 27.6965 24.0375C28.1905 24.2151 30.8165 25.5025 31.3519 25.7695C31.8872 26.0364 32.2433 26.1694 32.3769 26.3908C32.5237 27.247 32.4152 28.1273 32.0648 28.9227C31.6191 30.1655 29.4785 31.3018 28.4543 31.4546C28.0246 31.5206 27.5907 31.5547 27.1559 31.5567C26.4526 31.5592 25.7531 31.4529 25.0825 31.2418Z" fill="white"/>
</svg>
