<svg width="30" height="30" viewBox="0 0 30 30" fill="none" xmlns="http://www.w3.org/2000/svg">
<path d="M14.625 0C11.7325 0 8.90486 0.857741 6.49979 2.46476C4.09472 4.07177 2.2202 6.35589 1.11327 9.02825C0.00633669 11.7006 -0.283287 14.6412 0.281022 17.4782C0.845331 20.3152 2.23823 22.9211 4.28357 24.9664C6.32891 27.0118 8.93484 28.4047 11.7718 28.969C14.6088 29.5333 17.5494 29.2437 20.2218 28.1367C22.8941 27.0298 25.1782 25.1553 26.7853 22.7502C28.3923 20.3451 29.25 17.5176 29.25 14.625C29.2387 10.7497 27.6942 7.03636 24.9539 4.29609C22.2136 1.55583 18.5003 0.0113441 14.625 0ZM11.625 22.425L4.12501 14.925L6.22501 12.825L11.625 18.225L23.025 6.825L25.125 8.925L11.625 22.425Z" fill="#22A7C2"/>
</svg>
