<svg width="30" height="30" viewBox="0 0 30 30" fill="none" xmlns="http://www.w3.org/2000/svg">
<path d="M14.625 1.36802e-07C11.7325 1.36802e-07 8.90486 0.857742 6.49979 2.46476C4.09472 4.07177 2.2202 6.35589 1.11327 9.02825C0.00633669 11.7006 -0.283287 14.6412 0.281022 17.4782C0.845331 20.3152 2.23823 22.9211 4.28357 24.9664C6.32891 27.0118 8.93484 28.4047 11.7718 28.969C14.6088 29.5333 17.5494 29.2437 20.2218 28.1367C22.8941 27.0298 25.1782 25.1553 26.7853 22.7502C28.3923 20.3451 29.25 17.5176 29.25 14.625C29.2503 12.7043 28.8722 10.8024 28.1373 9.02794C27.4024 7.25344 26.3251 5.64109 24.967 4.28298C23.6089 2.92487 21.9966 1.84761 20.2221 1.11273C18.4476 0.377845 16.5457 -0.000262571 14.625 1.36802e-07ZM18.33 19.92L14.625 16.214L10.92 19.919C10.8167 20.028 10.6927 20.1152 10.5551 20.1754C10.4176 20.2357 10.2694 20.2678 10.1192 20.2698C9.9691 20.2718 9.82008 20.2437 9.68097 20.1872C9.54187 20.1307 9.4155 20.0469 9.30932 19.9407C9.20315 19.8345 9.11933 19.7081 9.0628 19.569C9.00627 19.4299 8.97819 19.2809 8.98021 19.1308C8.98223 18.9806 9.01432 18.8324 9.07457 18.6949C9.13482 18.5573 9.22201 18.4333 9.33101 18.33L13.036 14.625L9.33101 10.92C9.12957 10.7074 9.01906 10.4246 9.023 10.1318C9.02695 9.83893 9.14503 9.55919 9.35211 9.35211C9.5592 9.14502 9.83893 9.02694 10.1318 9.023C10.4246 9.01905 10.7074 9.12956 10.92 9.331L14.625 13.036L18.33 9.331C18.4333 9.22201 18.5574 9.13481 18.6949 9.07456C18.8324 9.01431 18.9806 8.98223 19.1308 8.98021C19.2809 8.97819 19.4299 9.00627 19.569 9.06279C19.7081 9.11932 19.8345 9.20314 19.9407 9.30932C20.0469 9.41549 20.1307 9.54186 20.1872 9.68097C20.2437 9.82007 20.2718 9.9691 20.2698 10.1192C20.2678 10.2694 20.2357 10.4176 20.1754 10.5551C20.1152 10.6927 20.028 10.8167 19.919 10.92L16.214 14.625L19.919 18.33C20.1284 18.5414 20.2459 18.8269 20.2459 19.1245C20.2459 19.4221 20.1284 19.7076 19.919 19.919C19.8153 20.0243 19.6916 20.108 19.5553 20.1651C19.4189 20.2222 19.2726 20.2517 19.1247 20.2518C18.9769 20.2519 18.8305 20.2226 18.6941 20.1656C18.5576 20.1087 18.4339 20.0252 18.33 19.92Z" fill="#999999"/>
</svg>
