<svg width="10" height="15" viewBox="0 0 53 68" fill="none" xmlns="http://www.w3.org/2000/svg">
<g clip-path="url(#clip0_1061_620)">
<path d="M15.854 37.0412C14.8162 37.0412 13.9785 36.1951 13.9785 35.147V18.9415C13.9785 8.84357 21.5761 0.631378 30.9117 0.631378C40.2514 0.631378 47.8448 8.84357 47.8448 18.9415C47.8448 19.9896 47.0071 20.8356 45.9694 20.8356C44.9317 20.8356 44.094 19.9896 44.094 18.9415C44.094 10.9356 38.1801 4.41968 30.9117 4.41968C23.6433 4.41968 17.7294 10.9356 17.7294 18.9415V35.147C17.7294 36.1951 16.8875 37.0412 15.854 37.0412Z" fill="#C9C3D9"/>
<path d="M15.8541 37.6725C14.4746 37.6725 13.3535 36.5403 13.3535 35.147V18.9415C13.3535 8.49842 21.2304 0 30.9118 0C40.5933 0 48.4701 8.49842 48.4701 18.9415C48.4701 20.3348 47.349 21.467 45.9695 21.467C44.59 21.467 43.469 20.3348 43.469 18.9415C43.469 11.2807 37.8343 5.05107 30.9118 5.05107C23.9894 5.05107 18.3547 11.2807 18.3547 18.9415V35.147C18.3547 36.5403 17.2336 37.6725 15.8541 37.6725ZM30.9118 1.26277C21.918 1.26277 14.6038 9.19294 14.6038 18.9415V35.147C14.6038 35.8415 15.1664 36.4098 15.8541 36.4098C16.5418 36.4098 17.1044 35.8415 17.1044 35.147V18.9415C17.1044 10.5862 23.2975 3.7883 30.9118 3.7883C38.5261 3.7883 44.7192 10.5862 44.7192 18.9415C44.7192 19.636 45.2819 20.2043 45.9695 20.2043C46.6572 20.2043 47.2198 19.636 47.2198 18.9415C47.224 9.19294 39.9056 1.26277 30.9118 1.26277Z" fill="#C9C3D9"/>
<path d="M51.9124 68H9.54821C8.94806 68 8.46045 67.5075 8.46045 66.9014V33.2613C8.46045 32.6551 8.94806 32.1627 9.54821 32.1627H51.9124C52.5125 32.1627 53.0001 32.6551 53.0001 33.2613V66.9014C53.0001 67.5075 52.5125 68 51.9124 68Z" fill="#F5F5F5"/>
<path d="M35.5128 46.0321C35.5128 43.3634 33.3706 41.1999 30.7283 41.1999C28.086 41.1999 25.9438 43.3634 25.9438 46.0321C25.9438 48.0736 27.2025 49.812 28.9737 50.5191V57.2623C28.9737 58.2009 29.7281 58.9628 30.6575 58.9628H30.795C31.7244 58.9628 32.4787 58.2009 32.4787 57.2623V50.5191C34.2541 49.812 35.5128 48.0736 35.5128 46.0321Z" fill="#7624AD"/>
<path d="M10.49 41.3935C16.2834 41.3935 20.9799 36.6501 20.9799 30.7989C20.9799 24.9477 16.2834 20.2043 10.49 20.2043C4.69652 20.2043 0 24.9477 0 30.7989C0 36.6501 4.69652 41.3935 10.49 41.3935Z" fill="#95EF76"/>
<path d="M6.73486 29.4098L10.1023 34.5914L14.2408 27.0064" stroke="white" stroke-width="3" stroke-miterlimit="10" stroke-linecap="round" stroke-linejoin="round"/>
</g>
<defs>
<clipPath id="clip0_1061_620">
<rect width="53" height="68" fill="white"/>
</clipPath>
</defs>
</svg>
