<svg xmlns="http://www.w3.org/2000/svg" width="48" height="32" viewBox="0 0 48 32" fill="none">
  <g clip-path="url(#clip0_426_492)">
    <path d="M45 27H43V3C43 2.45 42.55 2 42 2H6C5.45 2 5 2.45 5 3V27H3V3C3 1.35 4.35 0 6 0H42C43.65 0 45 1.35 45 3V27Z" fill="#95EF76"/>
    <path d="M17.6404 24.3601C17.5604 24.3601 17.4804 24.3601 17.4004 24.3501C16.5204 24.2801 15.7204 23.8201 15.2004 23.1001C14.3504 21.9301 14.5304 20.2301 15.6004 19.1601L21.5804 13.1801C21.8604 12.9001 21.9604 12.5101 21.8404 12.2001C20.9504 9.95009 21.4904 7.62009 23.3104 5.80009C25.5704 3.54009 29.2104 3.21009 31.0904 5.09009C31.2804 5.28009 31.3804 5.53009 31.3804 5.80009C31.3804 6.07009 31.2704 6.32009 31.0904 6.51009L28.2604 9.34009L29.6804 10.7501L32.5104 7.92009C32.9004 7.53009 33.5304 7.53009 33.9204 7.92009C35.8004 9.80009 35.4704 13.4401 33.2104 15.7001C31.3904 17.5201 29.0604 18.0501 26.8104 17.1701C26.5004 17.0501 26.1104 17.1501 25.8304 17.4301L19.7704 23.4901C19.1904 24.0501 18.4304 24.3601 17.6404 24.3601ZM27.8504 5.90009C26.8204 5.90009 25.6204 6.32009 24.7104 7.23009C23.9904 7.95009 22.8904 9.47009 23.6904 11.4801C24.1104 12.5401 23.8304 13.7701 22.9904 14.6101L17.0004 20.5801C16.6204 20.9601 16.5404 21.5601 16.8104 21.9401C16.9904 22.1901 17.2504 22.3401 17.5504 22.3601C17.8504 22.3801 18.1304 22.2801 18.3404 22.0701L24.4004 16.0201C25.2404 15.1801 26.4704 14.9001 27.5304 15.3201C29.5504 16.1201 31.0604 15.0201 31.7804 14.3001C32.9704 13.1101 33.3104 11.4201 32.9904 10.2601L30.3704 12.8801C29.9804 13.2701 29.3504 13.2701 28.9604 12.8801L26.1304 10.0501C25.9404 9.86009 25.8404 9.61009 25.8404 9.34009C25.8404 9.07009 25.9504 8.82009 26.1304 8.63009L28.7504 6.01009C28.4704 5.94009 28.1704 5.90009 27.8504 5.90009Z" fill="#95EF76"/>
    <path d="M43 32H5C2.24 32 0 29.76 0 27V26H19.41L20.41 27H27.58L28.58 26H48V27C48 29.76 45.76 32 43 32ZM2.17 28C2.58 29.16 3.7 30 5 30H43C44.3 30 45.42 29.16 45.83 28H29.41L28.41 29H19.58L18.58 28H2.17Z" fill="#95EF76"/>
  </g>
  <defs>
    <clipPath id="clip0_426_492">
      <rect width="48" height="32" fill="white"/>
    </clipPath>
  </defs>
</svg>