<svg xmlns="http://www.w3.org/2000/svg" width="32" height="50" viewBox="0 0 32 50" fill="none">
  <g clip-path="url(#clip0_426_463)">
    <path d="M28.6776 28.6152C28.4668 28.4762 28.2597 28.3438 28.0618 28.2222C28.4539 26.4634 28.6536 24.7872 28.6536 23.2326C28.6536 16.4734 25.8077 10.7196 23.4204 7.08051C22.2147 5.24362 20.8186 3.49792 19.4909 2.1691C17.5844 0.262724 16.6876 0 15.9997 0C15.3136 0 14.4149 0.262724 12.5121 2.1691C11.1844 3.49792 9.78828 5.24145 8.58262 7.08051C6.19533 10.7174 3.34945 16.4713 3.34945 23.2326C3.34945 24.7916 3.54731 26.4678 3.94119 28.2222C3.74332 28.3459 3.53622 28.4762 3.32541 28.6152C-0.232405 30.9536 -0.123304 36.7379 0.0893514 39.1154C0.135581 39.63 0.533154 40.0838 1.12859 40.2944C1.36343 40.3791 1.62417 40.4225 1.8849 40.4225C2.23994 40.4225 2.58389 40.3422 2.87791 40.1924C3.70634 39.769 5.80701 38.7289 7.69132 38.045C7.78193 38.2209 7.87254 38.3946 7.9613 38.5618C8.35332 39.3022 9.25017 39.8015 10.2839 39.871C8.99129 45.9766 14.8439 49.3486 15.0973 49.4919L16.0015 50.0022L16.9058 49.4919C17.1591 49.3486 23.0117 45.9766 21.7192 39.871C22.7529 39.8015 23.6497 39.3022 24.0417 38.5596C24.1305 38.3902 24.2193 38.2209 24.3117 38.045C26.1979 38.7289 28.2967 39.7711 29.1251 40.1924C29.4191 40.3422 29.7631 40.4225 30.1181 40.4225C30.3789 40.4225 30.6396 40.3791 30.8744 40.2944C31.4699 40.0816 31.8675 39.63 31.9137 39.1154C32.1245 36.7357 32.2354 30.9536 28.6776 28.6152ZM15.9997 48.339C15.5522 48.0806 10.7221 45.1494 11.9278 39.9644H20.0716C21.2772 45.1494 16.4472 48.0806 15.9997 48.339ZM22.5458 37.9885C22.3812 38.299 21.9503 38.5075 21.4714 38.5075H10.5298C10.0509 38.5075 9.62001 38.299 9.45728 37.9907C9.26497 37.6281 9.07265 37.2547 8.88404 36.879L8.58077 36.2732L7.83 36.5121C5.67202 37.2004 3.03879 38.4966 2.00695 39.0242C1.94592 39.0546 1.85532 39.0611 1.7869 39.0351C1.74991 39.0221 1.72957 39.0047 1.72217 38.9938C1.57239 37.2981 1.3246 31.6788 4.34985 29.6899C4.69195 29.4641 5.02111 29.26 5.32437 29.0798L5.75708 28.8258L5.64983 28.3785C5.21157 26.5546 4.98967 24.822 4.98967 23.2261C4.98967 16.7665 7.7246 11.2428 10.0194 7.74709C11.177 5.98185 12.5121 4.31431 13.7751 3.04846C15.1028 1.71965 15.7981 1.36573 16.0015 1.36573C16.2031 1.36573 16.9002 1.71965 18.2279 3.04846C19.4928 4.31431 20.826 5.98185 21.9836 7.74709C24.2784 11.2428 27.0134 16.7665 27.0134 23.2261C27.0134 24.8176 26.7915 26.5503 26.3532 28.3785L26.246 28.8258L26.6768 29.0798C26.9819 29.26 27.3092 29.4641 27.6513 29.6899C30.6747 31.6788 30.4288 37.2981 30.279 38.9938C30.2716 39.0025 30.2513 39.0199 30.2143 39.0351C30.1459 39.059 30.0553 39.0546 29.9942 39.0242C28.9642 38.4988 26.3329 37.2004 24.1712 36.5121L23.4223 36.2732L23.1171 36.8768C22.923 37.2677 22.7344 37.6303 22.5458 37.9885Z" fill="#95EF76"/>
    <path d="M15.9992 9.07593C11.968 9.07593 8.68945 12.9256 8.68945 17.659C8.68945 22.3923 11.968 26.242 15.9992 26.242C20.0305 26.242 23.309 22.3923 23.309 17.659C23.309 12.9256 20.0305 9.07593 15.9992 9.07593ZM15.9992 24.2813C12.8889 24.2813 10.3593 21.311 10.3593 17.659C10.3593 14.0069 12.8889 11.0366 15.9992 11.0366C19.1096 11.0366 21.6392 14.0069 21.6392 17.659C21.6392 21.311 19.1096 24.2813 15.9992 24.2813Z" fill="#95EF76"/>
  </g>
  <defs>
    <clipPath id="clip0_426_463">
      <rect width="32" height="50" fill="white"/>
    </clipPath>
  </defs>
</svg>