<svg xmlns="http://www.w3.org/2000/svg" width="48" height="48" viewBox="0 0 48 48" fill="none">
  <g clip-path="url(#clip0_426_482)">
    <path d="M39 48C36.5194 48 34.5 45.9806 34.5 43.5C34.5 41.0194 36.5194 39 39 39C41.4806 39 43.5 41.0194 43.5 43.5C43.5 45.9806 41.4806 48 39 48ZM39 42C38.1731 42 37.5 42.6731 37.5 43.5C37.5 44.3269 38.1731 45 39 45C39.8269 45 40.5 44.3269 40.5 43.5C40.5 42.6731 39.8269 42 39 42Z" fill="#95EF76"/>
    <path d="M18 48C15.5194 48 13.5 45.9806 13.5 43.5C13.5 41.0194 15.5194 39 18 39C20.4806 39 22.5 41.0194 22.5 43.5C22.5 45.9806 20.4806 48 18 48ZM18 42C17.1731 42 16.5 42.6731 16.5 43.5C16.5 44.3269 17.1731 45 18 45C18.8269 45 19.5 44.3269 19.5 43.5C19.5 42.6731 18.8269 42 18 42Z" fill="#95EF76"/>
    <path d="M40.8975 34.5H16.1025C13.8769 34.5 11.9625 32.8387 11.6475 30.6356L9.01875 12.2381C9.01687 12.2231 9.01312 12.2063 9.01125 12.1894L7.69875 3H1.5C0.67125 3 0 2.32875 0 1.5C0 0.67125 0.67125 0 1.5 0H9C9.74625 0 10.38 0.549375 10.485 1.28813L11.8012 10.5H46.5C46.935 10.5 47.3475 10.6894 47.6325 11.0175C47.9175 11.3456 48.045 11.7825 47.985 12.2119L45.3525 30.6356C45.0375 32.8387 43.1231 34.5 40.8975 34.5ZM12.2287 13.5L14.6156 30.2119C14.7206 30.9469 15.3581 31.5 16.1006 31.5H40.8975C41.64 31.5 42.2775 30.9469 42.3825 30.2119L44.7712 13.5H12.2287Z" fill="#95EF76"/>
  </g>
  <defs>
    <clipPath id="clip0_426_482">
      <rect width="48" height="48" fill="white"/>
    </clipPath>
  </defs>
</svg>