<svg width="50" height="47" viewBox="0 0 50 47" fill="none" xmlns="http://www.w3.org/2000/svg">
<g id="undraw_time_management_re_tk5w 1" clip-path="url(#clip0_437_1848)">
<path id="Vector" d="M46.2203 35.9564L48.4633 36.3087C49.2226 35.3848 49.746 34.2886 49.9881 33.1152C48.3479 34.4646 45.8537 33.7475 43.8649 34.4842C43.2464 34.7187 42.6883 35.0901 42.232 35.5709C41.7757 36.0517 41.4329 36.6295 41.229 37.2616L40.1328 38.4469C41.1251 38.8417 42.1907 39.0156 43.2563 38.9566C44.3219 38.8977 45.3621 38.6072 46.3053 38.1053C46.8316 37.8185 47.3199 37.4662 47.7587 37.0567C46.9738 36.56 46.2203 35.9564 46.2203 35.9564Z" fill="#95EF76"/>
<path id="Vector_2" d="M45.4235 32.3509L47.5875 31.6609C47.8571 30.4936 47.8391 29.2778 47.5351 28.1191C46.6658 30.062 44.1152 30.5382 42.662 32.089C42.2125 32.5761 41.8778 33.1587 41.6827 33.7936C41.4877 34.4284 41.4373 35.0992 41.5352 35.7563L41.0801 37.3086C42.1434 37.2172 43.1744 36.8952 44.102 36.3648C45.0296 35.8344 45.8317 35.1082 46.4532 34.2362C46.797 33.7436 47.0777 33.2094 47.2887 32.6462C46.3658 32.5535 45.4235 32.3509 45.4235 32.3509Z" fill="#95EF76"/>
<path id="Vector_3" d="M50 39.1649C50 39.1766 49.9978 39.1881 49.9934 39.1988C49.9889 39.2096 49.9825 39.2194 49.9743 39.2276C49.9661 39.2358 49.9564 39.2423 49.9457 39.2468C49.935 39.2512 49.9235 39.2535 49.9119 39.2534H0.0880609C0.0647058 39.2534 0.0423069 39.2441 0.0257923 39.2275C0.00927768 39.2109 0 39.1884 0 39.1649C0 39.1414 0.00927768 39.1189 0.0257923 39.1023C0.0423069 39.0857 0.0647058 39.0764 0.0880609 39.0764H49.9119C49.9235 39.0764 49.935 39.0786 49.9457 39.0831C49.9564 39.0875 49.9661 39.094 49.9743 39.1023C49.9825 39.1105 49.9889 39.1203 49.9934 39.131C49.9978 39.1418 50 39.1533 50 39.1649Z" fill="#999999"/>
<path id="Vector_4" d="M20.6465 35.3917C29.4334 35.3917 36.5566 28.2326 36.5566 19.4014C36.5566 10.5702 29.4334 3.41113 20.6465 3.41113C11.8595 3.41113 4.73633 10.5702 4.73633 19.4014C4.73633 28.2326 11.8595 35.3917 20.6465 35.3917Z" fill="#999999"/>
<path id="Vector_5" d="M34.3363 19.4014C34.3379 21.5483 33.8389 23.6657 32.8793 25.5839C31.9197 27.502 30.5262 29.1674 28.8107 30.4466C28.696 30.5329 28.579 30.6169 28.4614 30.6987C26.1672 32.3014 23.4401 33.1605 20.6462 33.1605C17.8522 33.1605 15.1251 32.3014 12.831 30.6987C12.7133 30.6169 12.5964 30.5329 12.4817 30.4466C10.7673 29.1663 9.37467 27.5006 8.41521 25.5828C7.45576 23.6649 6.95605 21.548 6.95605 19.4014C6.95605 17.2548 7.45576 15.1379 8.41521 13.22C9.37467 11.3022 10.7673 9.63652 12.4817 8.35622C12.5964 8.26994 12.7133 8.1859 12.831 8.10409C15.1251 6.50136 17.8522 5.64233 20.6462 5.64233C23.4401 5.64233 26.1672 6.50136 28.4614 8.10409C28.579 8.1859 28.696 8.26994 28.8107 8.35622C30.5262 9.63539 31.9197 11.3008 32.8793 13.2189C33.8389 15.1371 34.3379 17.2545 34.3363 19.4014Z" fill="white"/>
<path id="Vector_6" d="M20.6458 31.9705C27.5527 31.9705 33.1519 26.3431 33.1519 19.4014C33.1519 12.4597 27.5527 6.83228 20.6458 6.83228C13.7388 6.83228 8.13965 12.4597 8.13965 19.4014C8.13965 26.3431 13.7388 31.9705 20.6458 31.9705Z" fill="#7F35B2"/>
<path id="Vector_7" opacity="0.2" d="M20.6791 6.86743C20.4895 6.86743 20.3011 6.87242 20.1136 6.8808C23.2744 7.15996 26.2115 8.63624 28.3298 11.0106C30.448 13.3849 31.5891 16.4797 31.5218 19.668C31.4544 22.8563 30.1837 25.8996 27.9671 28.1815C25.7505 30.4633 22.7538 31.813 19.584 31.9571C19.9449 31.9886 20.31 32.0056 20.6791 32.0056C23.9959 32.0056 27.1769 30.6814 29.5222 28.3242C31.8676 25.9671 33.1852 22.7701 33.1852 19.4365C33.1852 16.103 31.8676 12.906 29.5222 10.5488C27.1769 8.19167 23.9959 6.86743 20.6791 6.86743Z" fill="black"/>
<path id="Vector_8" d="M20.6834 5.93994C20.5755 5.94013 20.4721 5.98329 20.3958 6.05996C20.3195 6.13663 20.2766 6.24057 20.2764 6.34899V8.13396C20.2764 8.24244 20.3192 8.34649 20.3956 8.4232C20.4719 8.49991 20.5754 8.54301 20.6834 8.54301C20.7913 8.54301 20.8948 8.49991 20.9712 8.4232C21.0475 8.34649 21.0904 8.24244 21.0904 8.13396V6.34899C21.0902 6.24057 21.0472 6.13663 20.971 6.05996C20.8947 5.98329 20.7913 5.94013 20.6834 5.93994Z" fill="white"/>
<path id="Vector_9" d="M28.8105 8.35626C28.6958 8.26999 28.5789 8.18595 28.4612 8.10414C28.3906 8.09951 28.3201 8.11348 28.2565 8.14465C28.1929 8.17582 28.1385 8.22313 28.0986 8.28189L27.0989 9.75671C27.0382 9.84636 27.0153 9.95659 27.0355 10.0632C27.0556 10.1697 27.117 10.2639 27.2062 10.3249C27.2954 10.386 27.4051 10.4089 27.5111 10.3887C27.6171 10.3685 27.7108 10.3067 27.7716 10.2171L28.7713 8.74226C28.8094 8.68631 28.8329 8.62169 28.8397 8.55427C28.8466 8.48685 28.8365 8.41879 28.8105 8.35626Z" fill="white"/>
<path id="Vector_10" d="M33.3529 15.0812C33.3328 15.0314 33.3031 14.9862 33.2656 14.948C33.2281 14.9098 33.1835 14.8794 33.1343 14.8585C33.0851 14.8377 33.0322 14.8268 32.9788 14.8264C32.9254 14.8261 32.8725 14.8363 32.823 14.8566L31.1773 15.5282C31.0774 15.5691 30.9977 15.6481 30.9558 15.748C30.9139 15.8479 30.9132 15.9605 30.9538 16.0609C30.9944 16.1613 31.073 16.2415 31.1723 16.2837C31.2717 16.3259 31.3837 16.3267 31.4836 16.286L33.1294 15.6144C33.2293 15.5733 33.3088 15.4941 33.3507 15.3942C33.3926 15.2942 33.3934 15.1817 33.3529 15.0812Z" fill="white"/>
<path id="Vector_11" d="M14.1931 9.75671L13.1934 8.28189C13.1535 8.22313 13.0991 8.17582 13.0355 8.14465C12.9719 8.11348 12.9014 8.09951 12.8308 8.10414C12.7131 8.18595 12.5962 8.26999 12.4815 8.35626C12.4555 8.41879 12.4454 8.48685 12.4523 8.55427C12.4591 8.62169 12.4827 8.68631 12.5207 8.74226L13.5204 10.2171C13.5812 10.3067 13.6749 10.3685 13.7809 10.3887C13.8869 10.4089 13.9966 10.386 14.0858 10.3249C14.175 10.2639 14.2364 10.1697 14.2565 10.0632C14.2767 9.95659 14.2538 9.84636 14.1931 9.75671Z" fill="white"/>
<path id="Vector_12" d="M10.115 15.5281L8.46925 14.8565C8.36926 14.8157 8.25724 14.8164 8.15782 14.8586C8.0584 14.9008 7.97973 14.981 7.93911 15.0815C7.89849 15.182 7.89924 15.2945 7.94121 15.3945C7.98317 15.4944 8.06292 15.5735 8.16289 15.6143L9.80866 16.2859C9.90864 16.3266 10.0206 16.3258 10.12 16.2836C10.2193 16.2414 10.2979 16.1612 10.3385 16.0608C10.3791 15.9604 10.3784 15.8478 10.3365 15.7479C10.2946 15.648 10.2149 15.569 10.115 15.5281Z" fill="white"/>
<path id="Vector_13" d="M20.6834 30.26C20.5755 30.2602 20.4721 30.3034 20.3958 30.38C20.3195 30.4567 20.2766 30.5606 20.2764 30.6691V32.454C20.2764 32.5625 20.3192 32.6666 20.3956 32.7433C20.4719 32.82 20.5754 32.8631 20.6834 32.8631C20.7913 32.8631 20.8948 32.82 20.9712 32.7433C21.0475 32.6666 21.0904 32.5625 21.0904 32.454V30.6691C21.0902 30.5606 21.0472 30.4567 20.971 30.38C20.8947 30.3034 20.7913 30.2602 20.6834 30.26Z" fill="white"/>
<path id="Vector_14" d="M28.7713 30.0606L27.7716 28.5858C27.7415 28.5414 27.703 28.5034 27.6583 28.4739C27.6136 28.4445 27.5636 28.4242 27.5111 28.4142C27.4586 28.4041 27.4047 28.4046 27.3523 28.4156C27.3 28.4265 27.2504 28.4477 27.2062 28.4779C27.162 28.5081 27.1242 28.5468 27.0949 28.5917C27.0656 28.6367 27.0454 28.6869 27.0355 28.7397C27.0255 28.7925 27.026 28.8467 27.0369 28.8992C27.0477 28.9518 27.0688 29.0017 27.0989 29.0461L28.0986 30.521C28.1385 30.5797 28.1929 30.627 28.2565 30.6582C28.3201 30.6894 28.3906 30.7033 28.4613 30.6987C28.5789 30.6169 28.6958 30.5329 28.8105 30.4466C28.8365 30.3841 28.8466 30.316 28.8397 30.2486C28.8329 30.1812 28.8094 30.1165 28.7713 30.0606Z" fill="white"/>
<path id="Vector_15" d="M33.1287 23.1885L31.4829 22.5169C31.3829 22.4761 31.2709 22.4768 31.1715 22.519C31.0721 22.5612 30.9934 22.6414 30.9528 22.7419C30.9122 22.8424 30.9129 22.9549 30.9549 23.0549C30.9968 23.1548 31.0766 23.2339 31.1766 23.2747L32.8223 23.9463C32.9223 23.987 33.0343 23.9862 33.1336 23.944C33.233 23.9018 33.3116 23.8216 33.3522 23.7212C33.3928 23.6208 33.3921 23.5082 33.3502 23.4083C33.3083 23.3084 33.2286 23.2294 33.1287 23.1885Z" fill="white"/>
<path id="Vector_16" d="M14.0858 28.4779C13.9966 28.4169 13.8869 28.3939 13.7809 28.4142C13.6749 28.4344 13.5812 28.4961 13.5204 28.5857L12.5207 30.0605C12.4827 30.1165 12.4591 30.1811 12.4523 30.2485C12.4454 30.3159 12.4555 30.384 12.4815 30.4465C12.5962 30.5328 12.7131 30.6169 12.8308 30.6987C12.9014 30.7033 12.9719 30.6893 13.0355 30.6582C13.0991 30.627 13.1535 30.5797 13.1934 30.5209L14.1931 29.0461C14.2232 29.0017 14.2443 28.9518 14.2552 28.8992C14.266 28.8466 14.2665 28.7924 14.2566 28.7396C14.2466 28.6869 14.2264 28.6366 14.1971 28.5917C14.1678 28.5468 14.13 28.5081 14.0858 28.4779Z" fill="white"/>
<path id="Vector_17" d="M10.3382 22.7416C10.3181 22.6918 10.2885 22.6466 10.251 22.6084C10.2135 22.5702 10.1688 22.5398 10.1196 22.5189C10.0704 22.4981 10.0176 22.4872 9.9642 22.4868C9.9108 22.4865 9.85785 22.4967 9.80839 22.517L8.16262 23.1886C8.06272 23.2295 7.98306 23.3085 7.94115 23.4084C7.89924 23.5083 7.89851 23.6209 7.93911 23.7213C7.97971 23.8217 8.05833 23.9019 8.15768 23.9441C8.25704 23.9863 8.36901 23.9871 8.46898 23.9464L10.1148 23.2748C10.2146 23.2337 10.2942 23.1545 10.3361 23.0546C10.378 22.9546 10.3787 22.8421 10.3382 22.7416Z" fill="white"/>
<path id="Vector_18" d="M21.2111 19.1985C21.2487 19.4221 21.1965 19.6516 21.066 19.8365C20.9354 20.0215 20.7372 20.1469 20.5149 20.1851L13.2925 21.4198C13.1824 21.4387 13.0696 21.4355 12.9606 21.4105C12.8517 21.3856 12.7487 21.3393 12.6575 21.2743C12.5664 21.2093 12.4888 21.1269 12.4294 21.0318C12.3699 20.9367 12.3296 20.8308 12.3109 20.7201C12.2921 20.6094 12.2953 20.496 12.3201 20.3865C12.345 20.277 12.391 20.1735 12.4557 20.0819C12.5203 19.9902 12.6023 19.9123 12.6969 19.8525C12.7916 19.7928 12.897 19.7523 13.0071 19.7335L20.2295 18.4988C20.4519 18.461 20.6802 18.5135 20.8643 18.6447C21.0483 18.7758 21.173 18.975 21.2111 19.1985Z" fill="#3F3D56"/>
<path id="Vector_19" d="M28.8122 27.2405C28.7085 27.3454 28.5676 27.4046 28.4204 27.4052C28.2733 27.4058 28.1319 27.3477 28.0273 27.2436L20.2526 19.491C20.1483 19.3868 20.0894 19.2452 20.0889 19.0973C20.0884 18.9495 20.1463 18.8075 20.2499 18.7025C20.3535 18.5976 20.4943 18.5383 20.6414 18.5376C20.7885 18.537 20.9299 18.595 21.0344 18.6991L28.8091 26.4517C28.9135 26.5559 28.9724 26.6976 28.973 26.8454C28.9736 26.9933 28.9158 27.1354 28.8122 27.2405Z" fill="#3F3D56"/>
<path id="Vector_20" d="M20.6456 20.3683C21.1769 20.3683 21.6076 19.9354 21.6076 19.4014C21.6076 18.8674 21.1769 18.4346 20.6456 18.4346C20.1143 18.4346 19.6836 18.8674 19.6836 19.4014C19.6836 19.9354 20.1143 20.3683 20.6456 20.3683Z" fill="#CCCCCC"/>
<path id="Vector_21" d="M14.0198 2.63603C12.5431 4.96931 10.29 6.51777 7.51144 7.53503C7.45654 7.57636 7.39407 7.60642 7.32761 7.62348C7.26115 7.64055 7.19199 7.64429 7.12409 7.63449C7.05618 7.6247 6.99087 7.60156 6.93186 7.56639C6.87286 7.53123 6.82133 7.48472 6.7802 7.42954C5.27089 5.40417 5.6117 2.50951 7.60367 0.961895C8.08526 0.588385 8.63587 0.314739 9.22355 0.156846C9.81122 -0.00104654 10.4243 -0.0400425 11.027 0.0421235C11.6298 0.12429 12.2104 0.32598 12.735 0.635486C13.2596 0.944992 13.7178 1.35615 14.083 1.84509L14.1247 1.90111C14.1659 1.95629 14.1958 2.01907 14.2128 2.08587C14.2297 2.15267 14.2335 2.22217 14.2237 2.29041C14.214 2.35866 14.1909 2.4243 14.1559 2.48361C14.121 2.54291 14.0747 2.5947 14.0198 2.63603Z" fill="#999999"/>
<path id="Vector_22" d="M27.2095 1.84508C27.5747 1.35615 28.0329 0.944992 28.5575 0.635485C29.0821 0.325979 29.6626 0.12429 30.2654 0.0421239C30.8682 -0.0400422 31.4813 -0.00104735 32.0689 0.156846C32.6566 0.314738 33.2072 0.588384 33.6888 0.961895C35.6808 2.50951 36.0216 5.40417 34.5123 7.42954C34.4712 7.48472 34.4196 7.53122 34.3606 7.56639C34.3016 7.60156 34.2363 7.6247 34.1684 7.63449C34.1005 7.64429 34.0313 7.64055 33.9649 7.62348C33.8984 7.60641 33.8359 7.57636 33.781 7.53503C31.2016 6.54249 29.0863 4.82491 27.2727 2.63603C27.1618 2.55256 27.0885 2.42824 27.0688 2.29041C27.0491 2.15259 27.0847 2.01255 27.1677 1.9011L27.2095 1.84508Z" fill="#999999"/>
<path id="Vector_23" d="M26.5615 33.255C26.4674 33.3081 26.3982 33.3965 26.3689 33.5008C26.3395 33.6052 26.3526 33.717 26.4051 33.8117L28.754 38.0303C28.8067 38.125 28.8947 38.1947 28.9986 38.2242C29.1024 38.2536 29.2137 38.2404 29.3079 38.1875C29.4021 38.1345 29.4715 38.0461 29.5008 37.9417C29.5301 37.8373 29.517 37.7255 29.4644 37.6308L27.1154 33.4122C27.0626 33.3176 26.9746 33.248 26.8708 33.2185C26.767 33.1891 26.6557 33.2022 26.5615 33.255Z" fill="#999999"/>
<path id="Vector_24" d="M14.1761 33.412L11.8272 37.6307C11.7745 37.7253 11.7614 37.8372 11.7907 37.9415C11.8201 38.0459 11.8895 38.1343 11.9836 38.1873C12.0778 38.2403 12.1891 38.2535 12.293 38.224C12.3968 38.1945 12.4848 38.1248 12.5375 38.0302L14.8864 33.8115C14.9126 33.7647 14.9292 33.7131 14.9355 33.6597C14.9418 33.6064 14.9375 33.5523 14.923 33.5006C14.9085 33.4489 14.884 33.4005 14.8509 33.3584C14.8178 33.3162 14.7767 33.281 14.7301 33.2547C14.6834 33.2285 14.6321 33.2117 14.579 33.2055C14.5259 33.1992 14.4721 33.2034 14.4207 33.218C14.3692 33.2327 14.3211 33.2573 14.2792 33.2906C14.2372 33.3239 14.2022 33.3651 14.1761 33.412Z" fill="#999999"/>
<path id="Vector_25" d="M29.2297 39.1105C29.9245 39.1105 30.4877 38.5444 30.4877 37.8461C30.4877 37.1479 29.9245 36.5818 29.2297 36.5818C28.5349 36.5818 27.9717 37.1479 27.9717 37.8461C27.9717 38.5444 28.5349 39.1105 29.2297 39.1105Z" fill="#999999"/>
<path id="Vector_26" d="M30.1184 6.75794C30.8131 6.75794 31.3764 6.19187 31.3764 5.49359C31.3764 4.79532 30.8131 4.22925 30.1184 4.22925C29.4236 4.22925 28.8604 4.79532 28.8604 5.49359C28.8604 6.19187 29.4236 6.75794 30.1184 6.75794Z" fill="#999999"/>
<path id="Vector_27" d="M20.5725 3.78309C21.2672 3.78309 21.8305 3.21702 21.8305 2.51874C21.8305 1.82046 21.2672 1.25439 20.5725 1.25439C19.8777 1.25439 19.3145 1.82046 19.3145 2.51874C19.3145 3.21702 19.8777 3.78309 20.5725 3.78309Z" fill="#999999"/>
<path id="Vector_28" d="M11.4699 6.60926C12.1647 6.60926 12.7279 6.04319 12.7279 5.34491C12.7279 4.64663 12.1647 4.08057 11.4699 4.08057C10.7751 4.08057 10.2119 4.64663 10.2119 5.34491C10.2119 6.04319 10.7751 6.60926 11.4699 6.60926Z" fill="#999999"/>
<path id="Vector_29" d="M12.2844 39.1105C12.9792 39.1105 13.5424 38.5444 13.5424 37.8461C13.5424 37.1479 12.9792 36.5818 12.2844 36.5818C11.5896 36.5818 11.0264 37.1479 11.0264 37.8461C11.0264 38.5444 11.5896 39.1105 12.2844 39.1105Z" fill="#999999"/>
<path id="Vector_30" d="M28.2434 26.5294C28.293 26.6075 28.359 26.6736 28.4368 26.7232C28.5146 26.7729 28.6023 26.8048 28.6936 26.8166C28.785 26.8285 28.8779 26.8201 28.9656 26.7921C29.0534 26.764 29.134 26.7169 29.2018 26.6541L31.1758 27.7172L31.0699 26.5524L29.2116 25.7215C29.0991 25.6141 28.9514 25.5519 28.7964 25.5467C28.6413 25.5415 28.4898 25.5937 28.3705 25.6933C28.2511 25.7929 28.1723 25.933 28.1489 26.0871C28.1255 26.2412 28.1591 26.3986 28.2434 26.5294Z" fill="#FFB7B7"/>
<path id="Vector_31" d="M29.6816 26.936L30.4552 25.8628L34.1819 27.6334L38.8193 26.7589C39.0485 26.7156 39.2844 26.7237 39.5102 26.7824C39.736 26.8411 39.9461 26.949 40.1257 27.0985C40.3054 27.2481 40.45 27.4355 40.5495 27.6475C40.6489 27.8595 40.7007 28.091 40.7011 28.3254C40.7014 28.7487 40.5346 29.1549 40.2373 29.4549C39.94 29.7548 39.5364 29.9239 39.1152 29.9252L33.8007 29.9351L29.6816 26.936Z" fill="#1E9EB7"/>
<path id="Vector_32" d="M28.4897 45.4717L27.707 45.0955L28.7822 41.8076L29.9373 42.3629L28.4897 45.4717Z" fill="#FFB7B7"/>
<path id="Vector_33" d="M33.7375 44.9417C33.6806 44.9775 33.6236 45.0127 33.5662 45.048C33.4518 45.1185 33.3362 45.1878 33.2206 45.256C33.1626 45.2901 33.1039 45.3242 33.0459 45.3577V45.3594L33.0424 45.36L33.0413 45.3606L32.9527 45.3825L32.8257 45.0451L32.7671 44.8897L32.6843 44.6695L32.5325 44.2668L31.7334 42.1463L32.9757 41.8384L33.0223 42.0296H33.0229L33.0459 42.1244L33.4799 43.8936L33.5685 44.2553L33.5713 44.2662L33.6248 44.4823L33.6708 44.6695L33.7219 44.8787L33.7375 44.9417Z" fill="#FFB7B7"/>
<path id="Vector_34" d="M41.148 37.4952C41.0693 37.6223 40.9888 37.7489 40.9077 37.8743C40.7571 38.1077 40.6024 38.3376 40.4438 38.5641C40.4438 38.5647 40.4432 38.5647 40.4426 38.5653C40.35 38.6515 40.2478 38.7265 40.1379 38.7889C40.1333 38.7924 40.1282 38.7947 40.1236 38.7976C40.0426 38.8425 39.9565 38.8772 39.8672 38.901C39.835 38.9091 39.8022 38.9172 39.77 38.9252C39.6539 38.953 39.5389 38.9767 39.4245 38.9975C39.221 39.0339 39.0198 39.0599 38.8197 39.076C38.8036 39.0778 38.7875 39.0789 38.7714 39.0801C37.9487 39.1408 37.1479 39.0431 36.312 38.8831C35.8993 38.8045 35.4779 38.7103 35.0415 38.6127C34.8989 38.5803 34.7558 38.5485 34.6109 38.5167C34.6 38.5144 34.5885 38.5116 34.577 38.5092C34.37 38.4636 34.1596 38.4185 33.9441 38.374C33.6727 38.318 33.3927 38.2637 33.1018 38.2123L33.1225 38.6242C33.1398 38.9411 33.2053 39.2535 33.3168 39.5504C33.441 39.9156 33.5393 40.2045 33.3318 40.8059L33.2318 41.0971C33.2836 41.2418 33.3014 41.3965 33.2838 41.5491C33.2661 41.7018 33.2135 41.8483 33.13 41.9771L33.1099 42.0077L33.9441 44.1288L33.9981 44.2663H33.5709L33.0455 44.2669H32.155L30.8701 41.6761L30.8086 41.5524V41.5461L30.9414 36.5673C30.9431 36.5234 30.9466 36.4789 30.9523 36.435C30.9757 36.2354 31.0385 36.0424 31.1369 35.8674C31.2353 35.6924 31.3674 35.5389 31.5255 35.4158C31.677 35.2968 31.8505 35.2093 32.0359 35.1583C32.2214 35.1073 32.4151 35.0939 32.6057 35.1188L33.0455 35.176L33.9441 35.2927L34.577 35.3753L34.5897 35.3771L36.4563 35.6197L36.5903 35.0708L36.615 35.0616L37.4009 34.7721L40.119 33.7708L40.1259 33.7685L40.3046 33.7026L40.3259 33.7373C40.3322 33.7477 40.3386 33.7581 40.3443 33.7685C40.521 34.0869 40.6649 34.4226 40.7738 34.7704C40.9568 35.3385 41.1074 35.9167 41.225 36.502C41.2302 36.5274 41.2348 36.5506 41.2388 36.5714L41.2406 36.5777C41.2423 36.5875 41.2434 36.5939 41.244 36.5956C41.3067 36.8579 41.263 37.178 41.148 37.4952Z" fill="#2F2E41"/>
<path id="Vector_35" d="M41.2633 35.6604C41.2547 35.6234 41.2438 35.5859 41.2323 35.5495C41.141 35.2738 41.0347 35.0033 40.9138 34.7394C40.7781 34.439 40.6154 34.1171 40.4217 33.7687C40.328 33.6 40.2272 33.4246 40.1193 33.2424C40.0653 33.1511 40.0091 33.058 39.9509 32.9633C39.9486 32.9589 39.9461 32.9547 39.9434 32.9506L39.9267 32.9229L37.2374 33.2845L36.2359 33.4192L36.1761 33.9207L36.1618 34.0449C36.1612 34.0449 36.1612 34.0449 36.1618 34.0455L36.1215 34.3841V34.3847L36.0681 34.8319L36.0635 34.8313L34.5774 34.6377L33.0458 34.4384L32.2232 34.3315C32.0325 34.3065 31.8388 34.3199 31.6534 34.3709C31.4679 34.4219 31.2944 34.5095 31.143 34.6285C30.9849 34.7516 30.8528 34.9052 30.7544 35.0802C30.656 35.2552 30.5933 35.4481 30.5698 35.6477C30.5646 35.6881 30.5612 35.7297 30.5594 35.7708L29.7833 37.6191C29.3189 38.7245 29.0232 39.894 28.9061 41.0881L28.3369 42.9168L28.418 42.9243L29.6241 43.037L29.9426 43.0671L30.644 42.038C30.7239 41.9207 30.7997 41.8 30.8705 41.6763C30.9869 41.4744 31.0904 41.2652 31.1803 41.05L32.6975 37.4215C32.8147 37.4417 32.9309 37.461 33.0458 37.4793C33.5776 37.566 34.0881 37.6366 34.5774 37.6913C36.1681 37.8699 37.5455 37.8837 38.7718 37.7324C39.1161 37.6902 39.449 37.6347 39.7703 37.5659C39.8882 37.5411 40.0045 37.5143 40.1193 37.4856C40.1463 37.4793 40.1728 37.4729 40.1992 37.466C40.4368 37.4044 40.6552 37.2839 40.8345 37.1155C41.0138 36.9472 41.1482 36.7363 41.2254 36.5022C41.3176 36.231 41.3307 35.9389 41.2633 35.6604Z" fill="#2F2E41"/>
<path id="Vector_36" d="M28.7398 44.9349L27.893 44.527L27.7602 44.4629L27.5481 44.9864L26.0672 45.314C25.9939 45.3301 25.9278 45.3694 25.8783 45.426C25.8289 45.4826 25.7987 45.5536 25.7923 45.6287C25.7859 45.7038 25.8035 45.7789 25.8426 45.8432C25.8817 45.9075 25.9403 45.9575 26.0097 45.9859L27.4567 46.5793L27.916 46.1639L27.8033 46.7215L28.3483 46.9451L28.9456 45.0343L28.7398 44.9349Z" fill="#2F2E41"/>
<path id="Vector_37" d="M33.9443 44.1287L33.9984 44.2662H33.9443V44.1287Z" fill="#2F2E41"/>
<path id="Vector_38" d="M33.6492 44.2956L32.7619 44.6046L32.6226 44.6529L32.8384 45.1749L32.0154 46.455C31.9747 46.5182 31.9551 46.5929 31.9596 46.6681C31.9641 46.7433 31.9924 46.8151 32.0404 46.873C32.0884 46.9308 32.1536 46.9718 32.2263 46.9898C32.2991 47.0078 32.3757 47.002 32.445 46.9731L33.8886 46.3715L33.9242 45.7515L34.2345 46.2273L34.7783 46.0008L33.865 44.2207L33.6492 44.2956Z" fill="#2F2E41"/>
<path id="Vector_39" d="M41.0413 36.4973C40.9887 36.4972 40.9368 36.4843 40.8902 36.4596L36.2078 34.0006L36.1537 33.778L36.0518 33.0736L36.0532 33.067L36.4985 31.0036C36.4903 30.9859 36.4732 30.9569 36.454 30.924C36.2552 30.5855 35.6502 29.5552 36.8048 28.1365L38.8321 25.761L40.5721 25.6858L40.5919 25.7109C41.0571 26.2978 41.3709 26.9911 41.5053 27.7293C41.6397 28.4674 41.5906 29.2275 41.3622 29.9419L41.1811 33.2305L41.3754 33.8946C41.489 34.2849 41.4702 34.7021 41.322 35.0804L41.3665 36.1558C41.3683 36.1999 41.3612 36.2439 41.3456 36.2851C41.3301 36.3264 41.3064 36.3641 41.2761 36.3959C41.2457 36.4278 41.2093 36.4532 41.169 36.4706C41.1286 36.488 41.0852 36.4971 41.0413 36.4973Z" fill="#1E9EB7"/>
<path id="Vector_40" d="M36.9799 39.2094C37.0592 39.1623 37.1273 39.0983 37.1794 39.0219C37.2314 38.9455 37.2662 38.8586 37.2812 38.7672C37.2962 38.6759 37.2911 38.5823 37.2662 38.4932C37.2413 38.404 37.1973 38.3214 37.1373 38.2512L38.263 36.3054L37.1011 36.3712L36.2102 38.2089C36.0995 38.3181 36.0325 38.4643 36.022 38.6199C36.0114 38.7754 36.058 38.9294 36.1529 39.0528C36.2477 39.1761 36.3843 39.2602 36.5368 39.289C36.6892 39.3179 36.8469 39.2896 36.9799 39.2094Z" fill="#FFB7B7"/>
<path id="Vector_41" d="M37.4348 37.7789L36.3945 36.9646L38.2848 33.283L37.5765 28.5946C37.5415 28.3629 37.5577 28.1262 37.6239 27.9015C37.6901 27.6767 37.8048 27.4694 37.9597 27.2942C38.1146 27.119 38.306 26.9802 38.5203 26.8877C38.7346 26.7952 38.9666 26.7512 39.1997 26.7589C39.6207 26.7733 40.0188 26.955 40.3067 27.2641C40.5946 27.5731 40.7487 27.9844 40.7353 28.4075L40.5603 33.7458L37.4348 37.7789Z" fill="#1E9EB7"/>
<path id="a1ca5f83-7fa1-45b1-9d3b-bf096f25c0e5" d="M37.7168 24.774V23.0436C37.7164 22.4287 37.9591 21.8387 38.3915 21.4036C38.8239 20.9685 39.4105 20.7238 40.0224 20.7234C40.6343 20.723 41.2213 20.9669 41.6542 21.4015C42.0872 21.836 42.3306 22.4257 42.331 23.0406V23.0436C42.7377 23.8952 42.4833 24.3001 42.331 24.774C42.3309 24.8566 42.2982 24.9357 42.2402 24.994C42.1821 25.0524 42.1034 25.0852 42.0213 25.0854H38.0267C37.9446 25.0853 37.8658 25.0525 37.8077 24.9941C37.7496 24.9357 37.7169 24.8566 37.7168 24.774Z" fill="#2F2E41"/>
<path id="Vector_42" d="M39.267 24.973C40.2208 24.973 40.994 24.196 40.994 23.2374C40.994 22.2788 40.2208 21.5017 39.267 21.5017C38.3132 21.5017 37.54 22.2788 37.54 23.2374C37.54 24.196 38.3132 24.973 39.267 24.973Z" fill="#FFB7B7"/>
<path id="Vector_43" d="M41.0747 23.6924C41.0591 23.6899 41.0434 23.6866 41.0278 23.6841C40.7584 23.6361 40.489 23.5889 40.2205 23.54L40.1957 22.9282L39.8703 23.4763C39.1281 23.7238 38.4337 23.5839 37.7804 23.2751C37.5649 23.1723 37.3558 23.0564 37.1543 22.9282C37.2092 22.5898 37.3386 22.268 37.5332 21.9864C37.7277 21.7047 37.9825 21.4704 38.2788 21.3004C38.3035 21.2864 38.3274 21.2739 38.3521 21.2615L38.3524 21.2615L38.3527 21.2613L38.3529 21.261L38.3529 21.2607C38.3949 21.2408 38.4378 21.2218 38.4806 21.2044C38.816 21.0727 39.1817 21.0393 39.5351 21.1082C39.8886 21.1771 40.2154 21.3454 40.4775 21.5935C41.0047 22.0994 41.242 22.9348 41.0747 23.6924Z" fill="#2F2E41"/>
</g>
<defs>
<clipPath id="clip0_437_1848">
<rect width="50" height="47" fill="white"/>
</clipPath>
</defs>
</svg>
