<svg width="59" height="48" viewBox="0 0 59 48" fill="none" xmlns="http://www.w3.org/2000/svg">
<g id="undraw_real_time_sync_re_nky7 1" clip-path="url(#clip0_437_1899)">
<path id="Vector" d="M48.0163 4.82426C48.3933 3.3033 48.0348 1.52949 46.8169 0.529053C46.7931 2.23188 46.1611 3.87149 45.0329 5.1578C44.596 5.65231 44.0579 6.15733 44.0367 6.81377C44.0236 7.22223 44.2251 7.61454 44.5029 7.91705C44.7806 8.21957 45.131 8.44595 45.4773 8.66889L45.5281 8.75764C46.6427 7.64552 47.6393 6.34522 48.0163 4.82426Z" fill="#95EF76"/>
<path id="Vector_2" d="M46.7921 0.551319C47.2591 1.76238 47.3286 3.08825 46.9906 4.34059C46.9226 4.61147 46.812 4.87006 46.6626 5.10685C46.5096 5.33286 46.2982 5.51421 46.0504 5.63207C45.8215 5.74655 45.5741 5.83744 45.3773 6.00496C45.2779 6.09219 45.1983 6.19922 45.1436 6.31903C45.0889 6.43885 45.0605 6.56874 45.0601 6.70019C45.0506 7.0277 45.1607 7.33905 45.279 7.63983C45.4103 7.97379 45.5521 8.31861 45.5217 8.68425C45.518 8.72855 45.5878 8.73161 45.5914 8.68738C45.6443 8.05123 45.2075 7.51389 45.1382 6.89686C45.1059 6.60894 45.1611 6.30964 45.3763 6.09972C45.5645 5.91616 45.8196 5.82222 46.0523 5.70828C46.2958 5.59681 46.5079 5.42807 46.6703 5.21679C46.8313 4.98829 46.9519 4.73434 47.0268 4.46583C47.2052 3.86398 47.2868 3.23812 47.2687 2.61119C47.252 1.89556 47.1117 1.18804 46.8538 0.519214C46.8378 0.477825 46.7762 0.5102 46.7921 0.551319Z" fill="white"/>
<path id="Vector_3" d="M47.1235 3.94355C47.3437 3.97113 47.5665 3.92042 47.7523 3.80046C47.9381 3.68051 48.0747 3.49914 48.1378 3.28873C48.1504 3.24611 48.0841 3.22471 48.0715 3.26739C48.0131 3.46343 47.8858 3.63237 47.7125 3.74372C47.5393 3.85507 47.3315 3.90149 47.1267 3.8746C47.0822 3.86881 47.0793 3.93779 47.1235 3.94355Z" fill="white"/>
<path id="Vector_4" d="M46.1743 5.58898C45.8933 5.23687 45.7567 4.7929 45.7919 4.34561C45.7954 4.3013 45.7257 4.29823 45.7222 4.34248C45.6865 4.80801 45.8295 5.26975 46.1228 5.63553C46.1508 5.67038 46.2022 5.62364 46.1743 5.58898Z" fill="white"/>
<path id="Vector_5" d="M47.1685 1.93375C47.0811 1.94064 46.9933 1.92594 46.9131 1.89097C46.8328 1.85601 46.7626 1.80187 46.7087 1.73343C46.6812 1.69825 46.6299 1.74503 46.6572 1.77998C46.7171 1.85532 46.7947 1.91501 46.8833 1.95384C46.9718 1.99266 47.0687 2.00944 47.1653 2.0027C47.1745 2.00282 47.1834 1.99949 47.1901 1.99337C47.1969 1.98726 47.2011 1.97883 47.2018 1.96979C47.2021 1.96066 47.1988 1.95175 47.1926 1.945C47.1864 1.93826 47.1777 1.93421 47.1685 1.93375Z" fill="white"/>
<path id="Vector_6" d="M41.5498 1.51367C41.5664 1.53612 41.5829 1.55857 41.5993 1.58158C41.8202 1.88454 42.0159 2.20475 42.1844 2.53906C42.1979 2.56471 42.2111 2.59089 42.2238 2.61686C42.6211 3.42658 42.863 4.30222 42.9372 5.19928C42.9664 5.55627 42.968 5.91494 42.9422 6.27218C42.9065 6.76554 42.8281 7.29767 42.9555 7.76026C42.9683 7.80868 42.984 7.85626 43.0027 7.90274L45.4145 8.81211C45.421 8.81145 45.4274 8.81135 45.4339 8.81071L45.5285 8.85137C45.5312 8.83304 45.5335 8.81397 45.5361 8.79564C45.5377 8.78501 45.5388 8.77418 45.5403 8.76355C45.5412 8.7564 45.5421 8.74924 45.5433 8.74284C45.5436 8.74046 45.5438 8.73807 45.5439 8.73623C45.5451 8.72983 45.5456 8.72376 45.5466 8.7179C45.5599 8.61134 45.5725 8.50451 45.5844 8.39739C45.5846 8.39685 45.5846 8.39685 45.5842 8.3961C45.6826 7.58076 45.6828 6.75676 45.5848 5.94137C45.5816 5.91708 45.5786 5.89225 45.5742 5.86754C45.5235 5.50384 45.4428 5.14484 45.333 4.79413C45.2723 4.60228 45.2017 4.4136 45.1217 4.22881C44.9139 3.75174 44.6316 3.30997 44.2851 2.91968C43.5941 2.14174 42.6594 1.59105 41.6286 1.51845C41.6022 1.51662 41.5764 1.51496 41.5498 1.51367Z" fill="#95EF76"/>
<path id="Vector_7" d="M41.5438 1.5459C42.6539 2.23468 43.5163 3.25194 44.0086 4.45319C44.1193 4.70993 44.1883 4.98232 44.2132 5.26032C44.2286 5.5319 44.1702 5.80261 44.044 6.04431C43.931 6.27201 43.7887 6.49197 43.7336 6.74289C43.7073 6.87174 43.7088 7.00464 43.7381 7.13286C43.7674 7.26108 43.8237 7.38172 43.9035 7.48689C44.0952 7.75405 44.3726 7.93712 44.6501 8.10682C44.9582 8.29525 45.2813 8.48613 45.4796 8.79615C45.5036 8.83372 45.5611 8.79464 45.5371 8.75714C45.1921 8.21775 44.5164 8.04883 44.0855 7.59743C43.8844 7.38679 43.7463 7.11495 43.7904 6.81918C43.8289 6.56053 43.9755 6.33358 44.0919 6.10401C44.2185 5.87001 44.2852 5.60891 44.2862 5.34353C44.2757 5.06517 44.2174 4.79061 44.1138 4.5316C43.8899 3.94481 43.5742 3.39648 43.1781 2.90671C42.7293 2.34526 42.1866 1.86391 41.5736 1.48347C41.5357 1.45994 41.5061 1.52252 41.5438 1.5459Z" fill="white"/>
<path id="Vector_8" d="M43.8729 4.05723C44.0654 3.94816 44.2125 3.77494 44.2878 3.56851C44.3632 3.36209 44.3619 3.13589 44.2842 2.93031C44.2683 2.88877 44.2023 2.9112 44.2182 2.9528C44.2909 3.1441 44.2921 3.35481 44.2215 3.54689C44.151 3.73898 44.0133 3.89979 43.8334 4.0003C43.7944 4.02218 43.834 4.079 43.8729 4.05723Z" fill="white"/>
<path id="Vector_9" d="M44.1167 5.93644C43.678 5.82268 43.2987 5.54953 43.0546 5.17145C43.0304 5.13397 42.9729 5.17304 42.997 5.21047C43.2518 5.60344 43.6471 5.8869 44.1039 6.00428C44.1474 6.01544 44.16 5.94754 44.1167 5.93644Z" fill="white"/>
<path id="Vector_10" d="M42.6848 2.4259C42.6192 2.48345 42.5402 2.52399 42.4548 2.54387C42.3694 2.56375 42.2804 2.56234 42.1958 2.53978C42.1524 2.52808 42.1399 2.596 42.183 2.60763C42.2766 2.63212 42.3749 2.63356 42.4693 2.6118C42.5636 2.59005 42.6512 2.54577 42.7242 2.48283C42.7316 2.47747 42.7367 2.46953 42.7384 2.46061C42.74 2.4517 42.7382 2.44249 42.7333 2.43486C42.728 2.42734 42.72 2.42219 42.7109 2.42051C42.7018 2.41883 42.6924 2.42077 42.6848 2.4259Z" fill="white"/>
<path id="Vector_11" d="M38.3611 35.8703C30.2755 35.8703 23.6973 29.3631 23.6973 21.3647C23.6973 13.3663 30.2755 6.85913 38.3611 6.85913C39.216 6.85903 40.0692 6.93216 40.9113 7.07772C40.9218 7.07951 40.9318 7.08334 40.9408 7.08897C40.9498 7.09461 40.9576 7.10195 40.9638 7.11057C40.9699 7.11919 40.9742 7.12892 40.9766 7.13921C40.9789 7.1495 40.9791 7.16013 40.9773 7.17052C40.9755 7.1809 40.9716 7.19082 40.9658 7.19971C40.9601 7.2086 40.9527 7.21629 40.9439 7.22234C40.9352 7.22838 40.9254 7.23266 40.915 7.23493C40.9046 7.2372 40.8938 7.23742 40.8833 7.23558C40.0505 7.09165 39.2066 7.01932 38.3611 7.01941C30.3648 7.01941 23.8593 13.4547 23.8593 21.3647C23.8593 29.2747 30.3648 35.71 38.3611 35.71C46.3575 35.71 52.863 29.2747 52.863 21.3647C52.8666 17.7894 51.517 14.3424 49.0799 11.7022C49.0656 11.6864 49.0582 11.6657 49.0592 11.6446C49.0602 11.6234 49.0697 11.6035 49.0855 11.5893C49.1014 11.575 49.1222 11.5675 49.1436 11.5684C49.165 11.5693 49.1852 11.5786 49.1997 11.5942C51.664 14.2639 53.0286 17.7495 53.025 21.3647C53.025 29.3631 46.4468 35.8703 38.3611 35.8703Z" fill="#E4E4E4"/>
<path id="Vector_12" d="M44.827 11.8339C46.4294 11.8339 47.7283 10.549 47.7283 8.96393C47.7283 7.37891 46.4294 6.09399 44.827 6.09399C43.2247 6.09399 41.9258 7.37891 41.9258 8.96393C41.9258 10.549 43.2247 11.8339 44.827 11.8339Z" fill="#7F35B2"/>
<path id="Vector_13" d="M44.4306 10.4578C44.3805 10.4578 44.3311 10.4462 44.2863 10.424C44.2415 10.4019 44.2025 10.3697 44.1725 10.33L43.3809 9.28607C43.3555 9.25253 43.337 9.21436 43.3265 9.17375C43.316 9.13314 43.3137 9.09088 43.3197 9.04938C43.3256 9.00788 43.3398 8.96795 43.3614 8.93188C43.383 8.8958 43.4116 8.86429 43.4455 8.83914C43.4794 8.81399 43.518 8.79569 43.559 8.78528C43.6001 8.77488 43.6428 8.77258 43.6848 8.77851C43.7267 8.78444 43.7671 8.79849 43.8036 8.81985C43.84 8.84121 43.8719 8.86946 43.8973 8.903L44.4151 9.58594L45.7451 7.61253C45.7927 7.54237 45.8665 7.49374 45.9503 7.47729C46.0341 7.46085 46.121 7.47794 46.1921 7.52481C46.2632 7.57168 46.3126 7.64451 46.3295 7.72734C46.3463 7.81017 46.3293 7.89625 46.2822 7.9667L44.6992 10.3156C44.6705 10.3581 44.632 10.3931 44.5868 10.4179C44.5417 10.4426 44.4912 10.4562 44.4396 10.4577C44.4366 10.4577 44.4336 10.4578 44.4306 10.4578Z" fill="white"/>
<path id="Vector_14" d="M37.9838 19.1134L33.5098 6.80122L33.6232 6.76088L32.8004 4.49634L32.6869 4.53673L31.3132 0.756509C31.2619 0.615322 31.183 0.485512 31.081 0.374493C30.979 0.263474 30.8559 0.173418 30.7187 0.109469C30.5815 0.0455195 30.4329 0.00892774 30.2814 0.00178411C30.1299 -0.00535952 29.9785 0.0170845 29.8357 0.0678343L21.7477 2.94372C21.605 2.99447 21.4737 3.07253 21.3615 3.17344C21.2493 3.27435 21.1582 3.39615 21.0936 3.53186C21.0289 3.66758 20.9919 3.81457 20.9847 3.96443C20.9775 4.11429 21.0002 4.26409 21.0515 4.40528L22.0093 7.04107L21.83 7.10936L22.4414 8.6799L22.5849 8.62523L22.7119 8.97457L22.5591 9.03276L23.1706 10.6033L23.2875 10.5587L27.722 22.7622C27.7731 22.9035 27.8518 23.0335 27.9538 23.1447C28.0558 23.2559 28.1789 23.346 28.3162 23.41C28.4535 23.474 28.6022 23.5106 28.7538 23.5176C28.9053 23.5246 29.0568 23.5019 29.1995 23.4509L37.2875 20.575C37.5756 20.4722 37.8106 20.2606 37.9411 19.9866C38.0717 19.7126 38.087 19.3986 37.9838 19.1134Z" fill="#3F3D56"/>
<path id="Vector_15" d="M28.7744 23.0452C28.6606 23.0449 28.5495 23.01 28.4564 22.9451C28.3633 22.8802 28.2926 22.7886 28.254 22.6826L21.5131 4.13197C21.4634 3.99534 21.4707 3.8448 21.5333 3.71347C21.5958 3.58213 21.7086 3.48076 21.8467 3.43163L23.5676 2.81974L23.565 2.87929C23.5606 2.98268 23.5819 3.08556 23.6272 3.17886C23.6724 3.27216 23.7402 3.35302 23.8244 3.41432C23.9087 3.47562 24.0069 3.51547 24.1105 3.53037C24.214 3.54527 24.3196 3.53476 24.4181 3.49976L28.2372 2.14179C28.3294 2.1 28.4103 2.03734 28.4735 1.95887C28.5367 1.8804 28.5803 1.78833 28.6008 1.69009C28.6211 1.5935 28.618 1.49352 28.5918 1.39833C28.5656 1.30313 28.517 1.21541 28.45 1.14233L28.4097 1.09799L30.1873 0.465902C30.3254 0.416993 30.4775 0.424269 30.6103 0.486138C30.743 0.548006 30.8455 0.659415 30.8953 0.795935L37.3267 18.4948C37.458 18.8574 37.4385 19.2566 37.2725 19.605C37.1066 19.9534 36.8077 20.2224 36.4415 20.3531L28.962 23.0126C28.9018 23.0341 28.8384 23.0451 28.7744 23.0452Z" fill="white"/>
<path id="Vector_16" d="M28.1152 9.88768C29.3232 9.88768 30.3026 8.91891 30.3026 7.72387C30.3026 6.52883 29.3232 5.56006 28.1152 5.56006C26.9071 5.56006 25.9277 6.52883 25.9277 7.72387C25.9277 8.91891 26.9071 9.88768 28.1152 9.88768Z" fill="#7F35B2"/>
<path id="Vector_17" d="M33.5357 10.8704L25.9606 13.5639C25.9369 13.5724 25.9118 13.5762 25.8867 13.575C25.8615 13.5739 25.8369 13.5679 25.8141 13.5573C25.7913 13.5467 25.7709 13.5318 25.7539 13.5134C25.737 13.495 25.7239 13.4734 25.7154 13.45C25.7069 13.4266 25.7031 13.4017 25.7043 13.3769C25.7055 13.352 25.7117 13.3276 25.7224 13.3051C25.7332 13.2826 25.7483 13.2624 25.767 13.2457C25.7856 13.229 25.8074 13.2161 25.8311 13.2077L33.4063 10.5142C33.454 10.4973 33.5065 10.4999 33.5523 10.5213C33.5981 10.5427 33.6335 10.5813 33.6506 10.6284C33.6678 10.6756 33.6653 10.7275 33.6437 10.7729C33.6222 10.8183 33.5834 10.8533 33.5357 10.8704Z" fill="#E6E6E6"/>
<path id="Vector_18" d="M31.2862 12.5783L28.7945 13.4643C28.7708 13.4728 28.7457 13.4766 28.7206 13.4754C28.6955 13.4743 28.6708 13.4682 28.648 13.4576C28.6253 13.447 28.6048 13.4321 28.5879 13.4137C28.571 13.3953 28.5579 13.3738 28.5494 13.3504C28.5409 13.3269 28.5371 13.3021 28.5383 13.2772C28.5395 13.2524 28.5457 13.228 28.5564 13.2055C28.5672 13.183 28.5823 13.1628 28.6009 13.1461C28.6196 13.1294 28.6414 13.1165 28.6651 13.1081L31.1567 12.2221C31.2045 12.2051 31.2571 12.2076 31.303 12.229C31.3489 12.2504 31.3844 12.289 31.4015 12.3362C31.4187 12.3834 31.4162 12.4355 31.3946 12.4809C31.3729 12.5263 31.334 12.5614 31.2862 12.5783Z" fill="#E6E6E6"/>
<path id="Vector_19" d="M31.8786 14.2092L29.3869 15.0952C29.3633 15.1036 29.3382 15.1073 29.3131 15.1061C29.288 15.1049 29.2634 15.0989 29.2406 15.0883C29.2179 15.0777 29.1975 15.0628 29.1806 15.0444C29.1637 15.026 29.1506 15.0045 29.1421 14.9811C29.1336 14.9577 29.1299 14.9329 29.1311 14.9081C29.1323 14.8832 29.1384 14.8589 29.1491 14.8364C29.1598 14.8139 29.1749 14.7937 29.1935 14.777C29.2121 14.7603 29.2338 14.7473 29.2575 14.7389L31.7492 13.853C31.7969 13.836 31.8495 13.8385 31.8954 13.8599C31.9414 13.8812 31.9768 13.9198 31.994 13.9671C32.0111 14.0143 32.0086 14.0663 31.987 14.1118C31.9654 14.1572 31.9264 14.1922 31.8786 14.2092Z" fill="#E6E6E6"/>
<path id="Vector_20" d="M32.1818 15.0445L29.6901 15.9305C29.6665 15.939 29.6413 15.9428 29.6162 15.9416C29.591 15.9405 29.5664 15.9345 29.5436 15.9239C29.5208 15.9133 29.5004 15.8984 29.4834 15.88C29.4665 15.8616 29.4534 15.84 29.4449 15.8166C29.4364 15.7932 29.4326 15.7683 29.4338 15.7434C29.435 15.7186 29.4412 15.6942 29.4519 15.6717C29.4627 15.6492 29.4778 15.629 29.4965 15.6123C29.5152 15.5956 29.537 15.5826 29.5607 15.5743L32.0524 14.6883C32.076 14.6798 32.1011 14.6761 32.1263 14.6772C32.1514 14.6783 32.1761 14.6844 32.1989 14.695C32.2216 14.7055 32.2421 14.7205 32.259 14.7389C32.2759 14.7573 32.289 14.7788 32.2975 14.8023C32.3061 14.8257 32.3098 14.8505 32.3086 14.8754C32.3074 14.9003 32.3012 14.9246 32.2905 14.9471C32.2797 14.9697 32.2646 14.9898 32.2459 15.0065C32.2273 15.0233 32.2055 15.0362 32.1818 15.0445Z" fill="#E6E6E6"/>
<path id="Vector_21" d="M32.9756 12.8854L27.6891 14.7651C27.6654 14.7736 27.6403 14.7774 27.6152 14.7762C27.59 14.7751 27.5654 14.769 27.5426 14.7585C27.5198 14.7479 27.4994 14.7329 27.4824 14.7145C27.4655 14.6961 27.4524 14.6746 27.4439 14.6512C27.4354 14.6277 27.4316 14.6029 27.4328 14.578C27.4341 14.5532 27.4402 14.5288 27.451 14.5063C27.4617 14.4838 27.4769 14.4636 27.4955 14.4469C27.5141 14.4302 27.5359 14.4172 27.5596 14.4089L32.8462 12.5291C32.8698 12.5207 32.8949 12.5169 32.9201 12.518C32.9452 12.5192 32.9699 12.5252 32.9927 12.5358C33.0154 12.5464 33.0359 12.5613 33.0528 12.5797C33.0697 12.5981 33.0828 12.6196 33.0914 12.6431C33.0999 12.6665 33.1036 12.6913 33.1024 12.7162C33.1012 12.7411 33.095 12.7655 33.0843 12.788C33.0735 12.8105 33.0584 12.8307 33.0398 12.8474C33.0211 12.8641 32.9993 12.877 32.9756 12.8854Z" fill="#E6E6E6"/>
<path id="Vector_22" d="M31.9112 17.0724L31.0065 17.3941C30.9253 17.4229 30.8359 17.4187 30.7579 17.3823C30.6799 17.3459 30.6196 17.2803 30.5905 17.2C30.5613 17.1197 30.5655 17.0313 30.6023 16.9541C30.639 16.8769 30.7052 16.8173 30.7864 16.7883L31.6911 16.4667C31.7723 16.4378 31.8617 16.4421 31.9397 16.4785C32.0177 16.5149 32.078 16.5804 32.1071 16.6607C32.1363 16.741 32.1321 16.8295 32.0953 16.9067C32.0586 16.9839 31.9924 17.0435 31.9112 17.0724Z" fill="#7F35B2"/>
<path id="Vector_23" d="M24.7811 2.87978C24.8506 2.87978 24.9069 2.82405 24.9069 2.75532C24.9069 2.68658 24.8506 2.63086 24.7811 2.63086C24.7116 2.63086 24.6553 2.68658 24.6553 2.75532C24.6553 2.82405 24.7116 2.87978 24.7811 2.87978Z" fill="white"/>
<path id="Vector_24" d="M10.3116 9.75504C11.7217 8.11307 14.0097 7.07828 16.1191 7.61477C14.2192 9.01388 12.8809 11.0326 12.3409 13.3139C12.1359 14.1944 12.0005 15.1949 11.2778 15.7475C10.8281 16.0913 10.2235 16.1853 9.65866 16.1229C9.0938 16.0605 8.55617 15.8566 8.02578 15.6545L7.88477 15.67C8.23949 13.5443 8.90143 11.397 10.3116 9.75504Z" fill="#95EF76"/>
<path id="Vector_25" d="M16.1146 7.65975C14.3732 8.12104 12.823 9.11339 11.6842 10.4958C11.4337 10.7891 11.2315 11.1197 11.0851 11.4752C10.9537 11.8262 10.9198 12.2055 10.9867 12.5738C11.0422 12.9185 11.1393 13.2647 11.1091 13.6167C11.091 13.7966 11.0346 13.9708 10.9436 14.1276C10.8527 14.2845 10.7292 14.4206 10.5814 14.527C10.2199 14.8015 9.78035 14.9312 9.34601 15.0432C8.86375 15.1676 8.36085 15.2893 7.97327 15.6176C7.92631 15.6573 7.86666 15.5829 7.91355 15.5432C8.58788 14.9721 9.54558 15.0205 10.2968 14.5995C10.6473 14.403 10.9401 14.1008 11.0032 13.6943C11.0584 13.3387 10.9585 12.9817 10.8993 12.6332C10.8286 12.2748 10.8478 11.9048 10.955 11.5554C11.0827 11.1936 11.2716 10.8559 11.5139 10.5568C12.0483 9.87488 12.6878 9.28028 13.4089 8.79483C14.2289 8.23627 15.1394 7.82058 16.101 7.56573C16.1605 7.54999 16.1738 7.6441 16.1146 7.65975Z" fill="white"/>
<path id="Vector_26" d="M12.0239 10.0292C11.8154 9.80873 11.6928 9.52209 11.6782 9.22049C11.6636 8.9189 11.7579 8.62198 11.9441 8.38277C11.982 8.3345 12.0596 8.39042 12.0217 8.43876C11.8478 8.66119 11.7601 8.93778 11.7743 9.2186C11.7884 9.49942 11.9036 9.76597 12.0991 9.97015C12.1415 10.0146 12.0661 10.0734 12.0239 10.0292Z" fill="white"/>
<path id="Vector_27" d="M10.9349 12.4027C11.5583 12.4288 12.1687 12.2215 12.6445 11.8221C12.6916 11.7825 12.7512 11.8569 12.7042 11.8964C12.2083 12.3111 11.5726 12.5256 10.924 12.4971C10.8621 12.4943 10.8734 12.4 10.9349 12.4027Z" fill="white"/>
<path id="Vector_28" d="M14.2529 8.35989C14.3156 8.46183 14.403 8.54677 14.5071 8.60708C14.6112 8.66739 14.7288 8.70117 14.8494 8.7054C14.9112 8.70738 14.8999 8.80171 14.8384 8.79974C14.7053 8.79445 14.5754 8.75698 14.4602 8.69061C14.3451 8.62423 14.2481 8.53096 14.1778 8.41896C14.1702 8.40895 14.1669 8.39648 14.1683 8.38409C14.1697 8.3717 14.1759 8.36032 14.1855 8.35225C14.1955 8.34448 14.2082 8.34092 14.2208 8.34235C14.2334 8.34378 14.245 8.35008 14.2529 8.35989Z" fill="white"/>
<path id="Vector_29" d="M19.2564 14.2167C19.2177 14.2166 19.1791 14.2164 19.14 14.2169C18.6204 14.2175 18.1018 14.2599 17.5891 14.3436C17.5494 14.3494 17.5092 14.3559 17.4697 14.3629C16.2369 14.5776 15.0551 15.0168 13.9843 15.6582C13.5585 15.9138 13.1529 16.2011 12.7711 16.5176C12.2439 16.9548 11.7074 17.4702 11.0834 17.7027C11.0185 17.7277 10.9522 17.7486 10.8847 17.7655L7.91549 15.8391C7.91097 15.8313 7.90596 15.8242 7.9014 15.8165L7.7793 15.7449C7.79783 15.7273 7.81744 15.7093 7.83598 15.6916C7.84669 15.6813 7.85806 15.6714 7.86877 15.6611C7.87612 15.6544 7.88351 15.6477 7.88975 15.6412C7.89219 15.639 7.89466 15.6367 7.89665 15.6351C7.9029 15.6287 7.90939 15.6233 7.91519 15.6175C8.02453 15.5168 8.13477 15.4168 8.24592 15.3174C8.24636 15.3167 8.24636 15.3167 8.24747 15.3165C9.09631 14.5609 10.0164 13.8688 11.0134 13.3368C11.0434 13.3208 11.0738 13.3041 11.1052 13.289C11.5559 13.0516 12.0255 12.8512 12.5093 12.6895C12.7745 12.6018 13.044 12.5275 13.3168 12.4668C14.0219 12.3113 14.7474 12.2664 15.4666 12.3339C16.9004 12.4687 18.2746 13.0555 19.1874 14.1337C19.2108 14.1613 19.2335 14.1884 19.2564 14.2167Z" fill="#95EF76"/>
<path id="Vector_30" d="M19.2243 14.2497C17.5532 13.5809 15.7114 13.45 13.9608 13.8756C13.5822 13.9606 13.2196 14.1041 12.8863 14.3008C12.5678 14.5027 12.3098 14.7854 12.1391 15.1194C11.9736 15.4276 11.8405 15.7618 11.6021 16.0249C11.4781 16.1578 11.3271 16.2632 11.159 16.3343C10.9909 16.4054 10.8095 16.4405 10.6267 16.4374C10.171 16.4413 9.74109 16.2831 9.3261 16.1139C8.86533 15.926 8.38974 15.7236 7.88048 15.7549C7.81878 15.7587 7.81644 15.6637 7.87805 15.66C8.76408 15.6055 9.49927 16.2146 10.3554 16.3258C10.7548 16.3777 11.1725 16.3108 11.4703 16.0238C11.7307 15.7727 11.8684 15.4282 12.0332 15.1147C12.1949 14.7864 12.4353 14.5024 12.7336 14.2873C13.0558 14.0745 13.4122 13.9174 13.7876 13.8228C14.6294 13.5966 15.5019 13.5027 16.3731 13.5446C17.3678 13.587 18.3478 13.7973 19.2707 14.1666C19.3278 14.1894 19.2811 14.2725 19.2243 14.2497Z" fill="white"/>
<path id="Vector_31" d="M14.517 13.7055C14.4847 13.4053 14.5613 13.1035 14.7332 12.854C14.9051 12.6044 15.1611 12.4235 15.4554 12.3434C15.515 12.3274 15.5429 12.4183 15.4832 12.4343C15.209 12.5084 14.9706 12.677 14.811 12.9096C14.6515 13.1423 14.5812 13.4237 14.613 13.7031C14.6198 13.7639 14.5238 13.7659 14.517 13.7055Z" fill="white"/>
<path id="Vector_32" d="M12.2027 14.9522C12.6846 15.3443 13.2982 15.5423 13.9211 15.5067C13.9829 15.5032 13.9852 15.5981 13.9236 15.6016C13.2753 15.6375 12.6372 15.4301 12.1366 15.021C12.0889 14.982 12.1553 14.9134 12.2027 14.9522Z" fill="white"/>
<path id="Vector_33" d="M17.3122 13.7001C17.3002 13.8188 17.3182 13.9387 17.3647 14.0488C17.4111 14.159 17.4844 14.256 17.5781 14.3312C17.6263 14.3696 17.5598 14.4381 17.512 14.4C17.4088 14.3164 17.328 14.2092 17.2764 14.0876C17.2249 13.966 17.2042 13.8338 17.2162 13.7025C17.2163 13.69 17.2212 13.678 17.2299 13.669C17.2386 13.66 17.2504 13.6545 17.263 13.6538C17.2757 13.6536 17.288 13.6583 17.2972 13.6669C17.3064 13.6756 17.3118 13.6875 17.3122 13.7001Z" fill="white"/>
<path id="Vector_34" d="M52.6316 41.3139C54.1691 41.6868 55.9623 41.3322 56.9737 40.1274C55.2523 40.1039 53.5947 39.4788 52.2944 38.3627C51.7945 37.9305 51.284 37.3983 50.6204 37.3773C50.2074 37.3643 49.8108 37.5637 49.505 37.8384C49.1992 38.1132 48.9704 38.4598 48.745 38.8023L48.6553 38.8526C49.7795 39.9551 51.094 40.9409 52.6316 41.3139Z" fill="#95EF76"/>
<path id="Vector_35" d="M56.9512 40.1032C55.7269 40.5652 54.3866 40.6339 53.1206 40.2995C52.8468 40.2323 52.5853 40.1229 52.346 39.9751C52.1175 39.8238 51.9342 39.6147 51.815 39.3695C51.6993 39.1431 51.6074 38.8983 51.438 38.7037C51.3499 38.6054 51.2417 38.5266 51.1206 38.4725C50.9994 38.4185 50.8681 38.3903 50.7352 38.39C50.4042 38.3806 50.0894 38.4894 49.7853 38.6064C49.4477 38.7364 49.0991 38.8766 48.7295 38.8466C48.6847 38.8429 48.6816 38.9119 48.7264 38.9155C49.3695 38.9678 49.9127 38.5357 50.5364 38.4672C50.8275 38.4352 51.13 38.4898 51.3423 38.7027C51.5278 38.8888 51.6228 39.1412 51.738 39.3714C51.8507 39.6123 52.0212 39.8221 52.2348 39.9827C52.4658 40.142 52.7225 40.2613 52.994 40.3354C53.6024 40.5119 54.2351 40.5926 54.8689 40.5747C55.5923 40.5582 56.3075 40.4194 56.9837 40.1643C57.0255 40.1485 56.9928 40.0875 56.9512 40.1032Z" fill="white"/>
<path id="Vector_36" d="M53.5221 40.4311C53.4942 40.6488 53.5455 40.8692 53.6667 41.053C53.788 41.2368 53.9713 41.372 54.184 41.4344C54.2271 41.4469 54.2488 41.3812 54.2056 41.3687C54.0074 41.311 53.8366 41.1851 53.7241 41.0137C53.6115 40.8423 53.5646 40.6368 53.5918 40.4342C53.5976 40.3902 53.5279 40.3873 53.5221 40.4311Z" fill="white"/>
<path id="Vector_37" d="M51.8583 39.4922C52.2143 39.2141 52.6631 39.079 53.1153 39.1138C53.1601 39.1173 53.1632 39.0483 53.1184 39.0449C52.6478 39.0095 52.181 39.1511 51.8113 39.4412C51.776 39.4689 51.8233 39.5197 51.8583 39.4922Z" fill="white"/>
<path id="Vector_38" d="M55.5536 40.4751C55.5466 40.3887 55.5615 40.3018 55.5968 40.2225C55.6322 40.1431 55.6869 40.0736 55.7561 40.0203C55.7917 39.9931 55.7444 39.9423 55.709 39.9694C55.6329 40.0286 55.5725 40.1054 55.5333 40.193C55.494 40.2806 55.4771 40.3764 55.4839 40.472C55.4838 40.4811 55.4871 40.4898 55.4933 40.4965C55.4995 40.5032 55.508 40.5073 55.5172 40.508C55.5264 40.5084 55.5354 40.5052 55.5422 40.499C55.549 40.4928 55.5531 40.4843 55.5536 40.4751Z" fill="white"/>
<path id="Vector_39" d="M55.9783 34.9175C55.9556 34.9339 55.9329 34.9502 55.9097 34.9664C55.6034 35.185 55.2797 35.3786 54.9418 35.5453C54.9158 35.5586 54.8894 35.5716 54.8631 35.5842C54.0445 35.9772 53.1593 36.2165 52.2525 36.2899C51.8916 36.3187 51.529 36.3204 51.1679 36.2948C50.6691 36.2595 50.1312 36.182 49.6636 36.308C49.6146 36.3206 49.5665 36.3362 49.5195 36.3547L48.6002 38.7404C48.6009 38.7469 48.601 38.7532 48.6017 38.7597L48.5605 38.8533C48.5791 38.8559 48.5984 38.8582 48.6169 38.8608C48.6276 38.8623 48.6386 38.8634 48.6493 38.8649C48.6566 38.8658 48.6638 38.8666 48.6703 38.8678C48.6727 38.8681 48.6751 38.8684 48.6769 38.8685C48.6834 38.8697 48.6896 38.8701 48.6955 38.8711C48.8032 38.8843 48.9112 38.8967 49.0195 38.9085C49.02 38.9087 49.02 38.9087 49.0208 38.9084C49.845 39.0056 50.678 39.0058 51.5023 38.9089C51.5269 38.9057 51.552 38.9027 51.5769 38.8984C51.9446 38.8483 52.3075 38.7685 52.6621 38.6598C52.856 38.5997 53.0467 38.53 53.2336 38.4508C53.7158 38.2453 54.1624 37.966 54.557 37.6232C55.3434 36.9398 55.9001 36.0151 55.9735 34.9954C55.9754 34.9693 55.977 34.9438 55.9783 34.9175Z" fill="#95EF76"/>
<path id="Vector_40" d="M55.9464 34.9113C55.2501 36.0094 54.2217 36.8625 53.0073 37.3495C52.7478 37.4589 52.4724 37.5272 52.1914 37.5518C51.9169 37.5671 51.6432 37.5093 51.3989 37.3845C51.1687 37.2727 50.9463 37.1319 50.6927 37.0774C50.5624 37.0514 50.4281 37.053 50.2984 37.0819C50.1688 37.1109 50.0468 37.1666 49.9405 37.2455C49.6705 37.4352 49.4854 37.7095 49.3138 37.984C49.1234 38.2888 48.9304 38.6084 48.617 38.8046C48.579 38.8284 48.6185 38.8852 48.6564 38.8615C49.2017 38.5202 49.3725 37.8517 49.8288 37.4255C50.0417 37.2267 50.3165 37.0901 50.6155 37.1336C50.877 37.1718 51.1064 37.3167 51.3385 37.4319C51.5751 37.5571 51.839 37.6231 52.1073 37.6241C52.3887 37.6137 52.6662 37.556 52.9281 37.4535C53.5213 37.2321 54.0756 36.9198 54.5707 36.528C55.1383 36.0839 55.6249 35.5471 56.0095 34.9408C56.0333 34.9033 55.97 34.874 55.9464 34.9113Z" fill="white"/>
<path id="Vector_41" d="M53.4073 37.2156C53.5175 37.406 53.6926 37.5515 53.9013 37.626C54.11 37.7005 54.3387 37.6993 54.5465 37.6224C54.5885 37.6067 54.5658 37.5414 54.5238 37.5571C54.3304 37.6291 54.1174 37.6302 53.9232 37.5604C53.729 37.4906 53.5664 37.3545 53.4648 37.1765C53.4427 37.1379 53.3853 37.1771 53.4073 37.2156Z" fill="white"/>
<path id="Vector_42" d="M51.5073 37.4564C51.6223 37.0224 51.8985 36.6472 52.2807 36.4057C52.3186 36.3818 52.2791 36.3249 52.2412 36.3487C51.844 36.6008 51.5574 36.9918 51.4387 37.4437C51.4275 37.4868 51.4961 37.4992 51.5073 37.4564Z" fill="white"/>
<path id="Vector_43" d="M55.056 36.0407C54.9978 35.9758 54.9568 35.8976 54.9367 35.8132C54.9166 35.7287 54.918 35.6407 54.9408 35.5569C54.9527 35.514 54.884 35.5016 54.8722 35.5442C54.8475 35.6369 54.846 35.7341 54.868 35.8275C54.89 35.9208 54.9348 36.0074 54.9984 36.0797C55.0038 36.087 55.0119 36.092 55.0209 36.0936C55.0299 36.0953 55.0392 36.0935 55.0469 36.0886C55.0545 36.0834 55.0597 36.0755 55.0614 36.0665C55.0631 36.0575 55.0611 36.0482 55.056 36.0407Z" fill="white"/>
<path id="Vector_44" d="M58.7932 26.6951L56.4486 30.598L56.5377 30.6445L55.7437 32.1335L55.5785 32.047L55.0567 32.9149L55.1863 32.9886L54.3357 34.4456L54.1882 34.3614L46.5379 47.0975C46.3373 47.4308 46.0112 47.6717 45.6311 47.7674C45.2511 47.8631 44.8482 47.8058 44.5109 47.608L30.2885 39.2485C29.9516 39.05 29.708 38.7274 29.6112 38.3515C29.5144 37.9755 29.5724 37.577 29.7725 37.2433L42.0277 16.841C42.2284 16.5077 42.5545 16.2667 42.9345 16.171C43.3145 16.0753 43.7174 16.1326 44.0548 16.3305L58.2771 24.69C58.6139 24.8886 58.8574 25.2112 58.9542 25.587C59.0509 25.9629 58.993 26.3614 58.7932 26.6951Z" fill="#3F3D56"/>
<path id="Vector_45" d="M45.0177 46.8204L30.7453 38.4315C30.6415 38.3703 30.5664 38.2709 30.5366 38.155C30.5068 38.0391 30.5246 37.9163 30.5862 37.8134L42.9228 17.2754C42.9847 17.1726 43.0852 17.0984 43.2024 17.0689C43.3195 17.0394 43.4437 17.0571 43.5477 17.118L57.8201 25.5069C57.924 25.5681 57.999 25.6676 58.0288 25.7834C58.0587 25.8993 58.0408 26.0222 57.9792 26.125L45.6426 46.6631C45.5807 46.7658 45.4802 46.8401 45.363 46.8696C45.2459 46.8991 45.1217 46.8814 45.0177 46.8204Z" fill="white"/>
<path id="Vector_46" d="M50.8807 20.9879C50.9502 20.9879 51.0065 20.9322 51.0065 20.8635C51.0065 20.7947 50.9502 20.739 50.8807 20.739C50.8112 20.739 50.7549 20.7947 50.7549 20.8635C50.7549 20.9322 50.8112 20.9879 50.8807 20.9879Z" fill="white"/>
<path id="Vector_47" d="M50.1016 35.7001L38.1876 28.6975C38.1503 28.6757 38.1176 28.6468 38.0915 28.6125C38.0655 28.5783 38.0465 28.5392 38.0357 28.4977C38.025 28.4561 38.0226 28.4129 38.0287 28.3704C38.0349 28.3279 38.0495 28.2871 38.0716 28.2502C38.0938 28.2133 38.1231 28.1812 38.1578 28.1555C38.1926 28.1298 38.2321 28.1112 38.2742 28.1007C38.3162 28.0902 38.3599 28.088 38.4028 28.0943C38.4457 28.1006 38.487 28.1151 38.5242 28.1372L50.4381 35.1398C50.4755 35.1616 50.5081 35.1904 50.5342 35.2247C50.5602 35.259 50.5792 35.2981 50.59 35.3396C50.6008 35.3812 50.6032 35.4244 50.597 35.4669C50.5908 35.5093 50.5763 35.5502 50.5541 35.5871C50.532 35.6239 50.5027 35.6561 50.4679 35.6818C50.4331 35.7074 50.3936 35.726 50.3516 35.7365C50.3095 35.747 50.2658 35.7492 50.2229 35.743C50.18 35.7367 50.1388 35.7221 50.1016 35.7001Z" fill="#E6E6E6"/>
<path id="Vector_48" d="M45.3447 34.615L41.4259 32.3116C41.3887 32.2898 41.3562 32.2609 41.3303 32.2266C41.3043 32.1923 41.2855 32.1533 41.2748 32.1119C41.2642 32.0704 41.2618 32.0272 41.268 31.9849C41.2742 31.9425 41.2888 31.9018 41.3109 31.865C41.333 31.8282 41.3622 31.7961 41.3968 31.7704C41.4315 31.7448 41.4709 31.7262 41.5128 31.7156C41.5548 31.7051 41.5984 31.7028 41.6412 31.7089C41.684 31.715 41.7252 31.7295 41.7624 31.7513L45.6812 34.0547C45.7184 34.0765 45.7509 34.1054 45.7768 34.1397C45.8027 34.174 45.8215 34.213 45.8322 34.2544C45.8429 34.2959 45.8452 34.3391 45.839 34.3814C45.8328 34.4238 45.8183 34.4645 45.7962 34.5013C45.7741 34.5381 45.7449 34.5702 45.7102 34.5958C45.6756 34.6214 45.6361 34.6401 45.5942 34.6506C45.5523 34.6612 45.5087 34.6635 45.4659 34.6574C45.423 34.6512 45.3819 34.6368 45.3447 34.615Z" fill="#E6E6E6"/>
<path id="Vector_49" d="M43.8035 37.1801L39.8847 34.8767C39.8096 34.8326 39.7553 34.7607 39.7338 34.677C39.7123 34.5932 39.7252 34.5045 39.7699 34.4302C39.8145 34.3559 39.8871 34.3022 39.9718 34.2808C40.0564 34.2595 40.1462 34.2723 40.2213 34.3164L44.1401 36.6198C44.1773 36.6417 44.2098 36.6706 44.2357 36.7048C44.2616 36.7391 44.2804 36.7781 44.2911 36.8196C44.3017 36.861 44.304 36.9042 44.2979 36.9465C44.2917 36.9889 44.2771 37.0296 44.255 37.0664C44.2329 37.1032 44.2037 37.1353 44.1691 37.1609C44.1344 37.1866 44.095 37.2052 44.0531 37.2157C44.0112 37.2263 43.9676 37.2286 43.9247 37.2225C43.8819 37.2164 43.8407 37.202 43.8035 37.1801Z" fill="#E6E6E6"/>
<path id="Vector_50" d="M43.0142 38.494L39.0954 36.1906C39.0581 36.1688 39.0255 36.1399 38.9995 36.1057C38.9735 36.0714 38.9546 36.0324 38.9439 35.9908C38.9331 35.9493 38.9308 35.9061 38.9369 35.8637C38.9431 35.8213 38.9577 35.7805 38.9798 35.7436C39.0019 35.7068 39.0312 35.6746 39.0659 35.649C39.1006 35.6233 39.1401 35.6047 39.1821 35.5942C39.2241 35.5837 39.2678 35.5815 39.3107 35.5877C39.3535 35.5939 39.3948 35.6084 39.4319 35.6303L43.3508 37.9337C43.3881 37.9555 43.4208 37.9843 43.4469 38.0186C43.4729 38.0529 43.4919 38.0919 43.5027 38.1335C43.5135 38.175 43.5159 38.2183 43.5097 38.2608C43.5036 38.3032 43.489 38.3441 43.4668 38.381C43.4447 38.4178 43.4154 38.45 43.3806 38.4757C43.3459 38.5013 43.3063 38.52 43.2643 38.5305C43.2222 38.541 43.1785 38.5431 43.1356 38.5369C43.0927 38.5306 43.0514 38.516 43.0142 38.494Z" fill="#E6E6E6"/>
<path id="Vector_51" d="M46.783 37.1715L38.4686 32.2845C38.3939 32.2402 38.3399 32.1684 38.3186 32.0848C38.2973 32.0012 38.3103 31.9127 38.3548 31.8386C38.3993 31.7645 38.4717 31.7109 38.5561 31.6894C38.6405 31.668 38.73 31.6805 38.8051 31.7243L47.1195 36.6112C47.1569 36.633 47.1896 36.6618 47.2157 36.6961C47.2417 36.7304 47.2607 36.7694 47.2715 36.811C47.2823 36.8525 47.2847 36.8958 47.2785 36.9383C47.2723 36.9807 47.2578 37.0216 47.2356 37.0585C47.2135 37.0953 47.1842 37.1275 47.1494 37.1532C47.1146 37.1788 47.0751 37.1975 47.033 37.208C46.991 37.2185 46.9473 37.2206 46.9044 37.2144C46.8615 37.2081 46.8202 37.1935 46.783 37.1715Z" fill="#E6E6E6"/>
<path id="Vector_52" d="M45.1983 43.417L43.7754 42.5807C43.6479 42.5055 43.5557 42.3834 43.5192 42.241C43.4826 42.0987 43.5047 41.9478 43.5805 41.8216C43.6564 41.6954 43.7798 41.604 43.9236 41.5677C44.0675 41.5314 44.22 41.5531 44.3477 41.628L45.7706 42.4643C45.8983 42.5394 45.9907 42.6616 46.0273 42.804C46.064 42.9464 46.0419 43.0974 45.966 43.2237C45.8901 43.35 45.7666 43.4414 45.6227 43.4776C45.4787 43.5139 45.3261 43.4921 45.1983 43.417Z" fill="#7F35B2"/>
<path id="Vector_53" d="M47.8531 29.8378C49.4639 29.8378 50.7697 28.5461 50.7697 26.9527C50.7697 25.3593 49.4639 24.0676 47.8531 24.0676C46.2423 24.0676 44.9365 25.3593 44.9365 26.9527C44.9365 28.5461 46.2423 29.8378 47.8531 29.8378Z" fill="#7F35B2"/>
<path id="Vector_54" d="M0.0341797 38.6765H39.5036V16.0729C39.5034 15.9035 39.4353 15.7411 39.3142 15.6214C39.1932 15.5016 39.029 15.4343 38.8578 15.4341H0.679957C0.508748 15.4343 0.344607 15.5016 0.223543 15.6214C0.102478 15.7411 0.0343774 15.9035 0.0341797 16.0729V38.6765Z" fill="#CACACA"/>
<path id="Vector_55" d="M38.2844 16.3176H1.25391V37.1135H38.2844V16.3176Z" fill="white"/>
<path id="Vector_56" d="M0 38.0649V40.8543C-1.27665e-06 40.9699 0.0230219 41.0844 0.0677551 41.1912C0.112488 41.2981 0.178056 41.3951 0.260713 41.4769C0.34337 41.5587 0.4415 41.6235 0.549498 41.6678C0.657495 41.712 0.773247 41.7348 0.890143 41.7348H15.458V47.2396H15.2645C15.2493 47.2396 15.2342 47.2426 15.2202 47.2483C15.2062 47.2541 15.1934 47.2625 15.1827 47.2731C15.172 47.2837 15.1634 47.2963 15.1576 47.3102C15.1518 47.3241 15.1488 47.339 15.1488 47.354V47.7369C15.1488 47.7519 15.1518 47.7668 15.1576 47.7806C15.1634 47.7945 15.172 47.8071 15.1827 47.8177C15.1934 47.8284 15.2062 47.8368 15.2202 47.8425C15.2342 47.8483 15.2493 47.8512 15.2645 47.8512H24.308C24.3232 47.8512 24.3382 47.8483 24.3522 47.8425C24.3663 47.8368 24.379 47.8284 24.3898 47.8177C24.4005 47.8071 24.409 47.7945 24.4148 47.7806C24.4206 47.7668 24.4236 47.7519 24.4236 47.7369V47.354C24.4236 47.339 24.4206 47.3241 24.4148 47.3102C24.409 47.2963 24.4005 47.2837 24.3898 47.2731C24.379 47.2625 24.3663 47.2541 24.3522 47.2483C24.3382 47.2426 24.3232 47.2396 24.308 47.2396H24.1145V41.7348H38.6823C38.7992 41.7348 38.915 41.712 39.0229 41.6678C39.1309 41.6235 39.2291 41.5587 39.3117 41.4769C39.3944 41.3951 39.46 41.2981 39.5047 41.1912C39.5494 41.0844 39.5724 40.9699 39.5724 40.8543V38.0649L0 38.0649Z" fill="#3F3D56"/>
<path id="Vector_57" d="M32.9257 23.2727H15.3895C15.2789 23.2727 15.1729 23.2292 15.0947 23.1519C15.0166 23.0746 14.9727 22.9697 14.9727 22.8603C14.9727 22.751 15.0166 22.6461 15.0947 22.5688C15.1729 22.4914 15.2789 22.448 15.3895 22.448H32.9257C33.0362 22.448 33.1423 22.4914 33.2204 22.5688C33.2986 22.6461 33.3425 22.751 33.3425 22.8603C33.3425 22.9697 33.2986 23.0746 33.2204 23.1519C33.1423 23.2292 33.0362 23.2727 32.9257 23.2727Z" fill="#E6E6E6"/>
<path id="Vector_58" d="M27.0414 25.1338H21.2733C21.1627 25.1338 21.0567 25.0903 20.9785 25.013C20.9004 24.9357 20.8564 24.8308 20.8564 24.7214C20.8564 24.6121 20.9004 24.5072 20.9785 24.4299C21.0567 24.3525 21.1627 24.3091 21.2733 24.3091H27.0414C27.152 24.3091 27.258 24.3525 27.3362 24.4299C27.4144 24.5072 27.4583 24.6121 27.4583 24.7214C27.4583 24.8308 27.4144 24.9357 27.3362 25.013C27.258 25.0903 27.152 25.1338 27.0414 25.1338Z" fill="#E6E6E6"/>
<path id="Vector_59" d="M27.0414 28.9094H21.2733C21.1627 28.9094 21.0567 28.866 20.9785 28.7886C20.9004 28.7113 20.8564 28.6064 20.8564 28.4971C20.8564 28.3877 20.9004 28.2828 20.9785 28.2055C21.0567 28.1282 21.1627 28.0847 21.2733 28.0847H27.0414C27.152 28.0847 27.258 28.1282 27.3362 28.2055C27.4144 28.2828 27.4583 28.3877 27.4583 28.4971C27.4583 28.6064 27.4144 28.7113 27.3362 28.7886C27.258 28.866 27.152 28.9094 27.0414 28.9094Z" fill="#E6E6E6"/>
<path id="Vector_60" d="M27.0414 30.8432H21.2733C21.2185 30.8432 21.1643 30.8325 21.1138 30.8118C21.0632 30.7911 21.0172 30.7607 20.9785 30.7224C20.9398 30.6842 20.9091 30.6387 20.8882 30.5887C20.8672 30.5386 20.8564 30.485 20.8564 30.4309C20.8564 30.3767 20.8672 30.3231 20.8882 30.2731C20.9091 30.2231 20.9398 30.1776 20.9785 30.1393C21.0172 30.101 21.0632 30.0707 21.1138 30.0499C21.1643 30.0292 21.2185 30.0186 21.2733 30.0186H27.0414C27.0962 30.0186 27.1504 30.0292 27.2009 30.0499C27.2515 30.0707 27.2975 30.101 27.3362 30.1393C27.3749 30.1776 27.4056 30.2231 27.4265 30.2731C27.4475 30.3231 27.4583 30.3767 27.4583 30.4309C27.4583 30.485 27.4475 30.5386 27.4265 30.5887C27.4056 30.6387 27.3749 30.6842 27.3362 30.7224C27.2975 30.7607 27.2515 30.7911 27.2009 30.8118C27.1504 30.8325 27.0962 30.8432 27.0414 30.8432Z" fill="#E6E6E6"/>
<path id="Vector_61" d="M30.277 26.9951H18.0389C17.9283 26.9951 17.8223 26.9516 17.7442 26.8743C17.666 26.797 17.6221 26.6921 17.6221 26.5827C17.6221 26.4734 17.666 26.3685 17.7442 26.2912C17.8223 26.2139 17.9283 26.1704 18.0389 26.1704H30.277C30.3875 26.1704 30.4935 26.2139 30.5717 26.2912C30.6499 26.3685 30.6938 26.4734 30.6938 26.5827C30.6938 26.6921 30.6499 26.797 30.5717 26.8743C30.4935 26.9516 30.3875 26.9951 30.277 26.9951Z" fill="#E6E6E6"/>
<path id="Vector_62" d="M32.6343 34.8027H30.5399C30.3519 34.8027 30.1716 34.7288 30.0387 34.5973C29.9057 34.4658 29.8311 34.2875 29.8311 34.1015C29.8311 33.9156 29.9057 33.7372 30.0387 33.6058C30.1716 33.4743 30.3519 33.4004 30.5399 33.4004H32.6343C32.8222 33.4004 33.0025 33.4743 33.1355 33.6058C33.2684 33.7372 33.3431 33.9156 33.3431 34.1015C33.3431 34.2875 33.2684 34.4658 33.1355 34.5973C33.0025 34.7288 32.8222 34.8027 32.6343 34.8027Z" fill="#7F35B2"/>
<path id="Vector_63" d="M9.87521 29.7137C11.8887 29.7137 13.5209 28.0991 13.5209 26.1073C13.5209 24.1156 11.8887 22.501 9.87521 22.501C7.86173 22.501 6.22949 24.1156 6.22949 26.1073C6.22949 28.0991 7.86173 29.7137 9.87521 29.7137Z" fill="#7F35B2"/>
<path id="Vector_64" d="M52.5373 47.9999H0.0961854C0.0706499 47.9999 0.046186 47.9898 0.0281558 47.9719C0.0101256 47.954 0 47.9298 0 47.9045C0 47.8792 0.0101256 47.855 0.0281558 47.8371C0.046186 47.8192 0.0706499 47.8092 0.0961854 47.8091H52.5373C52.5628 47.8092 52.5873 47.8192 52.6053 47.8371C52.6234 47.855 52.6335 47.8792 52.6335 47.9045C52.6335 47.9298 52.6234 47.954 52.6053 47.9719C52.5873 47.9898 52.5628 47.9999 52.5373 47.9999Z" fill="#CACACA"/>
<path id="Vector_65" d="M19.7517 15.8758C19.8275 15.8758 19.8891 15.815 19.8891 15.7399C19.8891 15.6649 19.8275 15.604 19.7517 15.604C19.6758 15.604 19.6143 15.6649 19.6143 15.7399C19.6143 15.815 19.6758 15.8758 19.7517 15.8758Z" fill="white"/>
</g>
<defs>
<clipPath id="clip0_437_1899">
<rect width="59" height="48" fill="white"/>
</clipPath>
</defs>
</svg>
