<svg width="10" height="10" viewBox="0 0 115 100" fill="none" xmlns="http://www.w3.org/2000/svg">
<g id="undraw_security_re_a2rk 1" clip-path="url(#clip0_433_1721)">
<path id="Vector" d="M87.6481 6.63968H0.339924C0.249114 6.63775 0.162674 6.60026 0.0991305 6.53523C0.0355871 6.47021 0 6.38283 0 6.29183C0 6.20083 0.0355871 6.11345 0.0991305 6.04843C0.162674 5.98341 0.249114 5.94591 0.339924 5.94398H87.6481C87.7389 5.94591 87.8254 5.98341 87.8889 6.04843C87.9525 6.11345 87.988 6.20083 87.988 6.29183C87.988 6.38283 87.9525 6.47021 87.8889 6.53523C87.8254 6.60026 87.7389 6.63775 87.6481 6.63968Z" fill="#3F3D56"/>
<path id="Vector_2" d="M6.2828 4.16795C7.40657 4.16795 8.31756 3.23492 8.31756 2.08397C8.31756 0.933027 7.40657 0 6.2828 0C5.15904 0 4.24805 0.933027 4.24805 2.08397C4.24805 3.23492 5.15904 4.16795 6.2828 4.16795Z" fill="#3F3D56"/>
<path id="Vector_3" d="M13.3121 4.16795C14.4359 4.16795 15.3469 3.23492 15.3469 2.08397C15.3469 0.933027 14.4359 0 13.3121 0C12.1883 0 11.2773 0.933027 11.2773 2.08397C11.2773 3.23492 12.1883 4.16795 13.3121 4.16795Z" fill="#3F3D56"/>
<path id="Vector_4" d="M20.3414 4.16795C21.4652 4.16795 22.3762 3.23492 22.3762 2.08397C22.3762 0.933027 21.4652 0 20.3414 0C19.2176 0 18.3066 0.933027 18.3066 2.08397C18.3066 3.23492 19.2176 4.16795 20.3414 4.16795Z" fill="#3F3D56"/>
<path id="Vector_5" d="M83.4155 0.516541H78.4224C78.3234 0.518515 78.2292 0.559288 78.1599 0.630108C78.0906 0.700927 78.0518 0.796144 78.0518 0.895315C78.0518 0.994486 78.0906 1.0897 78.1599 1.16052C78.2292 1.23134 78.3234 1.27211 78.4224 1.27409H83.4155C83.5145 1.27211 83.6087 1.23134 83.678 1.16052C83.7473 1.0897 83.7861 0.994486 83.7861 0.895315C83.7861 0.796144 83.7473 0.700927 83.678 0.630108C83.6087 0.559288 83.5145 0.518515 83.4155 0.516541Z" fill="#3F3D56"/>
<path id="Vector_6" d="M83.4156 1.93834H78.4224C78.3234 1.9403 78.2292 1.98107 78.1599 2.05189C78.0906 2.12271 78.0518 2.21793 78.0518 2.31711C78.0518 2.41629 78.0906 2.51152 78.1599 2.58234C78.2292 2.65316 78.3234 2.69393 78.4224 2.69589H83.4156C83.5145 2.69393 83.6088 2.65316 83.6781 2.58234C83.7474 2.51152 83.7862 2.41629 83.7862 2.31711C83.7862 2.21793 83.7474 2.12271 83.6781 2.05189C83.6088 1.98107 83.5145 1.9403 83.4156 1.93834Z" fill="#3F3D56"/>
<path id="Vector_7" d="M83.4156 3.35828H78.4224C78.3234 3.36024 78.2292 3.40101 78.1599 3.47183C78.0906 3.54265 78.0518 3.63787 78.0518 3.73705C78.0518 3.83623 78.0906 3.93145 78.1599 4.00227C78.2292 4.07309 78.3234 4.11386 78.4224 4.11583H83.4156C83.5145 4.11386 83.6088 4.07309 83.6781 4.00227C83.7474 3.93145 83.7862 3.83623 83.7862 3.73705C83.7862 3.63787 83.7474 3.54265 83.6781 3.47183C83.6088 3.40101 83.5145 3.36024 83.4156 3.35828Z" fill="#3F3D56"/>
<path id="Vector_8" d="M6.76362 20.7724C8.15294 20.7724 9.2792 19.644 9.2792 18.2521C9.2792 16.8602 8.15294 15.7319 6.76362 15.7319C5.37431 15.7319 4.24805 16.8602 4.24805 18.2521C4.24805 19.644 5.37431 20.7724 6.76362 20.7724Z" fill="#E6E7E8"/>
<path id="Vector_9" d="M70.8231 23.8328H4.99713C4.79846 23.8328 4.60793 23.7538 4.46745 23.613C4.32696 23.4723 4.24805 23.2814 4.24805 23.0824C4.24805 22.8833 4.32696 22.6924 4.46745 22.5517C4.60793 22.4109 4.79846 22.3319 4.99713 22.3319H70.8231C71.0218 22.3319 71.2123 22.4109 71.3528 22.5517C71.4933 22.6924 71.5722 22.8833 71.5722 23.0824C71.5722 23.2814 71.4933 23.4723 71.3528 23.613C71.2123 23.7538 71.0218 23.8328 70.8231 23.8328Z" fill="#E6E7E8"/>
<path id="Vector_10" d="M53.5591 26.7984H4.99717C4.79849 26.7984 4.60795 26.7193 4.46746 26.5786C4.32697 26.4378 4.24805 26.2469 4.24805 26.0479C4.24805 25.8488 4.32697 25.6579 4.46746 25.5172C4.60795 25.3764 4.79849 25.2973 4.99717 25.2973H53.5591C53.7578 25.2973 53.9483 25.3764 54.0888 25.5172C54.2293 25.6579 54.3082 25.8488 54.3082 26.0479C54.3082 26.2469 54.2293 26.4378 54.0888 26.5786C53.9483 26.7193 53.7578 26.7984 53.5591 26.7984Z" fill="#E6E7E8"/>
<path id="Vector_11" d="M6.76362 60.1097C8.15294 60.1097 9.2792 58.9813 9.2792 57.5894C9.2792 56.1975 8.15294 55.0692 6.76362 55.0692C5.37431 55.0692 4.24805 56.1975 4.24805 57.5894C4.24805 58.9813 5.37431 60.1097 6.76362 60.1097Z" fill="#E6E7E8"/>
<path id="Vector_12" d="M70.8233 63.1702H4.99736C4.89889 63.1703 4.80135 63.151 4.71032 63.1134C4.6193 63.0757 4.53658 63.0205 4.4669 62.9508C4.39721 62.8811 4.34193 62.7983 4.30421 62.7072C4.26649 62.616 4.24707 62.5183 4.24707 62.4197C4.24707 62.321 4.26649 62.2233 4.30421 62.1322C4.34193 62.0411 4.39721 61.9583 4.4669 61.8886C4.53658 61.8189 4.6193 61.7636 4.71032 61.726C4.80135 61.6883 4.89889 61.669 4.99736 61.6692H70.8233C71.032 61.6809 71.2288 61.7702 71.3751 61.9198C71.5214 62.0694 71.6066 62.2683 71.614 62.4776C71.6079 62.5752 71.5825 62.6706 71.5393 62.7584C71.4962 62.8461 71.4361 62.9245 71.3626 62.9888C71.2891 63.0532 71.2036 63.1024 71.1111 63.1335C71.0185 63.1646 70.9207 63.1771 70.8233 63.1702Z" fill="#E6E7E8"/>
<path id="Vector_13" d="M53.5591 66.1357H4.99717C4.79849 66.1357 4.60795 66.0566 4.46746 65.9159C4.32697 65.7751 4.24805 65.5842 4.24805 65.3852C4.24805 65.1861 4.32697 64.9952 4.46746 64.8545C4.60795 64.7137 4.79849 64.6347 4.99717 64.6347H53.5591C53.7578 64.6347 53.9483 64.7137 54.0888 64.8545C54.2293 64.9952 54.3082 65.1861 54.3082 65.3852C54.3082 65.5842 54.2293 65.7751 54.0888 65.9159C53.9483 66.0566 53.7578 66.1357 53.5591 66.1357Z" fill="#E6E7E8"/>
<path id="Vector_14" d="M6.76362 38.9583C8.15294 38.9583 9.2792 37.8299 9.2792 36.438C9.2792 35.0461 8.15294 33.9178 6.76362 33.9178C5.37431 33.9178 4.24805 35.0461 4.24805 36.438C4.24805 37.8299 5.37431 38.9583 6.76362 38.9583Z" fill="#E6E7E8"/>
<path id="Vector_15" d="M70.8231 42.0187H4.99713C4.79846 42.0187 4.60793 41.9397 4.46745 41.7989C4.32696 41.6582 4.24805 41.4673 4.24805 41.2683C4.24805 41.0692 4.32696 40.8783 4.46745 40.7376C4.60793 40.5968 4.79846 40.5178 4.99713 40.5178H70.8231C71.0218 40.5178 71.2123 40.5968 71.3528 40.7376C71.4933 40.8783 71.5722 41.0692 71.5722 41.2683C71.5722 41.4673 71.4933 41.6582 71.3528 41.7989C71.2123 41.9397 71.0218 42.0187 70.8231 42.0187Z" fill="#E6E7E8"/>
<path id="Vector_16" d="M61.6564 44.9843H4.99717C4.79849 44.9843 4.60795 44.9052 4.46746 44.7645C4.32697 44.6237 4.24805 44.4328 4.24805 44.2338C4.24805 44.0347 4.32697 43.8438 4.46746 43.7031C4.60795 43.5623 4.79849 43.4832 4.99717 43.4832H61.6564C61.8551 43.4832 62.0456 43.5623 62.1861 43.7031C62.3266 43.8438 62.4055 44.0347 62.4055 44.2338C62.4055 44.4328 62.3266 44.6237 62.1861 44.7645C62.0456 44.9052 61.8551 44.9843 61.6564 44.9843Z" fill="#E6E7E8"/>
<path id="Vector_17" d="M57.8108 47.9498H4.99717C4.79849 47.9498 4.60795 47.8707 4.46746 47.73C4.32697 47.5892 4.24805 47.3983 4.24805 47.1993C4.24805 47.0002 4.32697 46.8093 4.46746 46.6686C4.60795 46.5278 4.79849 46.4488 4.99717 46.4488H57.8108C58.0095 46.4488 58.2 46.5278 58.3405 46.6686C58.481 46.8093 58.5599 47.0002 58.5599 47.1993C58.5599 47.3983 58.481 47.5892 58.3405 47.73C58.2 47.8707 58.0095 47.9498 57.8108 47.9498Z" fill="#E6E7E8"/>
<path id="Vector_18" d="M58.9036 81.1287C69.1922 81.1287 77.5327 72.7726 77.5327 62.4648C77.5327 52.157 69.1922 43.801 58.9036 43.801C48.615 43.801 40.2744 52.157 40.2744 62.4648C40.2744 72.7726 48.615 81.1287 58.9036 81.1287Z" fill="#95EF76"/>
<path id="Vector_19" d="M58.8777 67.541C59.5561 67.541 60.106 66.99 60.106 66.3104C60.106 65.6308 59.5561 65.0798 58.8777 65.0798C58.1993 65.0798 57.6494 65.6308 57.6494 66.3104C57.6494 66.99 58.1993 67.541 58.8777 67.541Z" fill="#95EF76"/>
<path id="Vector_20" d="M80.1235 97.5309L77.9799 97.5307L76.96 89.2462L80.1241 89.2464L80.1235 97.5309Z" fill="#A0616A"/>
<path id="Vector_21" d="M80.1989 99.7714L73.6064 99.7711V99.6876C73.6065 99.0058 73.8769 98.352 74.3581 97.8699C74.8393 97.3878 75.4919 97.1169 76.1724 97.1169L77.3768 96.2016L79.6236 97.117L80.1991 97.1171L80.1989 99.7714Z" fill="#2F2E41"/>
<path id="Vector_22" d="M95.2924 97.5309L97.4362 97.5307L98.4561 89.2462L95.292 89.2464L95.2924 97.5309Z" fill="#A0616A"/>
<path id="Vector_23" d="M95.2169 99.7714L101.809 99.7711V99.6876C101.809 99.0058 101.539 98.352 101.058 97.8699C100.577 97.3878 99.9239 97.1169 99.2434 97.1169L98.0391 96.2016L95.7923 97.117L95.2168 97.1171L95.2169 99.7714Z" fill="#2F2E41"/>
<path id="Vector_24" d="M76.8655 83.1584C76.8971 82.6857 77.1488 80.0714 77.1488 80.0714L77.7518 74.5272L78.8146 59.8308L78.8839 58.8688L84.451 57.798L88.2558 55.9706L92.7782 57.4189L96.2996 58.7419C96.2996 58.7419 96.3056 59.3083 96.3328 59.9924C96.369 60.888 96.4323 61.986 96.583 62.2714C96.8347 62.7758 96.7714 65.4838 96.7714 65.4838C96.7714 65.4838 97.0217 70.9932 97.3367 71.5973C97.6518 72.2014 97.7151 73.4595 97.6201 73.7117C97.5252 73.9639 97.9352 80.5804 97.9352 80.5804C97.9352 80.5804 98.9876 92.2891 98.3273 94.0546C97.667 95.8201 95.172 94.6636 95.172 94.6636C95.172 94.6636 95.2926 94.1924 94.569 93.9704C93.8455 93.7484 91.6416 77.146 91.6416 77.146C91.6416 77.146 91.2315 73.7418 90.8547 72.7662C90.4778 71.7906 90.1311 69.0495 90.1311 69.0495C90.1311 69.0495 87.8036 64.5126 87.7734 63.5038C87.7734 63.5038 87.4689 62.5599 87.181 63.5989C86.8931 64.638 86.0444 67.1269 86.0444 67.1269L85.2168 70.1837L84.2429 74.7507L83.6128 78.5959C83.6128 78.5959 82.6692 83.699 82.5184 83.9195C82.3677 84.1401 82.5184 88.8022 82.5184 88.8022C82.5184 88.8022 81.7888 92.7727 80.7577 93.4659C79.7266 94.1591 76.9948 93.4769 76.9948 93.4769C76.9948 93.4769 76.8338 83.6311 76.8655 83.1584Z" fill="#2F2E41"/>
<path id="Vector_25" d="M79.2404 45.4651L80.4781 49.2L78.951 51.0213L79.6234 51.7146L79.1274 52.6947L77.834 62.9676L84.925 65.6618L87.3129 62.6624L89.1958 65.6618L97.4009 63.6532L95.3084 50.5532V49.6968L94.7176 48.043V44.5422L96.2778 34.1214L91.6211 32.4873L89.3947 30.7219L88.6742 33.2047L85.6065 32.6581L85.5266 30.7927L83.1794 33.0145L81.203 33.5792L78.8364 34.1214L78.5349 34.8766L79.1378 34.7256L79.0399 44.5499L79.2404 45.4651Z" fill="#2F2E41"/>
<path id="Vector_26" d="M77.121 59.1306L78.3119 47.5816L78.6263 42.8284L75.2929 42.2245C75.2929 42.2245 75.425 45.6232 74.9883 47.5408C74.5573 49.433 74.9311 58.8771 74.9577 59.1296C74.7129 59.3489 74.5404 59.6375 74.4628 59.9572C74.3853 60.2769 74.4065 60.6127 74.5236 60.9201C74.6407 61.2275 74.8482 61.492 75.1186 61.6787C75.389 61.8654 75.7096 61.9654 76.038 61.9656C76.3664 61.9657 76.6871 61.866 76.9577 61.6796C77.2283 61.4932 77.436 61.2288 77.5534 60.9215C77.6708 60.6143 77.6923 60.2785 77.6151 59.9587C77.5379 59.6389 77.3656 59.3502 77.121 59.1306Z" fill="#A0616A"/>
<path id="Vector_27" d="M73.8699 49.9747L74.7969 50.1665L77.9777 50.8265L78.1541 50.8628L78.5294 49.3676L78.9651 48.9024L79.7942 44.5498L79.8379 44.3233L81.0906 41.6411L81.9573 33.5793L78.7343 34.1592C78.7177 34.1758 78.7027 34.1939 78.6876 34.2121C78.2248 34.7376 77.8947 35.4686 77.355 36.2041C75.5988 38.5979 74.2512 44.4139 74.304 47.6006C74.3055 47.6519 74.2527 47.7078 74.1894 47.7652C73.8906 48.0404 73.6956 48.4105 73.6374 48.813C73.5792 49.2155 73.6613 49.6258 73.8699 49.9747Z" fill="#2F2E41"/>
<path id="Vector_28" d="M97.8432 59.1306L96.6522 47.5816L96.3379 42.8284L99.6713 42.2245C99.6713 42.2245 99.5392 45.6232 99.9759 47.5408C100.407 49.433 100.033 58.8771 100.006 59.1296C100.251 59.3489 100.424 59.6375 100.501 59.9572C100.579 60.2769 100.558 60.6127 100.441 60.9201C100.323 61.2275 100.116 61.492 99.8456 61.6787C99.5752 61.8654 99.2545 61.9654 98.9261 61.9656C98.5977 61.9657 98.277 61.866 98.0064 61.6796C97.7358 61.4932 97.5281 61.2288 97.4107 60.9215C97.2933 60.6143 97.2718 60.2785 97.349 59.9587C97.4263 59.6389 97.5986 59.3502 97.8432 59.1306Z" fill="#A0616A"/>
<path id="Vector_29" d="M101.095 49.9747L100.168 50.1665L96.9869 50.8265L96.8106 50.8628L96.4352 49.3676L95.9995 48.9024L95.1704 44.5498L95.1267 44.3233L93.874 41.6411L94.1604 33.5793L96.2303 34.1592C96.2468 34.1758 96.2619 34.1939 96.277 34.2121C96.7398 34.7376 97.0699 35.4686 97.6096 36.2041C99.3658 38.5979 100.713 44.4139 100.661 47.6006C100.659 47.6519 100.712 47.7078 100.775 47.7652C101.074 48.0404 101.269 48.4105 101.327 48.813C101.385 49.2155 101.303 49.6258 101.095 49.9747Z" fill="#2F2E41"/>
<path id="Vector_30" d="M84.0129 34.7721L85.5273 30.7928L89.3954 30.7218L90.679 34.7721L95.2925 60.5927C95.2925 60.5927 81.1585 64.5361 81.3019 59.796C81.4526 54.8121 82.1327 48.1918 82.1327 48.1918L84.0129 34.7721Z" fill="#95EF76"/>
<path id="Vector_31" d="M87.3741 29.6798C89.8907 29.6798 91.9308 27.6359 91.9308 25.1146C91.9308 22.5934 89.8907 20.5495 87.3741 20.5495C84.8575 20.5495 82.8174 22.5934 82.8174 25.1146C82.8174 27.6359 84.8575 29.6798 87.3741 29.6798Z" fill="#A0616A"/>
<path id="Vector_32" d="M82.5487 21.8029C83.2905 20.9939 84.2184 19.5131 87.0289 18.8913C90.5018 18.123 92.1428 21.2661 91.267 21.3176C93.8279 22.0945 92.1829 27.404 91.4487 26.9587C91.4424 26.9543 91.4363 26.9496 91.4305 26.9445C91.0357 26.6532 90.7043 26.2843 90.4565 25.8603C90.2088 25.4364 90.0499 24.9662 89.9897 24.4787L89.8503 23.2223C89.8304 24.2445 88.7875 24.3798 87.7221 24.0033C87.7851 23.7792 87.9053 23.5753 88.0709 23.412C88.2365 23.2486 88.4418 23.1313 88.6664 23.0717C87.9237 23.7463 86.9803 24.1576 85.9813 24.2422C86.0337 23.9862 86.1401 23.7445 86.2934 23.5331C86.4467 23.3218 86.6434 23.1457 86.8702 23.0168L86.8281 22.9754C86.4121 23.327 85.9344 23.5979 85.4194 23.7746C84.8321 23.9432 84.1284 23.852 83.726 23.3914C83.6176 23.2643 83.5358 23.1167 83.4853 22.9574C83.5723 23.7669 83.0303 24.6911 82.6092 24.5324C82.259 24.4642 82.0548 22.3414 82.5487 21.8029Z" fill="#2F2E41"/>
<path id="Vector_33" d="M115 99.7709C115 99.801 114.994 99.8308 114.982 99.8587C114.971 99.8865 114.954 99.9118 114.933 99.9331C114.912 99.9544 114.886 99.9713 114.859 99.9827C114.831 99.9942 114.801 100 114.771 100H60.9035C60.8429 100 60.7847 99.9759 60.7418 99.9329C60.6989 99.8899 60.6748 99.8316 60.6748 99.7709C60.6748 99.7101 60.6989 99.6518 60.7418 99.6089C60.7847 99.5659 60.8429 99.5417 60.9035 99.5417H114.771C114.801 99.5417 114.831 99.5475 114.859 99.559C114.886 99.5705 114.912 99.5874 114.933 99.6087C114.954 99.6299 114.971 99.6552 114.982 99.6831C114.994 99.7109 115 99.7408 115 99.7709Z" fill="#CCCCCC"/>
<g id="Group">
<g id="Group_2">
<path id="Vector_34" d="M43 78.7408L45.2822 70.2519C43.9907 67.9278 43.3078 65.3215 43.3078 62.68C43.3114 54.0324 50.3666 47 59.0388 47C67.711 47 74.7663 54.0324 74.7663 62.6764C74.7663 71.3205 67.711 78.3529 59.0388 78.3529C56.4347 78.3529 53.8659 77.6969 51.5625 76.452L43 78.7408ZM51.9871 73.2743L52.5249 73.5953C54.5028 74.7697 56.7567 75.3939 59.0353 75.3939C66.0693 75.3939 71.7906 69.6912 71.7906 62.68C71.7906 55.6688 66.0693 49.966 59.0353 49.966C52.0013 49.966 46.2799 55.6688 46.2799 62.68C46.2799 64.9935 46.9239 67.2753 48.1446 69.2715L48.4737 69.8146L47.1999 74.5546L51.9871 73.2743Z" fill="white"/>
<path id="Vector_35" fill-rule="evenodd" clip-rule="evenodd" d="M64.8914 64.856C64.2439 64.4716 63.4018 64.0378 62.6376 64.3516C62.0538 64.5915 61.6787 65.5049 61.3001 65.9704C61.1055 66.2102 60.872 66.2455 60.5748 66.1256C58.3775 65.2545 56.6969 63.7909 55.4832 61.7771C55.278 61.4632 55.3134 61.2164 55.5611 60.9272C55.9255 60.4969 56.3855 60.0102 56.4846 59.4318C56.5836 58.8534 56.3112 58.1763 56.0706 57.6614C55.7628 57.0019 55.4196 56.0638 54.7579 55.6899C54.1493 55.3478 53.3462 55.5383 52.8048 55.9791C51.8672 56.7374 51.4178 57.9294 51.432 59.1109C51.4355 59.4459 51.478 59.781 51.5558 60.1054C51.7433 60.8848 52.1042 61.6114 52.5111 62.3026C52.819 62.8246 53.1515 63.3289 53.5089 63.8156C54.6836 65.4061 56.1449 66.7886 57.8362 67.822C58.6818 68.3369 59.5911 68.7918 60.5358 69.1022C61.5938 69.4513 62.535 69.8146 63.6778 69.5959C64.8737 69.3702 66.052 68.6331 66.5261 67.4834C66.6676 67.1448 66.7348 66.7639 66.657 66.4042C66.5013 65.6565 65.4929 65.2157 64.8914 64.856Z" fill="white"/>
</g>
</g>
</g>
<defs>
<clipPath id="clip0_433_1721">
<rect width="115" height="100" fill="white"/>
</clipPath>
</defs>
</svg>
