<svg width="109" height="98" viewBox="0 0 109 98" fill="none" xmlns="http://www.w3.org/2000/svg">
<g id="undraw_mobile_encryption_re_yw3o 1" clip-path="url(#clip0_433_1543)">
<g id="Group">
<path id="Vector" d="M75.3237 97.7532H44.3953C39.7565 97.7532 35.9824 94.011 35.9824 89.4113V8.34181C35.9824 3.74215 39.7565 0 44.3953 0H75.3237C79.9624 0 83.7365 3.74215 83.7365 8.34181C84.3122 40.8968 85.294 77.3533 83.7365 89.4113C83.7365 94.011 79.9624 97.7532 75.3237 97.7532Z" fill="#3F3D56"/>
<path id="Vector_2" d="M84.1674 29.82C83.9711 29.82 83.8115 29.9783 83.8115 30.1729V41.4657C83.8115 41.6603 83.9711 41.8186 84.1674 41.8186C84.3637 41.8186 84.5233 41.6603 84.5233 41.4657V30.1729C84.5233 29.9783 84.3637 29.82 84.1674 29.82Z" fill="#3F3D56"/>
<path id="Vector_3" d="M82.9357 8.34188V89.4099C82.9357 93.4135 79.793 96.6884 75.8193 96.9425H75.8175C75.7588 96.9461 75.7001 96.9496 75.6396 96.9514C75.5346 96.9567 75.4296 96.9584 75.3228 96.9584C75.3228 96.9584 74.9313 96.9302 74.216 96.8773C73.4935 96.8243 72.4418 96.7449 71.1303 96.6408C70.737 96.6108 70.3223 96.5773 69.8846 96.542C69.0126 96.4714 68.0552 96.3938 67.0284 96.3056C66.6191 96.272 66.1956 96.235 65.7632 96.1979C63.553 96.0091 61.0777 95.7886 58.4671 95.538C58.0258 95.4974 57.5809 95.4551 57.1325 95.411C57.015 95.3986 36.7832 90.3557 36.7832 89.4099V8.34188C36.7832 4.17238 40.191 0.793365 44.396 0.793365H48.941C49.667 0.793365 50.2507 1.35447 50.313 2.07263C50.3183 2.12027 50.3237 2.1679 50.3326 2.21555C50.4642 2.93723 51.1316 3.44011 51.8718 3.44011H67.847C68.5873 3.44011 69.2546 2.93723 69.3863 2.21555C69.3952 2.16791 69.4006 2.12027 69.4059 2.07263C69.4682 1.35448 70.0519 0.793365 70.7779 0.793365H75.3228C79.5279 0.793365 82.9357 4.17238 82.9357 8.34188Z" fill="white"/>
<path id="Vector_4" d="M35.8042 21.3504C35.6079 21.3504 35.4482 21.5087 35.4482 21.7033V24.5265C35.4482 24.7212 35.6079 24.8794 35.8042 24.8794C36.0004 24.8794 36.1601 24.7212 36.1601 24.5265V21.7033C36.1601 21.5087 36.0004 21.3504 35.8042 21.3504Z" fill="#3F3D56"/>
<path id="Vector_5" d="M35.8042 29.82C35.6079 29.82 35.4482 29.9783 35.4482 30.1729V35.6428C35.4482 35.8375 35.6079 35.9957 35.8042 35.9957C36.0004 35.9957 36.1601 35.8375 36.1601 35.6428V30.1729C36.1601 29.9783 36.0004 29.82 35.8042 29.82Z" fill="#3F3D56"/>
<path id="Vector_6" d="M35.8042 37.5838C35.6079 37.5838 35.4482 37.7421 35.4482 37.9367V43.4066C35.4482 43.6013 35.6079 43.7595 35.8042 43.7595C36.0004 43.7595 36.1601 43.6013 36.1601 43.4066V37.9367C36.1601 37.7421 36.0004 37.5838 35.8042 37.5838Z" fill="#3F3D56"/>
<path id="Vector_7" d="M48.8237 2.02921H42.0032C41.9702 2.02921 41.9434 2.05577 41.9434 2.08855V2.85211C41.9434 2.88488 41.9702 2.91145 42.0032 2.91145H48.8237C48.8567 2.91145 48.8835 2.88488 48.8835 2.85211V2.08855C48.8835 2.05577 48.8567 2.02921 48.8237 2.02921Z" fill="#E6E6E6"/>
<path id="Vector_8" d="M71.9022 2.91144C72.2954 2.91144 72.6141 2.59545 72.6141 2.20565C72.6141 1.81584 72.2954 1.49985 71.9022 1.49985C71.5091 1.49985 71.1904 1.81584 71.1904 2.20565C71.1904 2.59545 71.5091 2.91144 71.9022 2.91144Z" fill="#E6E6E6"/>
<path id="Vector_9" d="M73.8593 2.91144C74.2524 2.91144 74.5711 2.59545 74.5711 2.20565C74.5711 1.81584 74.2524 1.49985 73.8593 1.49985C73.4662 1.49985 73.1475 1.81584 73.1475 2.20565C73.1475 2.59545 73.4662 2.91144 73.8593 2.91144Z" fill="#E6E6E6"/>
<path id="Vector_10" d="M75.8173 2.91144C76.2104 2.91144 76.5291 2.59545 76.5291 2.20565C76.5291 1.81584 76.2104 1.49985 75.8173 1.49985C75.4242 1.49985 75.1055 1.81584 75.1055 2.20565C75.1055 2.59545 75.4242 2.91144 75.8173 2.91144Z" fill="#E6E6E6"/>
</g>
<path id="Vector_11" d="M2.76172 97.7724C2.76172 97.8986 2.86398 98 2.99131 98H108.771C108.898 98 109 97.8986 109 97.7724C109 97.6461 108.898 97.5447 108.771 97.5447H2.99131C2.86398 97.5447 2.76172 97.6461 2.76172 97.7724Z" fill="#CCCCCC"/>
<g id="Group_2">
<path id="Vector_12" d="M36.4882 96.2772L34.319 96.277L33.2871 87.9807L36.4887 87.9809L36.4882 96.2772Z" fill="#FFB6B6"/>
<path id="Vector_13" d="M29.0563 96.2284C28.9888 96.3412 28.9531 96.7053 28.9531 96.8364C28.9531 97.2396 29.2827 97.5664 29.6894 97.5664H36.4071C36.6845 97.5664 36.9094 97.3435 36.9094 97.0684V96.7911C36.9094 96.7911 37.2417 95.9576 36.5575 94.9303C36.5575 94.9303 35.7072 95.7347 34.4365 94.4748L34.0618 93.8017L31.3495 95.7686L29.8461 95.9521C29.5171 95.9922 29.2255 95.9459 29.0563 96.2284Z" fill="#2F2E41"/>
</g>
<g id="Group_3">
<path id="Vector_14" d="M24.4929 84.7539L22.3237 84.7469L21.3184 76.4474L24.5199 76.4577L24.4929 84.7539Z" fill="#FFB6B6"/>
<path id="Vector_15" d="M17.0612 84.6817C16.9933 84.7943 16.9565 85.1583 16.9561 85.2894C16.9548 85.6926 17.2833 86.0205 17.69 86.0218L24.4077 86.0429C24.6851 86.0438 24.9107 85.8215 24.9116 85.5465L24.9124 85.2691C24.9124 85.2691 25.2474 84.4367 24.5665 83.4072C24.5665 83.4072 23.7136 84.209 22.447 82.945L22.0744 82.2708L19.3558 84.2292L17.8518 84.4079C17.5228 84.447 17.2313 84.3997 17.0612 84.6817Z" fill="#2F2E41"/>
</g>
<path id="Vector_16" d="M33.3245 45.9109L30.6235 46.1022C30.6235 46.1022 21.4797 51.2572 20.708 52.4049C19.9363 53.5527 18.8752 55.1787 19.8398 56.9004C20.8044 58.622 20.0703 79.468 20.0703 79.468L24.6798 78.4341L27.6332 56.6235L33.8068 55.7627C33.8068 55.7627 35.929 60.3025 35.1573 64.0584C34.3856 67.8143 33.9997 70.1098 33.9997 70.1098L33.0351 92.3001L36.7971 92.2045L40.1733 71.6402L45.9611 55.3801L38.437 46.5805L33.3245 45.9109Z" fill="#2F2E41"/>
<path id="Vector_17" d="M46.6372 22.3816L41.0423 22.9555L40.4636 24.8684L35.0616 27.7379L36.798 39.7895L35.4475 41.8937L36.0263 43.998C36.0263 43.998 34.4829 44.1893 34.6758 45.337L31.2031 45.9109C31.2031 45.9109 35.809 46.8433 36.7858 51.4465C37.7626 56.0496 45.8655 56.6235 45.8655 56.6235L52.232 36.92L52.8108 25.251L48.3735 24.1032L46.6372 22.3816Z" fill="#E6E6E6"/>
<path id="Vector_18" d="M43.6882 21.6557C46.0902 21.6557 48.0375 19.7249 48.0375 17.3431C48.0375 14.9614 46.0902 13.0306 43.6882 13.0306C41.2861 13.0306 39.3389 14.9614 39.3389 17.3431C39.3389 19.7249 41.2861 21.6557 43.6882 21.6557Z" fill="#FFB6B6"/>
<path id="Vector_19" d="M41.4282 21.2338C41.4282 21.2338 37.5697 21.0425 37.9556 17.9818C37.0005 14.7224 37.8459 12.6062 40.8494 11.8603C40.8494 11.8603 41.6212 11.669 41.8141 11.669C44.3516 11.669 45.6726 12.4342 45.6726 12.4342C45.6726 12.4342 45.4797 11.6766 45.6726 11.8641C45.8655 12.0516 46.0584 12.4342 46.0584 12.4342C46.0584 12.4342 47.9877 13.3907 47.9877 15.3037C47.9877 17.2166 47.9877 16.4514 47.9877 16.4514C47.9877 16.4514 47.6018 16.4514 47.216 15.3037C46.8301 14.1559 44.332 14.9211 44.332 14.9211L44.515 15.3037L43.9363 15.1124L43.3575 15.6862L42.9716 15.4949C42.9716 15.4949 41.4282 15.4949 41.6212 15.4949C41.8141 15.4949 41.6796 16.795 41.6796 16.795L40.2707 18.3644L41.8141 21.2338H41.4282Z" fill="#2F2E41"/>
<path id="Vector_20" d="M20.8703 44.0657C19.7719 44.6601 19.1907 45.7038 19.5722 46.3969C19.9537 47.09 21.1533 47.1699 22.2517 46.5755C22.7325 46.3153 23.1142 45.969 23.3594 45.6038L27.9818 43.0272L26.7162 40.9021L22.2938 43.6677C21.8513 43.6746 21.3511 43.8055 20.8703 44.0657Z" fill="#FFB6B6"/>
<path id="Vector_21" d="M36.4583 27.8271C36.4583 27.8271 34.6463 27.1431 34.022 27.9665C33.3977 28.7899 29.2736 38.7814 29.2736 38.7814L23.2227 41.9148L24.9242 44.8529L32.716 42.2807L37.8568 32.9582L36.4583 27.8271Z" fill="#E6E6E6"/>
<g id="Group_4">
<path id="Vector_22" d="M93.5982 60.6403V80.9176C93.5982 82.7108 92.1269 84.1697 90.3185 84.1697H39.7719C37.9634 84.1697 36.4922 82.7108 36.4922 80.9176V60.6403C36.4922 58.8471 37.9634 57.3883 39.7719 57.3883H90.3185C92.1269 57.3883 93.5982 58.8471 93.5982 60.6403Z" fill="white"/>
<path id="Vector_23" d="M93.5982 60.6403V80.9176C93.5982 82.7108 92.1269 84.1697 90.3185 84.1697H39.7719C37.9634 84.1697 36.4922 82.7108 36.4922 80.9176V60.6403C36.4922 58.8471 37.9634 57.3883 39.7719 57.3883H90.3185C92.1269 57.3883 93.5982 58.8471 93.5982 60.6403ZM90.3185 83.7871C91.9167 83.7871 93.2123 82.5024 93.2123 80.9176V70.6946C93.2123 63.557 87.3769 57.7709 80.1785 57.7709H39.7719C38.1737 57.7709 36.878 59.0555 36.878 60.6403V80.9176C36.878 82.5024 38.1737 83.7871 39.7719 83.7871H90.3185Z" fill="#3F3D56"/>
<g id="Group_5">
<path id="Vector_24" d="M59.1822 69.6391H52.5802C52.4137 69.6391 52.2783 69.7734 52.2783 69.9384C52.2783 70.1034 52.4137 70.2377 52.5802 70.2377H59.1822C59.3487 70.2377 59.484 70.1034 59.484 69.9384C59.484 69.7734 59.3487 69.6391 59.1822 69.6391Z" fill="#95EF76"/>
<path id="Vector_25" d="M69.2145 69.6391H62.6124C62.446 69.6391 62.3105 69.7734 62.3105 69.9384C62.3105 70.1034 62.446 70.2377 62.6124 70.2377H69.2145C69.3809 70.2377 69.5163 70.1034 69.5163 69.9384C69.5163 69.7734 69.3809 69.6391 69.2145 69.6391Z" fill="#95EF76"/>
</g>
<g id="Group_6">
<path id="Vector_26" d="M59.1822 72.9114H52.5802C52.4137 72.9114 52.2783 73.0457 52.2783 73.2107C52.2783 73.3757 52.4137 73.51 52.5802 73.51H59.1822C59.3487 73.51 59.484 73.3757 59.484 73.2107C59.484 73.0457 59.3487 72.9114 59.1822 72.9114Z" fill="#95EF76"/>
<path id="Vector_27" d="M69.2145 72.9114H62.6124C62.446 72.9114 62.3105 73.0457 62.3105 73.2107C62.3105 73.3757 62.446 73.51 62.6124 73.51H69.2145C69.3809 73.51 69.5163 73.3757 69.5163 73.2107C69.5163 73.0457 69.3809 72.9114 69.2145 72.9114Z" fill="#95EF76"/>
<path id="Vector_28" d="M79.5485 73.2107C79.5485 73.0457 79.4131 72.9114 79.2467 72.9114H72.6446C72.4782 72.9114 72.3428 73.0457 72.3428 73.2107C72.3428 73.3757 72.4782 73.51 72.6446 73.51H79.2467C79.4131 73.51 79.5485 73.3757 79.5485 73.2107Z" fill="#95EF76"/>
</g>
<g id="Group_7">
<path id="Vector_29" d="M55.3238 67.0263C55.4903 67.0263 55.6256 66.892 55.6256 66.7269C55.6256 66.5619 55.4903 66.4277 55.3238 66.4277H48.7218C48.5553 66.4277 48.4199 66.5619 48.4199 66.7269C48.4199 66.892 48.5553 67.0263 48.7218 67.0263H55.3238Z" fill="#95EF76"/>
<path id="Vector_30" d="M74.7667 66.9045H81.3688C81.5352 66.9045 81.6706 66.7703 81.6706 66.6052C81.6706 66.4402 81.5352 66.306 81.3688 66.306H74.7667C74.6003 66.306 74.4648 66.4402 74.4648 66.6052C74.4648 66.7703 74.6003 66.9045 74.7667 66.9045Z" fill="#95EF76"/>
<path id="Vector_31" d="M58.1046 66.9675H71.7921C71.9585 66.9675 72.0939 66.8332 72.0939 66.6682C72.0939 66.5032 71.9585 66.3689 71.7921 66.3689H58.1046C57.9382 66.3689 57.8027 66.5032 57.8027 66.6682C57.8027 66.8332 57.9382 66.9675 58.1046 66.9675Z" fill="#95EF76"/>
</g>
<path id="Vector_32" d="M63.4908 75.8845H56.8888C56.7223 75.8845 56.5869 76.0187 56.5869 76.1837C56.5869 76.3488 56.7223 76.4831 56.8888 76.4831H63.4908C63.6573 76.4831 63.7926 76.3488 63.7926 76.1837C63.7926 76.0187 63.6573 75.8845 63.4908 75.8845Z" fill="#95EF76"/>
<g id="Group_8">
<path id="Vector_33" d="M84.8123 60.4874V80.7648C84.8123 82.558 83.3411 84.0168 81.5326 84.0168H61.0825C59.274 84.0168 57.8027 82.558 57.8027 80.7648V60.4874C57.8027 58.6942 59.274 57.2354 61.0825 57.2354H81.5326C83.3411 57.2354 84.8123 58.6942 84.8123 60.4874Z" fill="white"/>
<path id="Vector_34" d="M84.8123 60.4874V80.7648C84.8123 82.558 83.3411 84.0168 81.5326 84.0168H61.0825C59.274 84.0168 57.8027 82.558 57.8027 80.7648V60.4874C57.8027 58.6942 59.274 57.2354 61.0825 57.2354H81.5326C83.3411 57.2354 84.8123 58.6942 84.8123 60.4874ZM80.2639 83.6342C82.5628 83.6342 84.4265 81.7863 84.4265 79.5068V70.5417C84.4265 63.4041 78.591 57.618 71.3926 57.618H61.0825C59.4842 57.618 58.1886 58.9027 58.1886 60.4874V77.9356C58.1886 81.0828 60.7617 83.6342 63.9357 83.6342L80.2639 83.6342Z" fill="#3F3D56"/>
<path id="Vector_35" d="M74.0299 65.517H67.4278C67.2614 65.517 67.126 65.3827 67.126 65.2177C67.126 65.0526 67.2614 64.9184 67.4278 64.9184H74.0299C74.1963 64.9184 74.3317 65.0526 74.3317 65.2177C74.3317 65.3827 74.1963 65.517 74.0299 65.517Z" fill="#95EF76"/>
<path id="Vector_36" d="M74.0299 71.8993H67.4278C67.2614 71.8993 67.126 71.765 67.126 71.6C67.126 71.435 67.2614 71.3007 67.4278 71.3007H74.0299C74.1963 71.3007 74.3317 71.435 74.3317 71.6C74.3317 71.765 74.1963 71.8993 74.0299 71.8993Z" fill="#95EF76"/>
<path id="Vector_37" d="M70.7496 80.6989H64.1476C63.9811 80.6989 63.8457 80.5646 63.8457 80.3996C63.8457 80.2346 63.9811 80.1003 64.1476 80.1003H70.7496C70.9161 80.1003 71.0514 80.2346 71.0514 80.3996C71.0514 80.5646 70.9161 80.6989 70.7496 80.6989Z" fill="#95EF76"/>
<path id="Vector_38" d="M77.5724 68.7103H63.8849C63.7184 68.7103 63.583 68.576 63.583 68.4109C63.583 68.2459 63.7184 68.1117 63.8849 68.1117H77.5724C77.7388 68.1117 77.8742 68.2459 77.8742 68.4109C77.8742 68.576 77.7388 68.7103 77.5724 68.7103Z" fill="#95EF76"/>
</g>
<g id="Group_9">
<g id="Group_10">
<path id="Vector_39" d="M80.9651 49.2513C80.9651 42.9257 75.5731 39.4459 69.414 37.7977C61.5173 35.6847 55.734 39.9606 57.8628 49.2513C58.3453 51.3569 59.4993 53.8162 60.9277 55.9199H72.2629C76.0493 53.4756 80.9651 54.1611 80.9651 49.2513Z" fill="#95EF76"/>
<path id="Vector_40" d="M69.244 61.2092C69.8888 59.9903 70.7063 59.111 71.607 58.4417H60.9902C63.7227 62.3119 67.3465 64.7959 69.244 61.2092Z" fill="#95EF76"/>
</g>
<path id="Vector_41" d="M68.0189 42.4795C68.7004 42.4795 69.253 43.0274 69.253 43.7032V46.1505H66.7848V43.7032C66.7848 43.0274 67.3373 42.4795 68.0189 42.4795ZM69.87 46.1505V43.7032C69.87 42.6895 69.0412 41.8677 68.0189 41.8677C66.9965 41.8677 66.1677 42.6895 66.1677 43.7032V46.1505C65.4861 46.1505 64.9336 46.6984 64.9336 47.3742V50.4334C64.9336 51.1092 65.4861 51.6571 66.1677 51.6571H69.87C70.5516 51.6571 71.1041 51.1092 71.1041 50.4334V47.3742C71.1041 46.6984 70.5516 46.1505 69.87 46.1505ZM66.1677 46.7624H69.87C70.2108 46.7624 70.4871 47.0363 70.4871 47.3742V50.4334C70.4871 50.7713 70.2108 51.0452 69.87 51.0452H66.1677C65.8269 51.0452 65.5507 50.7713 65.5507 50.4334V47.3742C65.5507 47.0363 65.8269 46.7624 66.1677 46.7624Z" fill="white"/>
</g>
</g>
<path id="Vector_42" d="M50.3828 56.7274C50.234 57.9594 50.7543 59.0342 51.545 59.1281C52.3356 59.222 53.0972 58.2994 53.246 57.0674C53.3112 56.5282 53.2481 56.019 53.0902 55.6091L53.6547 50.3811L51.1748 50.1707L50.8815 55.3468C50.6305 55.7082 50.448 56.1881 50.3828 56.7274Z" fill="#FFB6B6"/>
<path id="Vector_43" d="M50.9773 25.538C50.9773 25.538 53.6783 24.7728 54.2571 25.9205C54.8358 27.0683 56.1863 42.1807 56.1863 42.1807L53.5818 54.2436L50.5915 53.4671L52.1349 41.2242L50.0127 32.042L50.9773 25.538Z" fill="#E6E6E6"/>
<g id="Group_11">
<path id="Vector_44" d="M11.2862 62.236C17.5193 62.236 22.5723 57.2258 22.5723 51.0453C22.5723 44.8648 17.5193 39.8545 11.2862 39.8545C5.05298 39.8545 0 44.8648 0 51.0453C0 57.2258 5.05298 62.236 11.2862 62.236Z" fill="#95EF76"/>
<path id="Vector_45" d="M11.2857 46.0354C12.083 46.0354 12.7293 46.6763 12.7293 47.4668V50.3296H9.84213V47.4668C9.84213 46.6763 10.4884 46.0354 11.2857 46.0354ZM13.4511 50.3296V47.4668C13.4511 46.281 12.4816 45.3197 11.2857 45.3197C10.0898 45.3197 9.12034 46.281 9.12034 47.4668V50.3296C8.32307 50.3296 7.67676 50.9704 7.67676 51.7609V55.3394C7.67676 56.1299 8.32307 56.7708 9.12034 56.7708H13.4511C14.2483 56.7708 14.8946 56.1299 14.8946 55.3394V51.7609C14.8946 50.9704 14.2483 50.3296 13.4511 50.3296ZM9.12034 51.0452H13.4511C13.8497 51.0452 14.1729 51.3657 14.1729 51.7609V55.3394C14.1729 55.7346 13.8497 56.0551 13.4511 56.0551H9.12034C8.72171 56.0551 8.39855 55.7346 8.39855 55.3394V51.7609C8.39855 51.3657 8.7217 51.0452 9.12034 51.0452Z" fill="white"/>
</g>
</g>
<defs>
<clipPath id="clip0_433_1543">
<rect width="109" height="98" fill="white"/>
</clipPath>
</defs>
</svg>
