<svg width="61" height="48" viewBox="0 0 61 48" fill="none" xmlns="http://www.w3.org/2000/svg">
<g id="undraw_messages_re_qy9x 1" clip-path="url(#clip0_437_1999)">
<path id="Vector" d="M48.9772 11.3908H48.712V4.17584C48.712 3.62746 48.6033 3.08445 48.392 2.57781C48.1808 2.07118 47.8711 1.61084 47.4807 1.22307C47.0904 0.835313 46.627 0.527723 46.1169 0.317867C45.6069 0.108012 45.0603 2.59487e-07 44.5082 0H29.1198C28.0049 -2.4455e-06 26.9357 0.439947 26.1473 1.22307C25.3589 2.00618 24.916 3.06832 24.916 4.17582V43.7577C24.916 44.8652 25.3589 45.9274 26.1473 46.7105C26.9357 47.4936 28.0049 47.9336 29.1198 47.9336H44.5082C45.6231 47.9336 46.6924 47.4936 47.4807 46.7105C48.2691 45.9274 48.712 44.8652 48.712 43.7577V16.5265H48.9771L48.9772 11.3908Z" fill="#999999"/>
<path id="Vector_2" d="M47.8164 4.20503V43.7287C47.8164 44.5558 47.4856 45.349 46.8968 45.9339C46.3081 46.5187 45.5095 46.8473 44.6769 46.8473H29.2147C28.3821 46.8473 27.5835 46.5187 26.9948 45.9339C26.406 45.349 26.0752 44.5558 26.0752 43.7287V4.20503C26.0752 3.37793 26.406 2.58471 26.9948 1.99986C27.5835 1.41501 28.3821 1.08644 29.2147 1.08643H31.0905C30.9983 1.31141 30.9632 1.55545 30.9882 1.79707C31.0133 2.03869 31.0978 2.2705 31.2342 2.47209C31.3706 2.67369 31.5548 2.8389 31.7705 2.95318C31.9863 3.06747 32.227 3.12734 32.4716 3.12752H41.2874C41.5319 3.12734 41.7727 3.06747 41.9884 2.95318C42.2042 2.83889 42.3884 2.67368 42.5248 2.47209C42.6612 2.2705 42.7457 2.03869 42.7707 1.79707C42.7958 1.55545 42.7607 1.31141 42.6685 1.08643H44.6769C45.5095 1.08644 46.3081 1.41501 46.8968 1.99986C47.4856 2.58471 47.8164 3.37793 47.8164 4.20503Z" fill="white"/>
<path id="Vector_3" d="M30.0397 4.7522C29.477 4.7522 28.9373 4.97424 28.5394 5.3695C28.1415 5.76475 27.918 6.30083 27.918 6.8598C27.918 7.41878 28.1415 7.95485 28.5394 8.35011C28.9373 8.74537 29.477 8.96742 30.0397 8.96742C30.6024 8.96742 31.1421 8.74537 31.54 8.35012C31.9379 7.95486 32.1615 7.41878 32.1615 6.85981C32.1615 6.30084 31.9379 5.76476 31.54 5.3695C31.1421 4.97425 30.6024 4.7522 30.0397 4.7522Z" fill="#999999"/>
<path id="Vector_4" d="M45.444 8.63803H34.3048C34.1642 8.63803 34.0293 8.58252 33.9298 8.48371C33.8303 8.3849 33.7744 8.25088 33.7744 8.11113C33.7744 7.97139 33.8303 7.83737 33.9298 7.73856C34.0293 7.63974 34.1642 7.58423 34.3048 7.58423H45.444C45.5847 7.58423 45.7196 7.63974 45.819 7.73856C45.9185 7.83737 45.9744 7.97139 45.9744 8.11113C45.9744 8.25088 45.9185 8.3849 45.819 8.48371C45.7196 8.58252 45.5847 8.63803 45.444 8.63803Z" fill="#999999"/>
<path id="Vector_5" d="M37.819 6.39878H34.3048C34.1642 6.39878 34.0293 6.34326 33.9298 6.24445C33.8303 6.14564 33.7744 6.01162 33.7744 5.87187C33.7744 5.73213 33.8303 5.59811 33.9298 5.4993C34.0293 5.40048 34.1642 5.34497 34.3048 5.34497H37.819C37.9597 5.34497 38.0946 5.40048 38.194 5.4993C38.2935 5.59811 38.3494 5.73213 38.3494 5.87187C38.3494 6.01162 38.2935 6.14564 38.194 6.24445C38.0946 6.34326 37.9597 6.39878 37.819 6.39878Z" fill="#999999"/>
<path id="Vector_6" d="M30.0397 13.5776C29.477 13.5776 28.9373 13.7997 28.5394 14.1949C28.1415 14.5902 27.918 15.1263 27.918 15.6852C27.918 16.2442 28.1415 16.7803 28.5394 17.1755C28.9373 17.5708 29.477 17.7929 30.0397 17.7929C30.6024 17.7929 31.1421 17.5708 31.54 17.1756C31.9379 16.7803 32.1615 16.2442 32.1615 15.6852C32.1615 15.1263 31.9379 14.5902 31.54 14.1949C31.1421 13.7997 30.6024 13.5776 30.0397 13.5776Z" fill="#999999"/>
<path id="Vector_7" d="M45.444 17.4637H34.3048C34.1642 17.4637 34.0293 17.4082 33.9298 17.3094C33.8303 17.2106 33.7744 17.0766 33.7744 16.9368C33.7744 16.7971 33.8303 16.6631 33.9298 16.5642C34.0293 16.4654 34.1642 16.4099 34.3048 16.4099H45.444C45.5847 16.4099 45.7196 16.4654 45.819 16.5642C45.9185 16.6631 45.9744 16.7971 45.9744 16.9368C45.9744 17.0766 45.9185 17.2106 45.819 17.3094C45.7196 17.4082 45.5847 17.4637 45.444 17.4637Z" fill="#999999"/>
<path id="Vector_8" d="M37.819 15.2242H34.3048C34.1642 15.2242 34.0293 15.1687 33.9298 15.0699C33.8303 14.9711 33.7744 14.8371 33.7744 14.6973C33.7744 14.5576 33.8303 14.4235 33.9298 14.3247C34.0293 14.2259 34.1642 14.1704 34.3048 14.1704H37.819C37.9597 14.1704 38.0946 14.2259 38.194 14.3247C38.2935 14.4235 38.3494 14.5576 38.3494 14.6973C38.3494 14.8371 38.2935 14.9711 38.194 15.0699C38.0946 15.1687 37.9597 15.2242 37.819 15.2242Z" fill="#999999"/>
<path id="Vector_9" d="M30.0397 31.229C29.477 31.229 28.9373 31.4511 28.5394 31.8463C28.1415 32.2416 27.918 32.7776 27.918 33.3366C27.918 33.8956 28.1415 34.4317 28.5394 34.8269C28.9373 35.2222 29.477 35.4442 30.0397 35.4442C30.6024 35.4442 31.1421 35.2222 31.54 34.8269C31.9379 34.4317 32.1615 33.8956 32.1615 33.3366C32.1615 32.7776 31.9379 32.2416 31.54 31.8463C31.1421 31.4511 30.6024 31.229 30.0397 31.229Z" fill="#999999"/>
<path id="Vector_10" d="M45.444 35.1148H34.3048C34.1642 35.1148 34.0293 35.0593 33.9298 34.9605C33.8303 34.8617 33.7744 34.7277 33.7744 34.5879C33.7744 34.4482 33.8303 34.3142 33.9298 34.2154C34.0293 34.1165 34.1642 34.061 34.3048 34.061H45.444C45.5847 34.061 45.7196 34.1165 45.819 34.2154C45.9185 34.3142 45.9744 34.4482 45.9744 34.5879C45.9744 34.7277 45.9185 34.8617 45.819 34.9605C45.7196 35.0593 45.5847 35.1148 45.444 35.1148Z" fill="#999999"/>
<path id="Vector_11" d="M37.819 32.8756H34.3048C34.1642 32.8756 34.0293 32.8201 33.9298 32.7213C33.8303 32.6224 33.7744 32.4884 33.7744 32.3487C33.7744 32.2089 33.8303 32.0749 33.9298 31.9761C34.0293 31.8773 34.1642 31.8218 34.3048 31.8218H37.819C37.9597 31.8218 38.0946 31.8773 38.194 31.9761C38.2935 32.0749 38.3494 32.2089 38.3494 32.3487C38.3494 32.4884 38.2935 32.6224 38.194 32.7213C38.0946 32.8201 37.9597 32.8756 37.819 32.8756Z" fill="#999999"/>
<path id="Vector_12" d="M30.0397 40.0547C29.477 40.0547 28.9373 40.2767 28.5394 40.672C28.1415 41.0672 27.918 41.6033 27.918 42.1623C27.918 42.7213 28.1415 43.2573 28.5394 43.6526C28.9373 44.0479 29.477 44.2699 30.0397 44.2699C30.6024 44.2699 31.1421 44.0479 31.54 43.6526C31.9379 43.2574 32.1615 42.7213 32.1615 42.1623C32.1615 41.6033 31.9379 41.0672 31.54 40.672C31.1421 40.2767 30.6024 40.0547 30.0397 40.0547Z" fill="#999999"/>
<path id="Vector_13" d="M45.444 43.9405H34.3048C34.1642 43.9405 34.0293 43.885 33.9298 43.7862C33.8303 43.6874 33.7744 43.5534 33.7744 43.4136C33.7744 43.2739 33.8303 43.1399 33.9298 43.041C34.0293 42.9422 34.1642 42.8867 34.3048 42.8867H45.444C45.5847 42.8867 45.7196 42.9422 45.819 43.041C45.9185 43.1399 45.9744 43.2739 45.9744 43.4136C45.9744 43.5534 45.9185 43.6874 45.819 43.7862C45.7196 43.885 45.5847 43.9405 45.444 43.9405Z" fill="#999999"/>
<path id="Vector_14" d="M37.819 41.7013H34.3048C34.1642 41.7013 34.0293 41.6458 33.9298 41.5469C33.8303 41.4481 33.7744 41.3141 33.7744 41.1744C33.7744 41.0346 33.8303 40.9006 33.9298 40.8018C34.0293 40.703 34.1642 40.6475 34.3048 40.6475H37.819C37.9597 40.6475 38.0946 40.703 38.194 40.8018C38.2935 40.9006 38.3494 41.0346 38.3494 41.1744C38.3494 41.3141 38.2935 41.4481 38.194 41.5469C38.0946 41.6458 37.9597 41.7013 37.819 41.7013Z" fill="#999999"/>
<path id="Vector_15" d="M49.7432 29.5824H24.1497C23.8596 29.5821 23.5816 29.4675 23.3765 29.2638C23.1714 29.06 23.056 28.7838 23.0557 28.4957V20.3287C23.056 20.0406 23.1714 19.7643 23.3765 19.5606C23.5816 19.3569 23.8596 19.2423 24.1497 19.2419H49.7432C50.0332 19.2423 50.3113 19.3569 50.5164 19.5606C50.7215 19.7643 50.8369 20.0406 50.8372 20.3287V28.4957C50.8369 28.7838 50.7215 29.06 50.5164 29.2638C50.3113 29.4675 50.0332 29.5821 49.7432 29.5824Z" fill="white"/>
<path id="Vector_16" d="M27.2926 27.4239C26.6929 27.4239 26.1068 27.2473 25.6082 26.9164C25.1096 26.5855 24.721 26.1151 24.4915 25.5648C24.2621 25.0145 24.202 24.4089 24.319 23.8247C24.436 23.2405 24.7247 22.7039 25.1487 22.2827C25.5728 21.8615 26.113 21.5747 26.7011 21.4585C27.2892 21.3423 27.8988 21.4019 28.4528 21.6299C29.0068 21.8578 29.4803 22.2438 29.8135 22.7391C30.1466 23.2344 30.3244 23.8166 30.3244 24.4123C30.3235 25.2108 30.0038 25.9762 29.4354 26.5408C28.867 27.1054 28.0964 27.423 27.2926 27.4239ZM27.2926 21.5324C26.7192 21.5324 26.1586 21.7013 25.6819 22.0177C25.2051 22.3342 24.8335 22.784 24.614 23.3102C24.3946 23.8364 24.3372 24.4155 24.4491 24.9741C24.5609 25.5328 24.8371 26.0459 25.2425 26.4487C25.648 26.8515 26.1646 27.1258 26.727 27.2369C27.2894 27.348 27.8723 27.291 28.4021 27.073C28.9318 26.855 29.3846 26.4859 29.7032 26.0123C30.0218 25.5387 30.1918 24.9819 30.1918 24.4123C30.1909 23.6487 29.8852 22.9167 29.3417 22.3768C28.7982 21.8369 28.0612 21.5332 27.2926 21.5324Z" fill="#3F3D56"/>
<path id="Vector_17" d="M48.8239 26.8977H33.2548C33.1574 26.8978 33.0609 26.8788 32.9709 26.8418C32.8808 26.8049 32.799 26.7506 32.7301 26.6822C32.6612 26.6139 32.6065 26.5326 32.5692 26.4432C32.5319 26.3538 32.5127 26.258 32.5127 26.1613C32.5127 26.0645 32.5319 25.9687 32.5692 25.8793C32.6065 25.7899 32.6612 25.7087 32.7301 25.6403C32.799 25.5719 32.8808 25.5176 32.9709 25.4807C33.0609 25.4437 33.1574 25.4247 33.2548 25.4248H48.8239C48.9213 25.4247 49.0178 25.4437 49.1078 25.4807C49.1978 25.5176 49.2796 25.5719 49.3486 25.6403C49.4175 25.7087 49.4722 25.7899 49.5095 25.8793C49.5468 25.9687 49.566 26.0645 49.566 26.1613C49.566 26.258 49.5468 26.3538 49.5095 26.4432C49.4722 26.5326 49.4175 26.6139 49.3486 26.6822C49.2796 26.7506 49.1978 26.8049 49.1078 26.8418C49.0178 26.8788 48.9213 26.8978 48.8239 26.8977Z" fill="#7F35B2"/>
<path id="Vector_18" d="M38.1665 23.7678H33.2548C33.1574 23.7679 33.0609 23.7489 32.9709 23.712C32.8808 23.675 32.799 23.6208 32.7301 23.5524C32.6612 23.484 32.6065 23.4028 32.5692 23.3134C32.5319 23.224 32.5127 23.1281 32.5127 23.0314C32.5127 22.9346 32.5319 22.8388 32.5692 22.7494C32.6065 22.66 32.6612 22.5788 32.7301 22.5104C32.799 22.442 32.8808 22.3878 32.9709 22.3508C33.0609 22.3138 33.1574 22.2948 33.2548 22.2949H38.1665C38.2639 22.2948 38.3604 22.3138 38.4504 22.3508C38.5404 22.3878 38.6222 22.442 38.6912 22.5104C38.7601 22.5788 38.8147 22.66 38.852 22.7494C38.8893 22.8388 38.9085 22.9346 38.9085 23.0314C38.9085 23.1281 38.8893 23.224 38.852 23.3134C38.8147 23.4028 38.7601 23.484 38.6912 23.5524C38.6222 23.6208 38.5404 23.675 38.4504 23.712C38.3604 23.7489 38.2639 23.7679 38.1665 23.7678Z" fill="#7F35B2"/>
<path id="Vector_19" d="M49.7432 29.5824H24.1497C23.8596 29.5821 23.5816 29.4675 23.3765 29.2638C23.1714 29.06 23.056 28.7838 23.0557 28.4957V20.3287C23.056 20.0406 23.1714 19.7643 23.3765 19.5606C23.5816 19.3569 23.8596 19.2423 24.1497 19.2419H49.7432C50.0332 19.2423 50.3113 19.3569 50.5164 19.5606C50.7215 19.7643 50.8369 20.0406 50.8372 20.3287V28.4957C50.8369 28.7838 50.7215 29.06 50.5164 29.2638C50.3113 29.4675 50.0332 29.5821 49.7432 29.5824ZM24.1497 19.3078C23.8772 19.3081 23.616 19.4158 23.4233 19.6072C23.2307 19.7985 23.1223 20.058 23.122 20.3287V28.4957C23.1223 28.7663 23.2307 29.0258 23.4233 29.2172C23.616 29.4086 23.8772 29.5163 24.1497 29.5166H49.7432C50.0156 29.5163 50.2769 29.4086 50.4695 29.2172C50.6622 29.0258 50.7706 28.7663 50.7709 28.4957V20.3287C50.7706 20.058 50.6622 19.7985 50.4695 19.6072C50.2769 19.4158 50.0156 19.3081 49.7432 19.3078H24.1497Z" fill="#3F3D56"/>
<path id="Vector_20" d="M27.2388 25.8779C27.9219 25.8779 28.4757 25.3278 28.4757 24.6493C28.4757 23.9707 27.9219 23.4207 27.2388 23.4207C26.5557 23.4207 26.002 23.9707 26.002 24.6493C26.002 25.3278 26.5557 25.8779 27.2388 25.8779Z" fill="#2F2E41"/>
<path id="Vector_21" d="M26.2739 23.9866C26.4738 23.7881 26.5143 23.5064 26.3644 23.3575C26.2145 23.2086 25.9309 23.2489 25.731 23.4474C25.5312 23.6459 25.4907 23.9276 25.6406 24.0765C25.7905 24.2254 26.074 24.1852 26.2739 23.9866Z" fill="#2F2E41"/>
<path id="Vector_22" d="M28.5277 23.5966C28.6109 23.403 28.4677 23.1566 28.2078 23.0463C27.9478 22.936 27.6696 23.0036 27.5863 23.1972C27.5031 23.3909 27.6463 23.6373 27.9062 23.7476C28.1661 23.8579 28.4444 23.7903 28.5277 23.5966Z" fill="#2F2E41"/>
<path id="Vector_23" d="M27.2782 25.9851C27.858 25.9851 28.3279 25.5183 28.3279 24.9424C28.3279 24.3665 27.858 23.8997 27.2782 23.8997C26.6985 23.8997 26.2285 24.3665 26.2285 24.9424C26.2285 25.5183 26.6985 25.9851 27.2782 25.9851Z" fill="#FFB8B8"/>
<path id="Vector_24" d="M26.1748 24.2866C26.4147 24.4509 26.6994 24.5383 26.9907 24.5371C26.8868 24.6087 26.7685 24.657 26.644 24.6788C27.0313 24.7614 27.4316 24.7636 27.8199 24.6854C27.9062 24.6716 27.9894 24.6432 28.066 24.6014C28.1042 24.5802 28.1374 24.5513 28.1636 24.5165C28.1898 24.4818 28.2083 24.4419 28.218 24.3995C28.2438 24.2531 28.1289 24.1201 28.0096 24.0305C27.8268 23.8953 27.6162 23.8022 27.3928 23.7579C27.1693 23.7135 26.9388 23.7191 26.7178 23.7741C26.5706 23.8035 26.4366 23.8787 26.3352 23.9888C26.2415 24.104 26.2138 24.2814 26.3031 24.3999L26.1748 24.2866Z" fill="#2F2E41"/>
<path id="Vector_25" d="M11.7846 33.6669C11.7539 33.5681 11.7454 33.4637 11.7597 33.3613C11.7739 33.2588 11.8107 33.1607 11.8672 33.0739C11.9238 32.987 11.9989 32.9136 12.0871 32.8587C12.1754 32.8038 12.2747 32.7688 12.378 32.7561L15.7816 28.8054L16.5755 29.6334L13.1853 33.4214C13.1952 33.5953 13.1405 33.7667 13.0317 33.9032C12.9228 34.0398 12.7674 34.1319 12.5947 34.1621C12.4221 34.1924 12.2442 34.1587 12.0949 34.0674C11.9456 33.9762 11.8352 33.8337 11.7846 33.6669Z" fill="#A0616A"/>
<path id="Vector_26" d="M14.6748 29.4222C14.6713 29.3797 14.6771 29.337 14.6918 29.297C14.7064 29.257 14.7296 29.2205 14.7597 29.1902L15.8112 28.1311C15.9406 27.955 16.135 27.8371 16.3517 27.8032C16.5685 27.7693 16.79 27.8223 16.9675 27.9504C17.1451 28.0785 17.2642 28.2713 17.2988 28.4865C17.3334 28.7018 17.2806 28.9219 17.1521 29.0986L16.4529 30.4195C16.433 30.4572 16.4051 30.4901 16.3711 30.5162C16.3372 30.5422 16.298 30.5606 16.2562 30.5703C16.2145 30.5799 16.1711 30.5804 16.1291 30.5719C16.0871 30.5634 16.0474 30.5459 16.0128 30.5208L14.7962 29.6376C14.7615 29.6124 14.7327 29.5802 14.7118 29.543C14.6909 29.5059 14.6782 29.4646 14.6748 29.4222Z" fill="#7F35B2"/>
<path id="Vector_27" d="M17.1432 26.9983C18.0425 26.9983 18.7717 26.274 18.7717 25.3806C18.7717 24.4872 18.0425 23.7629 17.1432 23.7629C16.2438 23.7629 15.5146 24.4872 15.5146 25.3806C15.5146 26.274 16.2438 26.9983 17.1432 26.9983Z" fill="#A0616A"/>
<path id="Vector_28" d="M16.2576 32.6194C16.2252 32.5955 16.1981 32.5652 16.178 32.5305C16.1579 32.4958 16.1451 32.4573 16.1405 32.4175C16.0279 31.4827 15.8641 30.5546 15.6497 29.6375C15.5548 29.2253 15.6137 28.793 15.8156 28.4208C16.0174 28.0486 16.3485 27.7618 16.7471 27.6138C17.1458 27.4658 17.585 27.4666 17.9831 27.6161C18.3813 27.7656 18.7112 28.0536 18.9117 28.4265C19.5521 29.6205 19.601 31.2597 19.5923 31.9091C19.5913 31.9784 19.5659 32.0452 19.5204 32.0977C19.4749 32.1503 19.4123 32.1853 19.3435 32.1967L16.4861 32.6745C16.4694 32.6773 16.4526 32.6787 16.4357 32.6787C16.3714 32.6786 16.3089 32.6578 16.2576 32.6194Z" fill="#2F2E41"/>
<path id="Vector_29" d="M22.4273 27.3523C22.4192 27.3879 22.4139 27.424 22.4114 27.4604L19.5632 29.0926L18.8709 28.6967L18.1328 29.6565L19.2898 30.4756C19.3833 30.5418 19.4959 30.5761 19.6106 30.5733C19.7254 30.5705 19.8361 30.5308 19.9262 30.4602L22.8633 28.1586C22.9958 28.2073 23.1402 28.2148 23.2771 28.1801C23.4141 28.1453 23.5371 28.07 23.6299 27.9641C23.7227 27.8582 23.7808 27.7268 23.7966 27.5872C23.8123 27.4477 23.7849 27.3067 23.7181 27.183C23.6512 27.0594 23.548 26.9588 23.4222 26.8948C23.2964 26.8309 23.1539 26.8064 23.0138 26.8248C22.8737 26.8432 22.7425 26.9035 22.6377 26.9977C22.533 27.092 22.4596 27.2157 22.4273 27.3523Z" fill="#A0616A"/>
<path id="Vector_30" d="M19.4678 29.1697L18.5473 30.3548C18.5211 30.3885 18.4879 30.4163 18.4499 30.4361C18.412 30.4559 18.3702 30.4674 18.3274 30.4697C18.2845 30.472 18.2417 30.4652 18.2018 30.4496C18.1619 30.434 18.1259 30.41 18.0961 30.3794L17.054 29.3044C16.8811 29.1703 16.7688 28.9736 16.7417 28.7573C16.7146 28.5411 16.7749 28.323 16.9094 28.1509C17.0439 27.9788 17.2417 27.8667 17.4593 27.8391C17.6769 27.8116 17.8966 27.8709 18.0702 28.004L19.3773 28.73C19.4147 28.7508 19.4472 28.7794 19.4725 28.8137C19.4978 28.8481 19.5153 28.8875 19.5239 28.9292C19.5325 28.971 19.5319 29.0141 19.5223 29.0555C19.5126 29.097 19.494 29.136 19.4678 29.1697Z" fill="#7F35B2"/>
<path id="Vector_31" d="M20.9025 47.187L21.7154 47.187L21.9067 44.0825L20.9023 44.0725L20.9025 47.187Z" fill="#A0616A"/>
<path id="Vector_32" d="M20.6953 46.9234L22.2962 46.9233H22.2962C22.4302 46.9233 22.5629 46.9495 22.6866 47.0005C22.8104 47.0514 22.9229 47.126 23.0176 47.2201C23.1123 47.3142 23.1875 47.426 23.2388 47.5489C23.29 47.6719 23.3164 47.8036 23.3164 47.9367V47.9697L20.6954 47.9697L20.6953 46.9234Z" fill="#2F2E41"/>
<path id="Vector_33" d="M13.1447 47.1869L13.9576 47.1868L14.3442 44.0723L13.1445 44.0723L13.1447 47.1869Z" fill="#A0616A"/>
<path id="Vector_34" d="M12.9375 46.9234L14.5383 46.9233H14.5384C14.6724 46.9233 14.805 46.9495 14.9288 47.0005C15.0526 47.0514 15.1651 47.126 15.2598 47.2201C15.3545 47.3142 15.4297 47.426 15.4809 47.5489C15.5322 47.6719 15.5586 47.8036 15.5586 47.9367V47.9697L12.9375 47.9697L12.9375 46.9234Z" fill="#2F2E41"/>
<path id="Vector_35" d="M14.0312 45.5695L13.0224 45.4388C12.9803 45.4333 12.9398 45.419 12.9037 45.3967C12.8675 45.3744 12.8366 45.3447 12.813 45.3096C12.7894 45.2745 12.7736 45.2348 12.7667 45.1931C12.7598 45.1515 12.7619 45.1088 12.7729 45.0681L14.2445 37.8849C14.3907 37.1876 14.492 36.4817 14.5475 35.7715C14.5904 35.1936 14.7607 34.3765 15.328 33.7656C15.5587 33.5148 15.7741 33.2506 15.9728 32.9742L16.4183 32.3615L19.3855 31.8926L19.3876 31.929C19.5157 34.2712 20.1282 36.562 21.1867 38.6588C21.6629 39.6018 21.9362 40.6329 21.9892 41.6866L22.1574 44.9437C22.1595 44.9849 22.1529 45.0262 22.138 45.0648C22.1231 45.1034 22.1003 45.1384 22.071 45.1677C22.0418 45.1972 22.0066 45.2202 21.9678 45.2352C21.929 45.2503 21.8874 45.2569 21.8459 45.2548L20.8815 45.2113C20.8161 45.2082 20.7535 45.184 20.7034 45.1422C20.6532 45.1004 20.6183 45.0435 20.6039 44.9801L19.7987 41.4116C19.7914 41.3798 19.7775 41.3498 19.7579 41.3237L17.231 37.977C17.213 37.9531 17.1888 37.9346 17.1609 37.9233C17.1331 37.912 17.1027 37.9085 17.0731 37.913C17.0434 37.9176 17.0155 37.9301 16.9924 37.9492C16.9693 37.9682 16.9518 37.9932 16.9419 38.0214L14.3514 45.3734C14.3308 45.4314 14.2926 45.4816 14.2421 45.5171C14.1916 45.5526 14.1313 45.5718 14.0695 45.5719C14.0567 45.5719 14.0439 45.5711 14.0312 45.5695Z" fill="#2F2E41"/>
<path id="Vector_36" d="M15.3428 24.2578C15.4722 23.8683 15.5677 23.4685 15.6282 23.0627C15.6473 22.8265 15.5863 22.5723 15.4132 22.4094C15.0891 22.1043 14.5384 22.2496 14.1995 22.5383C13.7096 22.9555 13.4653 23.5966 13.373 24.231C13.2807 24.8653 13.3213 25.5104 13.2991 26.1509C13.2769 26.7915 13.1846 27.4501 12.8559 28.0016C12.5271 28.5532 11.917 28.9765 11.2735 28.9295C11.0138 28.9156 10.7672 28.8118 10.5764 28.6361C10.4828 28.5476 10.4119 28.4381 10.3697 28.3168C10.3274 28.1955 10.3151 28.0659 10.3337 27.9389C10.0048 28.5239 10.1715 29.3168 10.6621 29.7767C11.1527 30.2366 11.9073 30.3666 12.5522 30.1702C13.1972 29.9739 13.728 29.4815 14.045 28.8901C14.3621 28.2986 14.4783 27.6154 14.4615 26.9456C14.4485 26.4312 14.3605 25.9126 14.448 25.4054C14.5355 24.8982 14.8551 24.3833 15.3589 24.2638L15.3428 24.2578Z" fill="#2F2E41"/>
<path id="Vector_37" d="M17.6054 24.9246C17.6913 25.2097 18.0199 25.3854 18.3155 25.3372C18.6111 25.289 18.8542 25.0472 18.944 24.7633C19.0252 24.4734 18.992 24.1636 18.8511 23.8972C18.7734 23.7375 18.6648 23.5946 18.5315 23.4767C18.3982 23.3587 18.2428 23.268 18.0741 23.2098C17.9046 23.154 17.724 23.1395 17.5475 23.1675C17.3711 23.1955 17.2041 23.2652 17.0604 23.3707C17.0451 23.3067 17.0129 23.2478 16.9671 23.2003C16.9214 23.1527 16.8636 23.1181 16.7999 23.1001C16.6716 23.0657 16.5362 23.0677 16.4089 23.1058C16.0423 23.2096 15.7246 23.4392 15.5123 23.7537C15.3028 24.0673 15.1641 24.4223 15.106 24.7942C15.006 25.352 15.0429 25.9615 15.3582 26.4335C15.6736 26.9056 16.3188 27.1843 16.8422 26.9593C16.8748 26.7935 16.7975 26.6266 16.708 26.483C16.6186 26.3394 16.5126 26.1995 16.4782 26.0341C16.4438 25.8687 16.5097 25.6664 16.6708 25.6123C16.8082 25.5662 16.9547 25.6409 17.0994 25.65C17.1816 25.6551 17.2637 25.6387 17.3375 25.6023C17.4113 25.566 17.4742 25.511 17.5198 25.4429C17.5655 25.3748 17.5923 25.2959 17.5976 25.2143C17.6029 25.1326 17.5865 25.051 17.55 24.9777L17.6054 24.9246Z" fill="#2F2E41"/>
<path id="Vector_38" d="M60.9337 47.9999H0.0663043C0.0487193 47.9999 0.0318545 47.993 0.01942 47.9806C0.00698557 47.9683 0 47.9515 0 47.934C0 47.9166 0.00698557 47.8998 0.01942 47.8875C0.0318545 47.8751 0.0487193 47.8682 0.0663043 47.8682H60.9337C60.9513 47.8682 60.9681 47.8751 60.9806 47.8875C60.993 47.8998 61 47.9166 61 47.934C61 47.9515 60.993 47.9683 60.9806 47.9806C60.9681 47.993 60.9513 47.9999 60.9337 47.9999Z" fill="#CCCCCC"/>
</g>
<defs>
<clipPath id="clip0_437_1999">
<rect width="61" height="48" fill="white"/>
</clipPath>
</defs>
</svg>
