<svg width="115" height="85" viewBox="0 0 115 85" fill="none" xmlns="http://www.w3.org/2000/svg">
<g id="undraw_browsing_online_re_umsa 1" clip-path="url(#clip0_433_1657)">
<path id="Vector" d="M22.7309 44.2691L21.2159 28.1089L16.6982 28.2656L20.2744 44.224C19.9827 44.4704 19.7726 44.8006 19.6724 45.1703C19.5721 45.5401 19.5865 45.9319 19.7135 46.2932C19.8406 46.6546 20.0742 46.9683 20.3832 47.1924C20.6922 47.4165 21.0619 47.5404 21.4427 47.5474C21.8236 47.5544 22.1975 47.4442 22.5144 47.2316C22.8314 47.019 23.0763 46.7141 23.2163 46.3576C23.3564 46.0012 23.385 45.6102 23.2982 45.237C23.2115 44.8638 23.0136 44.5261 22.7309 44.2691Z" fill="#FFB8B8"/>
<path id="Path 2359" d="M102.127 68.0587H57.2212C57.0008 68.0584 56.7894 67.9701 56.6335 67.8133C56.4776 67.6564 56.3899 67.4438 56.3896 67.222V56.013C56.3899 55.7912 56.4776 55.5785 56.6335 55.4217C56.7894 55.2648 57.0008 55.1766 57.2212 55.1763H102.127C102.348 55.1766 102.559 55.2648 102.715 55.4217C102.871 55.5785 102.959 55.7912 102.959 56.013V67.2218C102.959 67.4436 102.871 67.6563 102.715 67.8132C102.559 67.9701 102.348 68.0584 102.127 68.0587ZM57.2212 55.5103C57.0891 55.5106 56.9624 55.5635 56.869 55.6576C56.7756 55.7516 56.723 55.879 56.7227 56.0119V67.2207C56.723 67.3536 56.7756 67.4811 56.869 67.5751C56.9624 67.6691 57.0891 67.722 57.2212 67.7223H102.127C102.26 67.722 102.386 67.6691 102.48 67.5751C102.573 67.4811 102.626 67.3536 102.626 67.2207V56.013C102.626 55.8801 102.573 55.7526 102.48 55.6586C102.386 55.5646 102.26 55.5117 102.127 55.5114L57.2212 55.5103Z" fill="white"/>
<path id="Ellipse 472" d="M52.9822 81.5872C54.853 81.5872 56.3696 80.0612 56.3696 78.1787C56.3696 76.2962 54.853 74.7701 52.9822 74.7701C51.1113 74.7701 49.5947 76.2962 49.5947 78.1787C49.5947 80.0612 51.1113 81.5872 52.9822 81.5872Z" fill="white"/>
<path id="Path 2357" d="M60.8058 76.024C60.656 76.024 60.5124 76.0838 60.4066 76.1903C60.3007 76.2969 60.2412 76.4414 60.2412 76.592C60.2412 76.7427 60.3007 76.8872 60.4066 76.9937C60.5124 77.1002 60.656 77.1601 60.8058 77.1601H87.4217C87.4959 77.1602 87.5693 77.1457 87.6379 77.1173C87.7064 77.0889 87.7687 77.0472 87.8212 76.9945C87.8738 76.9419 87.9155 76.8793 87.944 76.8105C87.9725 76.7416 87.9872 76.6678 87.9874 76.5932C87.9875 76.5186 87.9731 76.4447 87.9448 76.3757C87.9166 76.3067 87.8751 76.244 87.8228 76.1911C87.7705 76.1383 87.7084 76.0963 87.6399 76.0676C87.5715 76.039 87.4981 76.0241 87.424 76.024H60.8058Z" fill="white"/>
<path id="Path 2358" d="M60.8059 79.4327C60.6562 79.4324 60.5125 79.4919 60.4064 79.5983C60.3003 79.7046 60.2405 79.849 60.2402 79.9996C60.2399 80.1503 60.2991 80.2949 60.4048 80.4016C60.5105 80.5084 60.6539 80.5685 60.8037 80.5688H72.2589C72.4086 80.5688 72.5522 80.509 72.6581 80.4024C72.7639 80.2959 72.8234 80.1514 72.8234 80.0007C72.8234 79.8501 72.7639 79.7056 72.6581 79.5991C72.5522 79.4925 72.4086 79.4327 72.2589 79.4327H60.8059Z" fill="white"/>
<path id="Ellipse 473" d="M64.199 64.9716C66.0698 64.9716 67.5864 63.4456 67.5864 61.5631C67.5864 59.6806 66.0698 58.1545 64.199 58.1545C62.3281 58.1545 60.8115 59.6806 60.8115 61.5631C60.8115 63.4456 62.3281 64.9716 64.199 64.9716Z" fill="white"/>
<path id="Path 2360" d="M72.0225 59.4084C71.8728 59.4084 71.7292 59.4682 71.6234 59.5748C71.5175 59.6813 71.458 59.8258 71.458 59.9765C71.458 60.1271 71.5175 60.2716 71.6234 60.3781C71.7292 60.4847 71.8728 60.5445 72.0225 60.5445H98.6385C98.7882 60.5445 98.9318 60.4847 99.0377 60.3781C99.1436 60.2716 99.2031 60.1271 99.2031 59.9765C99.2031 59.8258 99.1436 59.6813 99.0377 59.5748C98.9318 59.4682 98.7882 59.4084 98.6385 59.4084H72.0225Z" fill="white"/>
<path id="Path 2361" d="M72.0225 62.8171C71.8728 62.8171 71.7292 62.8769 71.6234 62.9835C71.5175 63.09 71.458 63.2345 71.458 63.3852C71.458 63.5358 71.5175 63.6803 71.6234 63.7868C71.7292 63.8934 71.8728 63.9532 72.0225 63.9532H83.4755C83.6252 63.9532 83.7688 63.8934 83.8747 63.7868C83.9806 63.6803 84.0401 63.5358 84.0401 63.3852C84.0401 63.2345 83.9806 63.09 83.8747 62.9835C83.7688 62.8769 83.6252 62.8171 83.4755 62.8171H72.0225Z" fill="white"/>
<path id="Path 2362" d="M93.4038 40.3138H48.4976C48.2771 40.3135 48.0658 40.2253 47.9099 40.0684C47.754 39.9115 47.6663 39.6989 47.666 39.4771V0.836739C47.6663 0.614912 47.754 0.402254 47.9099 0.245398C48.0658 0.0885426 48.2771 0.000294137 48.4976 3.8147e-06H93.4038C93.6243 0.000294137 93.8356 0.0885426 93.9915 0.245398C94.1474 0.402254 94.2351 0.614912 94.2354 0.836739V39.4769C94.2351 39.6987 94.1474 39.9114 93.9916 40.0683C93.8357 40.2252 93.6243 40.3134 93.4038 40.3136V40.3138ZM48.4976 0.334039C48.3655 0.334329 48.2388 0.387269 48.1454 0.481275C48.052 0.575281 47.9994 0.702697 47.9991 0.835641V39.4769C47.9994 39.6099 48.052 39.7373 48.1454 39.8313C48.2388 39.9253 48.3655 39.9782 48.4976 39.9785H93.4038C93.536 39.9783 93.6626 39.9253 93.7561 39.8313C93.8495 39.7373 93.9021 39.6099 93.9023 39.4769V0.836739C93.902 0.703795 93.8494 0.576379 93.756 0.482373C93.6626 0.388367 93.536 0.335427 93.4038 0.335137L48.4976 0.334039Z" fill="white"/>
<path id="Ellipse 474" d="M55.4753 10.2034C57.3462 10.2034 58.8628 8.67732 58.8628 6.79483C58.8628 4.91234 57.3462 3.38628 55.4753 3.38628C53.6045 3.38628 52.0879 4.91234 52.0879 6.79483C52.0879 8.67732 53.6045 10.2034 55.4753 10.2034Z" fill="#95EF76"/>
<path id="Path 2363" d="M63.2989 4.52242C63.1492 4.52242 63.0056 4.58227 62.8997 4.6888C62.7938 4.79533 62.7344 4.93982 62.7344 5.09048C62.7344 5.24114 62.7938 5.38563 62.8997 5.49217C63.0056 5.5987 63.1492 5.65855 63.2989 5.65855H89.9149C90.0646 5.65855 90.2082 5.5987 90.3141 5.49217C90.42 5.38563 90.4794 5.24114 90.4794 5.09048C90.4794 4.93982 90.42 4.79533 90.3141 4.6888C90.2082 4.58227 90.0646 4.52242 89.9149 4.52242H63.2989Z" fill="white"/>
<path id="Path 2364" d="M63.2989 7.93112C63.1492 7.93112 63.0056 7.99097 62.8997 8.0975C62.7938 8.20404 62.7344 8.34853 62.7344 8.49919C62.7344 8.64985 62.7938 8.79434 62.8997 8.90087C63.0056 9.0074 63.1492 9.06725 63.2989 9.06725H74.7519C74.9016 9.06725 75.0452 9.0074 75.1511 8.90087C75.2569 8.79434 75.3164 8.64985 75.3164 8.49919C75.3164 8.34853 75.2569 8.20404 75.1511 8.0975C75.0452 7.99097 74.9016 7.93112 74.7519 7.93112H63.2989Z" fill="white"/>
<path id="Path 2366" d="M36.3268 81.7176H32.8997L30.8745 53.0322L30.7966 60.3212L23.3192 80.3853L20.3594 78.034L25.2664 58.0483L22.9297 46.919H38.1962L36.3268 81.7176Z" fill="#2F2E41"/>
<path id="Ellipse 475" d="M30.8745 11.4933C33.1114 11.4933 34.9248 9.66861 34.9248 7.41776C34.9248 5.16691 33.1114 3.34224 30.8745 3.34224C28.6376 3.34224 26.8242 5.16691 26.8242 7.41776C26.8242 9.66861 28.6376 11.4933 30.8745 11.4933Z" fill="#FFB8B8"/>
<path id="Path 2370" d="M38.6628 49.1135C32.0456 47.4049 25.8368 46.2536 21.9944 48.3297C22.6673 41.2115 21.8889 32.125 19.5798 22.6281C18.8298 19.5434 19.3385 16.7639 22.0723 15.1769L25.7331 13.0608L31.3412 13.2175L34.2672 14.8465C35.698 15.5659 36.8564 16.7355 37.5665 18.1777C38.2765 19.6199 38.4994 21.2559 38.2013 22.8372C36.629 31.1617 37.4786 40.1464 38.6628 49.1135Z" fill="#3F3D56"/>
<path id="Path 2372" d="M23.5521 29.2061L16.2305 28.7359C16.8025 21.4883 18.4304 17.5265 20.9039 16.1958L23.5521 19.3308V29.2061Z" fill="#3F3D56"/>
<path id="Path 2375" d="M104.073 35.3011H59.1665C58.9461 35.3008 58.7347 35.2126 58.5788 35.0557C58.4229 34.8989 58.3352 34.6862 58.335 34.4643V14.6343C58.3352 14.4124 58.4229 14.1997 58.5788 14.0429C58.7347 13.886 58.9461 13.7978 59.1665 13.7975H104.073C104.293 13.7978 104.505 13.886 104.661 14.0429C104.817 14.1997 104.904 14.4124 104.904 14.6343V34.4643C104.904 34.6862 104.817 34.8989 104.661 35.0557C104.505 35.2126 104.293 35.3008 104.073 35.3011Z" fill="#95EF76"/>
<path id="Path 2376" d="M68.3116 20.7093C68.1619 20.7093 68.0183 20.7691 67.9124 20.8757C67.8065 20.9822 67.7471 21.1267 67.7471 21.2774C67.7471 21.428 67.8065 21.5725 67.9124 21.679C68.0183 21.7856 68.1619 21.8454 68.3116 21.8454H94.9277C95.0775 21.8454 95.2211 21.7856 95.3269 21.679C95.4328 21.5725 95.4923 21.428 95.4923 21.2774C95.4923 21.1267 95.4328 20.9822 95.3269 20.8757C95.2211 20.7691 95.0775 20.7093 94.9277 20.7093H68.3116Z" fill="white"/>
<path id="Path 2377" d="M68.3116 24.0011C68.1619 24.0011 68.0183 24.0609 67.9124 24.1674C67.8065 24.274 67.7471 24.4185 67.7471 24.5691C67.7471 24.7198 67.8065 24.8643 67.9124 24.9708C68.0183 25.0773 68.1619 25.1372 68.3116 25.1372H94.9277C95.0775 25.1372 95.2211 25.0773 95.3269 24.9708C95.4328 24.8643 95.4923 24.7198 95.4923 24.5691C95.4923 24.4185 95.4328 24.274 95.3269 24.1674C95.2211 24.0609 95.0775 24.0011 94.9277 24.0011H68.3116Z" fill="white"/>
<path id="Path 2378" d="M68.3116 27.253C68.1619 27.253 68.0183 27.3129 67.9124 27.4194C67.8065 27.5259 67.7471 27.6704 67.7471 27.8211C67.7471 27.9717 67.8065 28.1162 67.9124 28.2228C68.0183 28.3293 68.1619 28.3891 68.3116 28.3891H79.7646C79.9143 28.3891 80.0579 28.3293 80.1638 28.2228C80.2696 28.1162 80.3291 27.9717 80.3291 27.8211C80.3291 27.6704 80.2696 27.5259 80.1638 27.4194C80.0579 27.3129 79.9143 27.253 79.7646 27.253H68.3116Z" fill="white"/>
<path id="Path 1784" d="M32.2551 2.05485C31.8778 2.01504 31.522 2.21709 31.1508 2.2997C30.3874 2.46805 29.6054 2.11912 28.8206 2.1221C28.146 2.16069 27.4898 2.35777 26.9045 2.69753C26.4312 2.92262 25.9993 3.22691 25.6271 3.59744C25.2529 3.97394 25.035 4.47959 25.0177 5.0118C25.0696 5.31665 25.0602 5.62887 24.9903 5.93004C24.9112 6.0819 24.8173 6.22546 24.7099 6.3586C24.6128 6.51548 24.5508 6.69175 24.5282 6.87517C24.5056 7.05859 24.5229 7.24476 24.579 7.42075C24.7363 7.76939 24.949 8.08992 25.2087 8.36972C25.7137 9.02164 26.0301 9.80226 26.4833 10.4942C26.681 10.7945 26.9028 11.078 27.1464 11.342C27.1863 11.3888 27.2349 11.4272 27.2895 11.4552C27.3431 11.4742 27.3999 11.4825 27.4568 11.4797C28.4181 11.5072 29.4129 11.5286 30.298 11.1491C30.5816 11.0501 30.8224 10.8554 30.9794 10.5981C31.1071 10.245 31.1303 9.86222 31.0462 9.49612C31.006 9.08839 31.0152 8.67724 31.0737 8.27175C31.0777 8.1348 31.1334 8.00454 31.2294 7.90746C31.302 7.86207 31.3853 7.83673 31.4707 7.83397C31.5561 7.83122 31.6408 7.85116 31.7161 7.89178C31.8665 7.97147 32.0307 8.02133 32.1998 8.03866C32.5315 8.03866 32.7413 7.65901 32.8083 7.32842C32.7717 7.03133 32.8154 6.72982 32.9348 6.45562C33.0542 6.18142 33.2449 5.94468 33.4867 5.77032C33.7146 5.4793 33.871 5.13833 33.9435 4.77507C34.0159 4.41181 34.0021 4.0365 33.9034 3.67957C33.6848 2.99159 33.0156 2.13135 32.2551 2.05485Z" fill="#2F2E41"/>
<path id="Path 2356" d="M90.9116 84.6743H46.0054C45.7849 84.674 45.5736 84.5857 45.4177 84.4289C45.2618 84.272 45.1741 84.0594 45.1738 83.8375V72.6286C45.1741 72.4068 45.2618 72.1941 45.4177 72.0372C45.5735 71.8803 45.7849 71.7921 46.0054 71.7919H90.9116C91.1321 71.7922 91.3434 71.8804 91.4993 72.0373C91.6552 72.1941 91.7429 72.4068 91.7432 72.6286V83.8374C91.7429 84.0592 91.6552 84.2719 91.4993 84.4287C91.3434 84.5856 91.1321 84.674 90.9116 84.6743ZM46.0054 72.1259C45.8733 72.1262 45.7466 72.1791 45.6532 72.2731C45.5598 72.3671 45.5072 72.4946 45.5069 72.6275V83.8363C45.5072 83.9692 45.5598 84.0966 45.6532 84.1906C45.7466 84.2847 45.8733 84.3376 46.0054 84.3379H90.9116C91.0438 84.3376 91.1704 84.2847 91.2639 84.1907C91.3573 84.0967 91.4099 83.9692 91.4101 83.8363V72.6286C91.4099 72.4956 91.3572 72.3682 91.2638 72.2742C91.1704 72.1802 91.0438 72.1273 90.9116 72.127L46.0054 72.1259Z" fill="white"/>
<path id="Vector_2" d="M40.0229 43.6421L38.5079 27.4819L33.9902 27.6386L37.5664 43.597C37.2746 43.8434 37.0646 44.1736 36.9644 44.5433C36.8641 44.9131 36.8785 45.3049 37.0055 45.6662C37.1325 46.0276 37.3662 46.3413 37.6752 46.5654C37.9842 46.7895 38.3539 46.9134 38.7347 46.9204C39.1156 46.9274 39.4895 46.8172 39.8064 46.6046C40.1234 46.392 40.3683 46.0871 40.5083 45.7306C40.6484 45.3742 40.6769 44.9832 40.5902 44.61C40.5035 44.2368 40.3055 43.8991 40.0229 43.6421Z" fill="#FFB8B8"/>
<path id="Path 2374" d="M40.0653 27.7954L33.211 29.3629L32.8994 18.0768L36.7939 18.2336L40.0653 27.7954Z" fill="#3F3D56"/>
<path id="Vector_3" d="M32.791 81.4353L37.7626 81.4351H37.7628C38.6031 81.4352 39.4089 81.771 40.0031 82.3689C40.5973 82.9668 40.9311 83.7776 40.9312 84.6231V84.7267L32.7912 84.727L32.791 81.4353Z" fill="#2F2E41"/>
<path id="Vector_4" d="M20.3038 77.4744L24.4833 80.1836L24.4835 80.1837C25.1898 80.6417 25.6864 81.3632 25.8641 82.1896C26.0418 83.0159 25.886 83.8795 25.431 84.5903L25.3752 84.6774L18.5322 80.2416L20.3038 77.4744Z" fill="#2F2E41"/>
<path id="Rectangle 256" d="M115 84.6865H0V85H115V84.6865Z" fill="#CACACA"/>
</g>
<defs>
<clipPath id="clip0_433_1657">
<rect width="115" height="85" fill="white"/>
</clipPath>
</defs>
</svg>
