<svg width="71" height="48" viewBox="0 0 71 48" fill="none" xmlns="http://www.w3.org/2000/svg">
<g id="undraw_personal_text_re_vqj3 1" clip-path="url(#clip0_437_1967)">
<path id="Vector" d="M63.6941 46.8611C62.1017 48.0017 60.0381 48.059 58.0434 47.9188C57.7649 47.8993 57.4883 47.8764 57.2143 47.8516C57.2127 47.8512 57.2105 47.8514 57.2088 47.8509C57.1957 47.8497 57.1825 47.8484 57.1699 47.8477C57.1133 47.8424 57.0567 47.8372 57.0007 47.8319L57.0139 47.857L57.0555 47.9349C57.0405 47.9088 57.0256 47.8833 57.0107 47.8572C57.0063 47.8494 57.0014 47.8416 56.997 47.8338C56.4803 46.9397 55.9678 46.0127 55.837 44.9918C55.7019 43.9321 56.0817 42.7322 57.0197 42.2113C57.1427 42.1432 57.273 42.089 57.4081 42.0496C57.4642 42.0326 57.5211 42.0189 57.5786 42.0067C57.9303 41.929 58.2966 41.9459 58.6396 42.0557C58.9827 42.1654 59.2901 42.364 59.5304 42.631C59.7707 42.8981 59.9351 43.2239 60.0067 43.5751C60.0783 43.9262 60.0546 44.29 59.9379 44.629C60.7332 43.8182 60.5848 42.5029 60.3105 41.4036C60.0357 40.3043 59.7029 39.0811 60.262 38.0937C60.5727 37.5441 61.1192 37.2031 61.7325 37.0658C61.7513 37.0617 61.7701 37.0577 61.7889 37.0542C62.5197 36.907 63.2793 37.0394 63.9162 37.4248C65.0888 38.1596 65.6911 39.5527 65.8866 40.9173C66.2016 43.1133 65.5046 45.5641 63.6941 46.8611Z" fill="#95EF76"/>
<path id="Vector_2" d="M63.18 43.3409C63.1338 43.8253 63.0168 44.3004 62.8327 44.7512C62.663 45.1501 62.4342 45.5216 62.1541 45.8533C61.5716 46.5311 60.8339 47.06 60.0031 47.3954C59.3747 47.6513 58.7163 47.8272 58.0435 47.9189C57.7649 47.8994 57.4884 47.8764 57.2144 47.8517C57.2127 47.8513 57.2106 47.8514 57.2089 47.851C57.1957 47.8498 57.1825 47.8485 57.1699 47.8478C57.1134 47.8425 57.0568 47.8373 57.0007 47.832L57.014 47.8571L57.0555 47.935C57.0406 47.9089 57.0257 47.8834 57.0107 47.8573C57.0064 47.8495 57.0014 47.8417 56.9971 47.8338C57.5015 47.3342 57.878 46.7216 58.0953 46.0474C58.3125 45.3732 58.3641 44.6571 58.2456 43.959C58.1217 43.2658 57.8347 42.6116 57.4081 42.0497C57.4642 42.0327 57.5211 42.019 57.5786 42.0068C57.7407 42.2272 57.8829 42.4613 58.0035 42.7066C58.4364 43.5813 58.5745 44.5713 58.3974 45.5301C58.2327 46.3978 57.8225 47.2007 57.215 47.8446C57.2682 47.8409 57.3219 47.8366 57.3745 47.8318C58.3701 47.7479 59.3638 47.5351 60.2669 47.0991C61.0389 46.7355 61.7091 46.1888 62.2184 45.507C62.7654 44.757 63.0064 43.8548 63.0478 42.9379C63.0797 41.95 62.9755 40.9625 62.7383 40.0027C62.5082 39.024 62.1586 38.077 61.6971 37.1828C61.6868 37.1625 61.6847 37.1391 61.6913 37.1173C61.6979 37.0955 61.7127 37.0771 61.7325 37.0658C61.7491 37.0548 61.7694 37.0506 61.789 37.0543C61.7986 37.0568 61.8075 37.0615 61.815 37.0679C61.8226 37.0743 61.8285 37.0823 61.8325 37.0914C61.8894 37.2019 61.9453 37.3124 61.9991 37.4242C62.4466 38.3552 62.7761 39.3379 62.98 40.3497C63.178 41.3258 63.2836 42.3469 63.18 43.3409Z" fill="white"/>
<path id="Vector_3" d="M2.96221 15.2566C2.91481 15.2566 2.86782 15.2478 2.82366 15.2306C2.75225 15.2033 2.69087 15.1551 2.64768 15.0923C2.60449 15.0295 2.58154 14.9552 2.58186 14.8791V10.9391C2.58171 10.8058 2.52837 10.6779 2.43353 10.5836C2.33869 10.4893 2.2101 10.4363 2.07597 10.4361H1.26453C0.929273 10.4357 0.607853 10.3031 0.370788 10.0674C0.133724 9.83172 0.000375743 9.51214 0 9.17879V1.25732C0.000375966 0.923974 0.133724 0.604387 0.370788 0.368674C0.607853 0.132961 0.929273 0.0003736 1.26453 0H29.8864C30.2216 0.000374043 30.5431 0.132962 30.7801 0.368674C31.0172 0.604387 31.1505 0.923974 31.1509 1.25732V9.17879C31.1505 9.51214 31.0172 9.83172 30.7801 10.0674C30.5431 10.3031 30.2216 10.4357 29.8864 10.4361H7.79439C7.72426 10.4362 7.65492 10.4507 7.59073 10.4788C7.52654 10.5069 7.4689 10.5479 7.42145 10.5992L3.24082 15.134C3.20551 15.1726 3.1625 15.2034 3.11453 15.2245C3.06656 15.2456 3.01468 15.2566 2.96221 15.2566ZM1.26453 0.167539C0.973948 0.167865 0.695358 0.282787 0.489883 0.48709C0.284408 0.691393 0.168828 0.968393 0.1685 1.25732V9.17879C0.168828 9.46772 0.284408 9.74472 0.489883 9.94902C0.695358 10.1533 0.973948 10.2682 1.26453 10.2686H2.07597C2.25477 10.2688 2.42619 10.3395 2.55262 10.4652C2.67905 10.5909 2.75017 10.7614 2.75036 10.9391V14.8791C2.75037 14.9213 2.7632 14.9626 2.78718 14.9974C2.81117 15.0323 2.84518 15.0591 2.88477 15.0745C2.92436 15.0898 2.96767 15.0928 3.00904 15.0832C3.05041 15.0737 3.08791 15.0519 3.11661 15.0207L7.29725 10.486C7.3605 10.4176 7.43733 10.3629 7.5229 10.3255C7.60847 10.2881 7.70091 10.2687 7.79439 10.2686H29.8864C30.177 10.2682 30.4556 10.1533 30.661 9.94902C30.8665 9.74472 30.9821 9.46772 30.9824 9.17879V1.25732C30.9821 0.968394 30.8665 0.691393 30.661 0.48709C30.4556 0.282787 30.177 0.167866 29.8864 0.167539H1.26453Z" fill="#999999"/>
<path id="Vector_4" d="M3.10163 3.56784C3.71274 3.56784 4.20815 3.07526 4.20815 2.46764C4.20815 1.86001 3.71274 1.36743 3.10163 1.36743C2.49052 1.36743 1.99512 1.86001 1.99512 2.46764C1.99512 3.07526 2.49052 3.56784 3.10163 3.56784Z" fill="#999999"/>
<path id="Vector_5" d="M28.5957 8.55539H2.55569C2.47813 8.55548 2.40132 8.54037 2.32964 8.51093C2.25796 8.48148 2.19282 8.43827 2.13794 8.38378C2.08307 8.32928 2.03953 8.26456 2.00983 8.19333C1.98013 8.12209 1.96484 8.04573 1.96484 7.96861C1.96484 7.8915 1.98013 7.81514 2.00983 7.7439C2.03953 7.67267 2.08307 7.60795 2.13794 7.55345C2.19282 7.49896 2.25796 7.45575 2.32964 7.4263C2.40132 7.39685 2.47813 7.38174 2.55569 7.38184H28.5957C28.6732 7.38174 28.75 7.39685 28.8217 7.4263C28.8934 7.45575 28.9585 7.49896 29.0134 7.55345C29.0683 7.60795 29.1118 7.67267 29.1415 7.7439C29.1712 7.81514 29.1865 7.8915 29.1865 7.96861C29.1865 8.04573 29.1712 8.12209 29.1415 8.19333C29.1118 8.26456 29.0683 8.32928 29.0134 8.38378C28.9585 8.43827 28.8934 8.48148 28.8217 8.51093C28.75 8.54037 28.6732 8.55548 28.5957 8.55539Z" fill="#999999"/>
<path id="Vector_6" d="M20.1124 6.06149H2.55569C2.47813 6.06159 2.40132 6.04647 2.32964 6.01703C2.25796 5.98758 2.19282 5.94437 2.13794 5.88988C2.08307 5.83538 2.03953 5.77066 2.00983 5.69943C1.98013 5.62819 1.96484 5.55183 1.96484 5.47472C1.96484 5.3976 1.98013 5.32124 2.00983 5.25C2.03953 5.17877 2.08307 5.11405 2.13794 5.05955C2.19282 5.00506 2.25796 4.96185 2.32964 4.9324C2.40132 4.90296 2.47813 4.88785 2.55569 4.88794H20.1124C20.19 4.88785 20.2668 4.90296 20.3384 4.9324C20.4101 4.96185 20.4753 5.00506 20.5301 5.05955C20.585 5.11405 20.6286 5.17877 20.6583 5.25C20.688 5.32124 20.7032 5.3976 20.7032 5.47472C20.7032 5.55183 20.688 5.62819 20.6583 5.69943C20.6286 5.77066 20.585 5.83538 20.5301 5.88988C20.4753 5.94437 20.4101 5.98758 20.3384 6.01703C20.2668 6.04647 20.19 6.06159 20.1124 6.06149Z" fill="#999999"/>
<path id="Vector_7" d="M2.96221 43.2019C2.91481 43.2019 2.86782 43.1931 2.82366 43.1759C2.75225 43.1486 2.69088 43.1004 2.64769 43.0376C2.6045 42.9748 2.58154 42.9005 2.58186 42.8244V38.8844C2.58171 38.7511 2.52837 38.6232 2.43353 38.5289C2.33869 38.4346 2.2101 38.3816 2.07597 38.3814H1.26453C0.929274 38.381 0.607854 38.2485 0.370789 38.0127C0.133725 37.777 0.000376635 37.4574 0 37.1241V29.2026C0.000375965 28.8693 0.133724 28.5497 0.370788 28.314C0.607852 28.0783 0.929274 27.9457 1.26453 27.9453H29.8864C30.2216 27.9457 30.5431 28.0783 30.7801 28.314C31.0172 28.5497 31.1505 28.8693 31.1509 29.2026V37.1241C31.1505 37.4575 31.0172 37.777 30.7801 38.0127C30.5431 38.2485 30.2216 38.3811 29.8864 38.3814H7.79439C7.72426 38.3815 7.65492 38.396 7.59073 38.4241C7.52654 38.4522 7.4689 38.4932 7.42145 38.5445L3.24082 43.0793C3.20551 43.1179 3.1625 43.1487 3.11453 43.1698C3.06656 43.1909 3.01468 43.2019 2.96221 43.2019ZM1.26453 28.1128C0.973947 28.1132 0.695358 28.2281 0.489883 28.4324C0.284408 28.6367 0.168828 28.9137 0.1685 29.2026V37.1241C0.168828 37.413 0.284408 37.69 0.489883 37.8943C0.695358 38.0986 0.973948 38.2136 1.26453 38.2139H2.07597C2.25477 38.2141 2.42619 38.2848 2.55262 38.4105C2.67905 38.5362 2.75017 38.7067 2.75036 38.8845V42.8244C2.75037 42.8666 2.7632 42.9079 2.78718 42.9427C2.81117 42.9776 2.84518 43.0045 2.88477 43.0198C2.92436 43.0351 2.96767 43.0381 3.00904 43.0286C3.05041 43.019 3.08791 42.9972 3.11661 42.966L7.29725 38.4313C7.3605 38.3629 7.43733 38.3082 7.5229 38.2708C7.60847 38.2334 7.70091 38.214 7.79439 38.2139H29.8864C30.177 38.2136 30.4556 38.0986 30.661 37.8943C30.8665 37.69 30.9821 37.413 30.9824 37.1241V29.2026C30.9821 28.9137 30.8665 28.6367 30.661 28.4324C30.4556 28.2281 30.177 28.1132 29.8864 28.1129L1.26453 28.1128Z" fill="#999999"/>
<path id="Vector_8" d="M45.2287 28.6792C45.1763 28.6792 45.1244 28.6682 45.0764 28.6471C45.0284 28.626 44.9854 28.5952 44.9501 28.5566L40.7695 24.0218C40.722 23.9705 40.6644 23.9295 40.6002 23.9014C40.536 23.8733 40.4667 23.8588 40.3966 23.8587H18.3046C17.9693 23.8583 17.6479 23.7258 17.4108 23.49C17.1738 23.2543 17.0404 22.9347 17.04 22.6014V14.6799C17.0404 14.3466 17.1738 14.027 17.4108 13.7913C17.6479 13.5556 17.9693 13.423 18.3046 13.4226H46.9264C47.2617 13.423 47.5831 13.5556 47.8202 13.7913C48.0572 14.027 48.1906 14.3466 48.191 14.6799V22.6014C48.1906 22.9347 48.0572 23.2543 47.8202 23.49C47.5831 23.7258 47.2617 23.8583 46.9264 23.8587H46.115C45.9809 23.8589 45.8523 23.9119 45.7574 24.0062C45.6626 24.1005 45.6092 24.2284 45.6091 24.3617V28.3017C45.6094 28.3778 45.5865 28.4521 45.5433 28.5149C45.5001 28.5777 45.4387 28.6259 45.3673 28.6532C45.3231 28.6704 45.2761 28.6792 45.2287 28.6792ZM18.3046 13.5901C18.014 13.5905 17.7354 13.7054 17.5299 13.9097C17.3244 14.114 17.2089 14.391 17.2085 14.6799V22.6014C17.2089 22.8903 17.3244 23.1673 17.5299 23.3716C17.7354 23.5759 18.014 23.6908 18.3046 23.6912H40.3966C40.49 23.6913 40.5825 23.7107 40.6681 23.7481C40.7536 23.7855 40.8304 23.8402 40.8937 23.9086L45.0743 28.4433C45.103 28.4745 45.1405 28.4963 45.1819 28.5058C45.2233 28.5154 45.2666 28.5124 45.3062 28.4971C45.3458 28.4817 45.3798 28.4549 45.4038 28.42C45.4277 28.3852 45.4406 28.3439 45.4406 28.3017V24.3617C45.4408 24.184 45.5119 24.0135 45.6383 23.8878C45.7648 23.7621 45.9362 23.6914 46.115 23.6912H46.9264C47.217 23.6909 47.4956 23.5759 47.7011 23.3716C47.9065 23.1673 48.0221 22.8903 48.0225 22.6014V14.6799C48.0221 14.391 47.9065 14.114 47.7011 13.9097C47.4956 13.7054 47.217 13.5905 46.9264 13.5901L18.3046 13.5901Z" fill="#3F3D56"/>
<path id="Vector_9" d="M3.10163 31.5129C3.71274 31.5129 4.20815 31.0203 4.20815 30.4127C4.20815 29.8051 3.71274 29.3125 3.10163 29.3125C2.49052 29.3125 1.99512 29.8051 1.99512 30.4127C1.99512 31.0203 2.49052 31.5129 3.10163 31.5129Z" fill="#999999"/>
<path id="Vector_10" d="M28.5957 36.5007H2.55569C2.47813 36.5008 2.40132 36.4857 2.32964 36.4562C2.25796 36.4268 2.19282 36.3836 2.13794 36.3291C2.08307 36.2746 2.03953 36.2099 2.00983 36.1386C1.98013 36.0674 1.96484 35.991 1.96484 35.9139C1.96484 35.8368 1.98013 35.7604 2.00983 35.6892C2.03953 35.618 2.08307 35.5533 2.13794 35.4988C2.19282 35.4443 2.25796 35.4011 2.32964 35.3716C2.40132 35.3422 2.47813 35.3271 2.55569 35.3271H28.5957C28.7522 35.3271 28.9023 35.389 29.013 35.499C29.1236 35.6091 29.1858 35.7583 29.1858 35.9139C29.1858 36.0695 29.1236 36.2188 29.013 36.3288C28.9023 36.4389 28.7522 36.5007 28.5957 36.5007Z" fill="#999999"/>
<path id="Vector_11" d="M20.1124 34.0068H2.55569C2.47813 34.0069 2.40132 33.9918 2.32964 33.9623C2.25796 33.9329 2.19282 33.8897 2.13794 33.8352C2.08307 33.7807 2.03953 33.716 2.00983 33.6447C1.98013 33.5735 1.96484 33.4971 1.96484 33.42C1.96484 33.3429 1.98013 33.2666 2.00983 33.1953C2.03953 33.1241 2.08307 33.0594 2.13794 33.0049C2.19282 32.9504 2.25796 32.9072 2.32964 32.8777C2.40132 32.8483 2.47813 32.8332 2.55569 32.8333H20.1124C20.19 32.8332 20.2668 32.8483 20.3384 32.8777C20.4101 32.9072 20.4753 32.9504 20.5301 33.0049C20.585 33.0594 20.6286 33.1241 20.6583 33.1953C20.688 33.2666 20.7032 33.3429 20.7032 33.42C20.7032 33.4971 20.688 33.5735 20.6583 33.6447C20.6286 33.716 20.585 33.7807 20.5301 33.8352C20.4753 33.8897 20.4101 33.9329 20.3384 33.9623C20.2668 33.9918 20.19 34.0069 20.1124 34.0068Z" fill="#999999"/>
<path id="Vector_12" d="M20.1417 16.917C20.7528 16.917 21.2482 16.4244 21.2482 15.8168C21.2482 15.2091 20.7528 14.7166 20.1417 14.7166C19.5306 14.7166 19.0352 15.2091 19.0352 15.8168C19.0352 16.4244 19.5306 16.917 20.1417 16.917Z" fill="#3F3D56"/>
<path id="Vector_13" d="M45.636 21.9045H19.596C19.4395 21.9045 19.2894 21.8427 19.1787 21.7326C19.068 21.6226 19.0059 21.4734 19.0059 21.3177C19.0059 21.1621 19.068 21.0129 19.1787 20.9028C19.2894 20.7928 19.4395 20.731 19.596 20.731H45.636C45.7925 20.731 45.9426 20.7928 46.0533 20.9028C46.1639 21.0129 46.2261 21.1621 46.2261 21.3177C46.2261 21.4734 46.1639 21.6226 46.0533 21.7326C45.9426 21.8427 45.7925 21.9045 45.636 21.9045Z" fill="#7F35B2"/>
<path id="Vector_14" d="M37.1524 19.4106H19.5957C19.5182 19.4107 19.4414 19.3956 19.3697 19.3662C19.298 19.3367 19.2329 19.2935 19.178 19.239C19.1231 19.1845 19.0796 19.1198 19.0499 19.0485C19.0202 18.9773 19.0049 18.901 19.0049 18.8238C19.0049 18.7467 19.0202 18.6704 19.0499 18.5991C19.0796 18.5279 19.1231 18.4632 19.178 18.4087C19.2329 18.3542 19.298 18.311 19.3697 18.2815C19.4414 18.2521 19.5182 18.237 19.5957 18.2371H37.1524C37.23 18.237 37.3068 18.2521 37.3785 18.2815C37.4502 18.311 37.5153 18.3542 37.5702 18.4087C37.6251 18.4632 37.6686 18.5279 37.6983 18.5991C37.728 18.6704 37.7433 18.7467 37.7433 18.8238C37.7433 18.901 37.728 18.9773 37.6983 19.0485C37.6686 19.1198 37.6251 19.1845 37.5702 19.239C37.5153 19.2935 37.4502 19.3367 37.3785 19.3662C37.3068 19.3956 37.23 19.4107 37.1524 19.4106Z" fill="#7F35B2"/>
<path id="Vector_15" d="M45.6246 30.1871C45.6498 30.0665 45.7014 29.9529 45.7756 29.8543C45.8498 29.7557 45.9449 29.6745 46.0541 29.6164C46.1633 29.5583 46.2839 29.5247 46.4076 29.5179C46.5313 29.5112 46.6549 29.5315 46.7698 29.5775L48.7463 27.3193L49.1661 28.8179L47.2249 30.7325C47.1345 30.9193 46.9783 31.0667 46.7859 31.1467C46.5935 31.2267 46.3783 31.2338 46.1811 31.1665C45.9838 31.0993 45.8182 30.9625 45.7156 30.7819C45.6131 30.6014 45.5807 30.3898 45.6246 30.1871Z" fill="#FFB8B8"/>
<path id="Vector_16" d="M56.4716 19.5905C57.6144 19.5905 58.5409 18.6694 58.5409 17.5331C58.5409 16.3967 57.6144 15.4756 56.4716 15.4756C55.3288 15.4756 54.4023 16.3967 54.4023 17.5331C54.4023 18.6694 55.3288 19.5905 56.4716 19.5905Z" fill="#FFB8B8"/>
<path id="Vector_17" d="M54.0409 45.8532L53.008 45.8531L52.5166 41.8918L54.0411 41.8919L54.0409 45.8532Z" fill="#FFB8B8"/>
<path id="Vector_18" d="M54.3041 46.8487L50.9736 46.8486V46.8067C50.9736 46.6375 51.0072 46.4699 51.0723 46.3135C51.1375 46.1571 51.2329 46.015 51.3533 45.8953C51.4737 45.7756 51.6166 45.6807 51.7739 45.6159C51.9311 45.5512 52.0997 45.5178 52.2699 45.5178L54.3041 45.5179L54.3041 46.8487Z" fill="#2F2E41"/>
<path id="Vector_19" d="M57.1583 46.9423L56.1255 46.9422L55.9824 43.0755L57.1586 42.981L57.1583 46.9423Z" fill="#FFB8B8"/>
<path id="Vector_20" d="M57.4213 47.9378L54.0908 47.9377V47.8958C54.0908 47.7266 54.1243 47.559 54.1895 47.4026C54.2546 47.2462 54.3501 47.1041 54.4705 46.9844C54.5909 46.8647 54.7338 46.7698 54.8911 46.705C55.0483 46.6403 55.2169 46.6069 55.3871 46.6069L57.4213 46.607L57.4213 47.9378Z" fill="#2F2E41"/>
<path id="Vector_21" d="M56.8648 46.2193L56.0605 46.1251C55.9692 46.1143 55.8851 46.0709 55.8235 46.0031C55.762 45.9352 55.7272 45.8475 55.7257 45.7562L55.5749 35.3404C55.5745 35.3109 55.5637 35.2825 55.5443 35.2602C55.525 35.2379 55.4983 35.223 55.4691 35.2182C55.4398 35.2135 55.4098 35.2191 55.3843 35.2341C55.3588 35.2491 55.3394 35.2725 55.3295 35.3003L54.2135 38.4332L54.2933 44.3056C54.2947 44.4025 54.2584 44.4963 54.1921 44.5673C54.1257 44.6383 54.0344 44.6812 53.9371 44.687L52.887 44.7313C52.7909 44.7367 52.6964 44.7059 52.6223 44.6449C52.5481 44.5839 52.4999 44.4974 52.4873 44.4025L51.9388 37.7595L51.9385 37.7554L52.7706 30.8176L59.0206 31.2672L57.2856 45.8891C57.2746 45.9807 57.2303 46.0652 57.1609 46.1265C57.0916 46.1878 57.0021 46.2217 56.9093 46.2219C56.8944 46.2219 56.8796 46.2211 56.8648 46.2193Z" fill="#2F2E41"/>
<path id="Vector_22" d="M52.797 31.4326C52.7409 31.4028 52.6933 31.3594 52.6586 31.3064C52.6239 31.2534 52.6033 31.1926 52.5986 31.1295C52.5986 31.1295 53.1607 27.6544 53.3666 27.5892L52.916 23.8729C52.862 23.4196 52.8996 22.9602 53.0267 22.5216C53.1537 22.083 53.3676 21.674 53.6557 21.3187C53.9333 20.974 54.2781 20.6888 54.6695 20.4803C55.061 20.2718 55.4908 20.1443 55.9332 20.1055C55.9962 20.0999 56.0588 20.0956 56.1211 20.0926C56.6543 20.0642 57.1866 20.1643 57.6726 20.3842C58.1586 20.6042 58.584 20.9376 58.9126 21.356C59.2535 21.7781 59.4869 22.2758 59.5928 22.8068C59.6987 23.3377 59.674 23.8863 59.5209 24.4058L59.2681 25.2803V31.3918C59.2679 31.4514 59.2535 31.5102 59.2263 31.5633C59.1991 31.6165 59.1597 31.6625 59.1113 31.6978C58.3243 32.2721 57.435 32.4751 56.5707 32.4751C54.9353 32.4751 53.3896 31.748 52.797 31.4326Z" fill="#7F35B2"/>
<path id="Vector_23" d="M47.9452 30.3144L46.8582 29.5061C46.8155 29.4744 46.7801 29.4342 46.7541 29.3879C46.7282 29.3417 46.7123 29.2906 46.7076 29.2378C46.7028 29.1851 46.7093 29.132 46.7266 29.0819C46.7439 29.0318 46.7716 28.9859 46.8079 28.9472L53.2836 22.0384C53.4914 21.8185 53.7717 21.6801 54.0735 21.6482C54.3753 21.6163 54.6785 21.693 54.9283 21.8645C55.0804 21.97 55.2073 22.1075 55.2999 22.2673C55.3925 22.4271 55.4486 22.6052 55.4641 22.789C55.4796 22.9728 55.4541 23.1577 55.3895 23.3306C55.325 23.5035 55.2228 23.6601 55.0905 23.7892L48.4378 30.2815C48.3793 30.3391 48.3035 30.3761 48.2219 30.3868C48.1404 30.3975 48.0575 30.3814 47.986 30.3409C47.9718 30.3329 47.9582 30.324 47.9452 30.3144Z" fill="#7F35B2"/>
<path id="Vector_24" d="M56.2646 29.3995C56.3121 29.2858 56.3841 29.1838 56.4755 29.1008C56.567 29.0177 56.6756 28.9556 56.7938 28.9188C56.912 28.882 57.0369 28.8714 57.1597 28.8878C57.2824 28.9042 57.4001 28.9471 57.5043 29.0136L59.8706 27.1628L60.0012 28.713L57.7341 30.2329C57.6101 30.3996 57.429 30.5154 57.225 30.5582C57.0209 30.601 56.8082 30.5679 56.6271 30.4652C56.4459 30.3625 56.309 30.1973 56.2422 30.0009C56.1754 29.8044 56.1833 29.5905 56.2646 29.3995Z" fill="#FFB8B8"/>
<path id="Vector_25" d="M58.3829 30.1222C58.3202 30.1028 58.2638 30.0675 58.2191 30.0198C58.1744 29.972 58.1431 29.9135 58.1282 29.85L57.8891 28.8518C57.8716 28.781 57.8755 28.7065 57.9002 28.6378C57.9249 28.5691 57.9694 28.5092 58.0282 28.4654L59.6364 26.7361L57.2708 23.1092C57.0918 22.89 56.9908 22.6179 56.9838 22.3356C56.9768 22.0533 57.064 21.7767 57.2319 21.5489C57.3657 21.3674 57.5454 21.2243 57.7528 21.1341C57.9602 21.0439 58.1878 21.0098 58.4127 21.0353C58.6376 21.0608 58.8517 21.1449 59.0334 21.2791C59.2151 21.4133 59.3578 21.5929 59.4472 21.7997L61.6465 26.0561C61.8651 26.479 61.9196 26.967 61.7997 27.4273C61.6797 27.8876 61.3937 28.2879 60.996 28.552L58.7485 30.0448C58.6796 30.106 58.5906 30.1399 58.4982 30.14C58.4591 30.14 58.4202 30.1339 58.3829 30.1222Z" fill="#7F35B2"/>
<path id="Vector_26" d="M58.0054 19.3723C57.9566 19.4014 57.9018 19.4189 57.8451 19.4236C57.7884 19.4282 57.7314 19.4198 57.6785 19.399C57.6256 19.3783 57.5783 19.3457 57.5401 19.3038C57.5019 19.2619 57.4739 19.2118 57.4583 19.1574L57.457 19.1523C57.4149 18.9811 57.4481 18.8019 57.459 18.626C57.4699 18.4501 57.4515 18.257 57.3304 18.1284C57.1046 17.8885 56.7058 18.0184 56.3808 17.9592C56.1904 17.918 56.0216 17.8093 55.906 17.6533C55.7905 17.4973 55.736 17.3047 55.7529 17.1117C55.7573 17.0752 55.7644 17.0385 55.7723 17.0019C55.7921 16.9091 55.79 16.8131 55.7662 16.7213C55.7424 16.6294 55.6975 16.5443 55.635 16.4727C55.5726 16.401 55.4943 16.3447 55.4063 16.3082C55.3182 16.2717 55.2229 16.2559 55.1277 16.2622C54.7997 16.2826 54.4461 16.3834 54.1733 16.1432C54.0732 16.0484 54.0035 15.9264 53.9727 15.7924C53.942 15.6585 53.9516 15.5185 54.0003 15.3899C54.1529 14.9442 54.5898 14.709 55.0227 14.5787C55.558 14.4218 56.1219 14.3854 56.6731 14.4724C57.2244 14.5593 57.7492 14.7673 58.2095 15.0812C58.4844 15.2717 58.7414 15.5115 58.8598 15.8231C58.9782 16.1347 58.924 16.529 58.662 16.7365C58.8671 16.9502 59.0122 17.2137 59.0827 17.5007C59.1531 17.7877 59.1465 18.0881 59.0634 18.3717C58.9357 18.7889 58.3174 19.1915 58.0054 19.3723Z" fill="#2F2E41"/>
<path id="Vector_27" d="M71.0002 47.9163C71.0001 47.9385 70.9912 47.9598 70.9754 47.9755C70.9596 47.9912 70.9382 48 70.9159 48.0001H38.8167C38.7943 48.0001 38.7729 47.9912 38.7571 47.9755C38.7413 47.9598 38.7324 47.9385 38.7324 47.9163C38.7324 47.8941 38.7413 47.8728 38.7571 47.8571C38.7729 47.8413 38.7943 47.8325 38.8167 47.8325H70.9159C70.9382 47.8326 70.9596 47.8414 70.9754 47.8571C70.9912 47.8728 71.0001 47.8941 71.0002 47.9163Z" fill="#3F3D56"/>
</g>
<defs>
<clipPath id="clip0_437_1967">
<rect width="71" height="48" fill="white"/>
</clipPath>
</defs>
</svg>
