<svg width="37" height="32" viewBox="0 0 37 32" fill="none" xmlns="http://www.w3.org/2000/svg">
<path d="M35.1728 32H1.82825C1.50283 32 1.18689 31.9181 0.913073 31.7617L0.781431 31.687V31.6777C0.567643 31.5295 0.386503 31.3347 0.249594 31.1047C0.0863576 30.8249 0 30.515 0 30.2073C0 29.8995 0.0863576 29.5896 0.249594 29.3109L8.9201 14.5368L16.924 0.898446C17.0788 0.634197 17.2905 0.418653 17.5527 0.259067L17.5822 0.241451C17.8613 0.0818653 18.1772 0 18.5026 0C18.827 0 19.1419 0.0818653 19.4157 0.238342L20.2645 0.721244H19.9623C19.9739 0.736788 19.9855 0.752332 19.997 0.768912H20.0023L20.0571 0.860104C20.0655 0.872539 20.0729 0.88601 20.0802 0.899482L36.7367 29.2881L36.7462 29.3036C36.9136 29.5886 37 29.8995 37 30.2073C37 30.515 36.9136 30.8249 36.7515 31.1036C36.5977 31.3658 36.3829 31.5845 36.128 31.7358L36.088 31.7627C35.8142 31.9181 35.4972 32 35.1728 32ZM1.27219 31.3627C1.4428 31.4415 1.62921 31.4819 1.82825 31.4819H35.1728C35.4045 31.4819 35.6204 31.4269 35.8142 31.3192L35.85 31.2953C36.0332 31.1876 36.1838 31.0363 36.2955 30.8446C36.4145 30.6415 36.4745 30.4269 36.4745 30.2062C36.4745 29.9855 36.4145 29.771 36.2955 29.5689L36.286 29.5534L19.6232 1.15751L19.8507 1.02798L19.6221 1.15544C19.5084 0.959585 19.3451 0.796891 19.1503 0.68601L19.1092 0.663212C18.9239 0.566839 18.7206 0.518135 18.5026 0.518135C18.2667 0.518135 18.0477 0.57513 17.8518 0.68601L17.8286 0.699482C17.6422 0.812435 17.4906 0.966839 17.38 1.15648L9.37611 14.7959L0.705604 29.5689C0.5866 29.772 0.52657 29.9865 0.52657 30.2073C0.52657 30.428 0.5866 30.6425 0.705604 30.8456C0.823556 31.0446 0.982581 31.2021 1.17636 31.3119L1.22796 31.3409L1.22691 30.913C1.14582 30.8446 1.07631 30.7606 1.01944 30.6632C0.937295 30.5285 0.89201 30.3689 0.89201 30.2062C0.89201 30.0435 0.935189 29.8881 1.02155 29.7451L9.6889 14.9731L17.6938 1.33472C17.7718 1.20104 17.8802 1.08808 18.0056 1.01036L18.0456 0.989637C18.2004 0.904663 18.3836 0.866321 18.5732 0.879793V0.594819L19.0008 1.01451C19.0819 1.06425 19.1545 1.1285 19.2177 1.20518H19.2314L19.3093 1.33472L35.9721 29.7306L35.9848 29.7544C36.0669 29.8953 36.109 30.0466 36.109 30.2062C36.109 30.3679 36.0638 30.5275 35.9785 30.6674C35.8995 30.801 35.7931 30.913 35.6709 30.9886L35.633 31.0083C35.4993 31.0819 35.3403 31.1212 35.1728 31.1212H1.82825C1.73347 31.1212 1.64079 31.1088 1.55444 31.0839L1.27219 31.3627ZM1.60604 30.5471L1.62289 30.5565C1.67871 30.5876 1.74927 30.6052 1.82825 30.6052H35.1728C35.2507 30.6052 35.3223 30.5886 35.3782 30.5565L35.3992 30.5461C35.4456 30.514 35.4898 30.4663 35.5256 30.4052C35.5635 30.343 35.5825 30.2756 35.5825 30.2073C35.5825 30.1389 35.5635 30.0725 35.5267 30.0104L35.5088 29.9772L18.9218 1.70777L18.8533 1.59482C18.8196 1.53782 18.7796 1.49326 18.7343 1.46218L18.7038 1.44456C18.5911 1.37927 18.4121 1.38031 18.2983 1.44456L18.2741 1.45699C18.2257 1.49016 18.1835 1.53679 18.1509 1.59275V1.59378L10.1449 15.2321L1.47545 30.0073C1.43648 30.0715 1.41858 30.1378 1.41858 30.2062C1.41858 30.2746 1.43754 30.342 1.47334 30.401C1.51126 30.4663 1.55549 30.514 1.60604 30.5471ZM19.9117 27.4902H17.1009C16.7102 27.4902 16.3921 27.1772 16.3921 26.7927V23.7855C16.3921 23.4 16.7102 23.087 17.1009 23.087H19.9117C20.3035 23.087 20.6216 23.401 20.6216 23.7855V26.7927C20.6216 27.1782 20.3035 27.4902 19.9117 27.4902ZM16.9198 24.6922V26.7938C16.9198 26.8943 16.9998 26.9731 17.102 26.9731H19.9128C20.0139 26.9731 20.096 26.8933 20.096 26.7938V24.8249L19.7959 26.8922H17.1135L16.9198 24.6922ZM17.8097 26.0964H19.2051V24.4829H17.8097V26.0964ZM17.1009 23.6062C16.9987 23.6062 16.9187 23.686 16.9187 23.7865V24.0259L19.2261 23.6052H17.1009V23.6062ZM19.8464 22.0477H17.1241C16.7323 22.0477 16.4143 21.7337 16.4143 21.3492L16.4164 21.313L16.2426 10.4041C16.2384 10.1088 16.4227 9.85285 16.686 9.74819V9.69741L16.9493 9.69637H20.0529C20.4436 9.69637 20.7616 10.0093 20.7616 10.3948C20.7616 10.4166 20.7606 10.4363 20.7574 10.458L20.5542 21.3606C20.5499 21.6456 20.3667 21.8922 20.1108 21.9938V22.0446L19.8464 22.0477ZM16.9471 21.399C16.9693 21.4746 17.0398 21.5295 17.123 21.5295L19.8454 21.5254C19.9265 21.5254 19.996 21.4715 20.0181 21.3979H19.3673L19.0566 21.5119L18.5469 21.3979H16.9471V21.399ZM18.609 20.8808H19.2735L19.6147 20.7554L19.342 11.0953L17.3168 11.1347L17.8139 20.7026L18.609 20.8808ZM16.7892 10.3109H20.2129C20.1824 10.2539 20.1213 10.2145 20.0518 10.2145L16.9482 10.2155C16.8787 10.2166 16.8197 10.2549 16.7892 10.3109Z" fill="#95EF76"/>
</svg>
