<svg width="91" height="80" viewBox="0 0 91 80" fill="none" xmlns="http://www.w3.org/2000/svg">
<rect x="3.20001" y="36" width="84" height="36" rx="12" fill="#95EF76"/>
<g clip-path="url(#clip0_69_151)">
<path d="M29.0426 37.2614L30.8263 29.5764L36.789 35.7664L29.0426 37.2614Z" fill="#8DE66C"/>
<path d="M64.1946 19.8487C64.1946 30.2018 55.8017 38.5947 45.4486 38.5947C35.0955 38.5947 26.7027 30.2018 26.7027 19.8487C26.7027 9.49563 35.0955 1.10278 45.4486 1.10278C55.8017 1.10278 64.1946 9.49563 64.1946 19.8487Z" fill="#8DE66C"/>
<path d="M28.4819 30.3236C26.2491 26.4667 25.3569 21.9842 25.9435 17.5712C26.53 13.1581 28.5627 9.06091 31.7264 5.91494C34.89 2.76896 39.0078 0.749934 43.4414 0.170888C47.8749 -0.408157 52.3765 0.485132 56.2482 2.71226C60.1199 4.93938 63.1454 8.37591 64.8556 12.489C66.5658 16.6021 66.8651 21.1621 65.7072 25.4618C64.5493 29.7615 61.9988 33.5608 58.4512 36.2706C54.9036 38.9804 50.557 40.4494 46.0855 40.4497H46.0773C42.6857 40.4491 39.3483 39.603 36.3695 37.9886L25.6 40.8007L28.4819 30.3236ZM37.4845 34.6928C40.0861 36.2269 43.0544 37.0359 46.0781 37.035H46.0846C49.8271 37.0341 53.4633 35.7953 56.4215 33.5131C59.3797 31.2309 61.4922 28.0347 62.4271 24.4271C63.3619 20.8194 63.066 17.0048 61.5859 13.5828C60.1057 10.1608 57.5253 7.32542 54.2502 5.52243C50.9751 3.71943 47.191 3.05102 43.4928 3.62225C39.7945 4.19348 36.3918 5.97197 33.8195 8.67815C31.2471 11.3843 29.651 14.8648 29.2821 18.5724C28.9131 22.28 29.7922 26.0046 31.7811 29.1606L32.1828 29.7959L30.4772 35.9958L36.8677 34.3279L37.4845 34.6928ZM49.4002 29.6436C48.4175 29.3398 47.4517 28.9845 46.5068 28.5792C41.4144 26.3909 38.0899 21.2888 37.8355 20.9516C37.5811 20.6145 35.7625 18.212 35.7625 15.7257C35.7484 14.939 35.899 14.1579 36.2048 13.4323C36.5106 12.7067 36.9648 12.0525 37.5385 11.5112C37.7082 11.3186 37.9161 11.163 38.1491 11.0543C38.3821 10.9455 38.6351 10.8859 38.8924 10.8793C39.2302 10.8793 39.5689 10.8793 39.865 10.8964C39.901 10.8964 39.9395 10.8964 39.9788 10.8964C40.2749 10.8964 40.643 10.8964 41.0062 11.7629C41.4291 12.7744 42.4443 15.2647 42.5711 15.5139C42.6516 15.6464 42.6975 15.7967 42.7048 15.9513C42.7121 16.1059 42.6805 16.2598 42.6129 16.3992C42.4852 16.7029 42.3144 16.9868 42.1057 17.2421C41.8513 17.5377 41.5723 17.9009 41.3441 18.1273C41.0897 18.3798 40.8254 18.6526 41.1216 19.1583C41.8842 20.4581 42.8361 21.6382 43.9463 22.6602C45.1503 23.7258 46.5316 24.5744 48.0283 25.1677C48.5363 25.421 48.8316 25.3786 49.1278 25.0407C49.4239 24.7027 50.3966 23.5658 50.7352 23.0601C51.0739 22.5543 51.4118 22.639 51.8805 22.8076C52.3492 22.9762 54.841 24.1978 55.349 24.451C55.857 24.7043 56.1949 24.8305 56.3217 25.0407C56.4609 25.8531 56.3579 26.6883 56.0255 27.4431C55.6026 28.6223 53.5714 29.7006 52.5996 29.8455C52.1919 29.9082 51.7801 29.9406 51.3676 29.9425C50.7002 29.9448 50.0365 29.844 49.4002 29.6436Z" fill="white"/>
</g>
<path d="M15.7667 53.12C15.0534 53.12 14.4067 52.9667 13.8267 52.66C13.2534 52.3467 12.8001 51.9167 12.4667 51.37C12.1401 50.8167 11.9767 50.1933 11.9767 49.5C11.9767 48.8067 12.1401 48.1867 12.4667 47.64C12.8001 47.0867 13.2534 46.6567 13.8267 46.35C14.4067 46.0367 15.0567 45.88 15.7767 45.88C16.3834 45.88 16.9301 45.9867 17.4167 46.2C17.9101 46.4133 18.3234 46.72 18.6567 47.12L17.6167 48.08C17.1434 47.5333 16.5567 47.26 15.8567 47.26C15.4234 47.26 15.0367 47.3567 14.6967 47.55C14.3567 47.7367 14.0901 48 13.8967 48.34C13.7101 48.68 13.6167 49.0667 13.6167 49.5C13.6167 49.9333 13.7101 50.32 13.8967 50.66C14.0901 51 14.3567 51.2667 14.6967 51.46C15.0367 51.6467 15.4234 51.74 15.8567 51.74C16.5567 51.74 17.1434 51.4633 17.6167 50.91L18.6567 51.87C18.3234 52.2767 17.9101 52.5867 17.4167 52.8C16.9234 53.0133 16.3734 53.12 15.7667 53.12ZM22.0152 53.08C21.4485 53.08 20.9385 52.9633 20.4852 52.73C20.0385 52.49 19.6885 52.16 19.4352 51.74C19.1818 51.32 19.0552 50.8433 19.0552 50.31C19.0552 49.7767 19.1818 49.3 19.4352 48.88C19.6885 48.46 20.0385 48.1333 20.4852 47.9C20.9385 47.66 21.4485 47.54 22.0152 47.54C22.5818 47.54 23.0885 47.66 23.5352 47.9C23.9818 48.1333 24.3318 48.46 24.5852 48.88C24.8385 49.3 24.9652 49.7767 24.9652 50.31C24.9652 50.8433 24.8385 51.32 24.5852 51.74C24.3318 52.16 23.9818 52.49 23.5352 52.73C23.0885 52.9633 22.5818 53.08 22.0152 53.08ZM22.0152 51.8C22.4152 51.8 22.7418 51.6667 22.9952 51.4C23.2552 51.1267 23.3852 50.7633 23.3852 50.31C23.3852 49.8567 23.2552 49.4967 22.9952 49.23C22.7418 48.9567 22.4152 48.82 22.0152 48.82C21.6152 48.82 21.2852 48.9567 21.0252 49.23C20.7652 49.4967 20.6352 49.8567 20.6352 50.31C20.6352 50.7633 20.7652 51.1267 21.0252 51.4C21.2852 51.6667 21.6152 51.8 22.0152 51.8ZM32.8979 47.54C33.5712 47.54 34.1046 47.74 34.4979 48.14C34.8979 48.5333 35.0979 49.1267 35.0979 49.92V53H33.5379V50.16C33.5379 49.7333 33.4479 49.4167 33.2679 49.21C33.0946 48.9967 32.8446 48.89 32.5179 48.89C32.1512 48.89 31.8612 49.01 31.6479 49.25C31.4346 49.4833 31.3279 49.8333 31.3279 50.3V53H29.7679V50.16C29.7679 49.3133 29.4279 48.89 28.7479 48.89C28.3879 48.89 28.1012 49.01 27.8879 49.25C27.6746 49.4833 27.5679 49.8333 27.5679 50.3V53H26.0079V47.62H27.4979V48.24C27.6979 48.0133 27.9412 47.84 28.2279 47.72C28.5212 47.6 28.8412 47.54 29.1879 47.54C29.5679 47.54 29.9112 47.6167 30.2179 47.77C30.5246 47.9167 30.7712 48.1333 30.9579 48.42C31.1779 48.14 31.4546 47.9233 31.7879 47.77C32.1279 47.6167 32.4979 47.54 32.8979 47.54ZM39.6762 47.54C40.1762 47.54 40.6295 47.6567 41.0362 47.89C41.4495 48.1167 41.7728 48.44 42.0062 48.86C42.2395 49.2733 42.3562 49.7567 42.3562 50.31C42.3562 50.8633 42.2395 51.35 42.0062 51.77C41.7728 52.1833 41.4495 52.5067 41.0362 52.74C40.6295 52.9667 40.1762 53.08 39.6762 53.08C38.9895 53.08 38.4495 52.8633 38.0562 52.43V54.94H36.4962V47.62H37.9862V48.24C38.3728 47.7733 38.9362 47.54 39.6762 47.54ZM39.4062 51.8C39.8062 51.8 40.1328 51.6667 40.3862 51.4C40.6462 51.1267 40.7762 50.7633 40.7762 50.31C40.7762 49.8567 40.6462 49.4967 40.3862 49.23C40.1328 48.9567 39.8062 48.82 39.4062 48.82C39.0062 48.82 38.6762 48.9567 38.4162 49.23C38.1628 49.4967 38.0362 49.8567 38.0362 50.31C38.0362 50.7633 38.1628 51.1267 38.4162 51.4C38.6762 51.6667 39.0062 51.8 39.4062 51.8ZM44.8905 48.33C45.0771 48.07 45.3271 47.8733 45.6405 47.74C45.9605 47.6067 46.3271 47.54 46.7405 47.54V48.98C46.5671 48.9667 46.4505 48.96 46.3905 48.96C45.9438 48.96 45.5938 49.0867 45.3405 49.34C45.0871 49.5867 44.9605 49.96 44.9605 50.46V53H43.4005V47.62H44.8905V48.33ZM52.8892 50.33C52.8892 50.35 52.8792 50.49 52.8592 50.75H48.7892C48.8626 51.0833 49.0359 51.3467 49.3092 51.54C49.5826 51.7333 49.9226 51.83 50.3292 51.83C50.6092 51.83 50.8559 51.79 51.0692 51.71C51.2892 51.6233 51.4926 51.49 51.6792 51.31L52.5092 52.21C52.0026 52.79 51.2626 53.08 50.2892 53.08C49.6826 53.08 49.1459 52.9633 48.6792 52.73C48.2126 52.49 47.8526 52.16 47.5992 51.74C47.3459 51.32 47.2192 50.8433 47.2192 50.31C47.2192 49.7833 47.3426 49.31 47.5892 48.89C47.8426 48.4633 48.1859 48.1333 48.6192 47.9C49.0592 47.66 49.5492 47.54 50.0892 47.54C50.6159 47.54 51.0926 47.6533 51.5192 47.88C51.9459 48.1067 52.2792 48.4333 52.5192 48.86C52.7659 49.28 52.8892 49.77 52.8892 50.33ZM50.0992 48.72C49.7459 48.72 49.4492 48.82 49.2092 49.02C48.9692 49.22 48.8226 49.4933 48.7692 49.84H51.4192C51.3659 49.5 51.2192 49.23 50.9792 49.03C50.7392 48.8233 50.4459 48.72 50.0992 48.72ZM59.9398 47.54C60.4398 47.54 60.8932 47.6567 61.2998 47.89C61.7132 48.1167 62.0365 48.44 62.2698 48.86C62.5032 49.2733 62.6198 49.7567 62.6198 50.31C62.6198 50.8633 62.5032 51.35 62.2698 51.77C62.0365 52.1833 61.7132 52.5067 61.2998 52.74C60.8932 52.9667 60.4398 53.08 59.9398 53.08C59.2532 53.08 58.7132 52.8633 58.3198 52.43V54.94H56.7598V47.62H58.2498V48.24C58.6365 47.7733 59.1998 47.54 59.9398 47.54ZM59.6698 51.8C60.0698 51.8 60.3965 51.6667 60.6498 51.4C60.9098 51.1267 61.0398 50.7633 61.0398 50.31C61.0398 49.8567 60.9098 49.4967 60.6498 49.23C60.3965 48.9567 60.0698 48.82 59.6698 48.82C59.2698 48.82 58.9398 48.9567 58.6798 49.23C58.4265 49.4967 58.2998 49.8567 58.2998 50.31C58.2998 50.7633 58.4265 51.1267 58.6798 51.4C58.9398 51.6667 59.2698 51.8 59.6698 51.8ZM68.9341 50.33C68.9341 50.35 68.9241 50.49 68.9041 50.75H64.8341C64.9075 51.0833 65.0808 51.3467 65.3541 51.54C65.6275 51.7333 65.9675 51.83 66.3741 51.83C66.6541 51.83 66.9008 51.79 67.1141 51.71C67.3341 51.6233 67.5375 51.49 67.7241 51.31L68.5541 52.21C68.0475 52.79 67.3075 53.08 66.3341 53.08C65.7275 53.08 65.1908 52.9633 64.7241 52.73C64.2575 52.49 63.8975 52.16 63.6441 51.74C63.3908 51.32 63.2641 50.8433 63.2641 50.31C63.2641 49.7833 63.3875 49.31 63.6341 48.89C63.8875 48.4633 64.2308 48.1333 64.6641 47.9C65.1041 47.66 65.5941 47.54 66.1341 47.54C66.6608 47.54 67.1375 47.6533 67.5641 47.88C67.9908 48.1067 68.3241 48.4333 68.5641 48.86C68.8108 49.28 68.9341 49.77 68.9341 50.33ZM66.1441 48.72C65.7908 48.72 65.4941 48.82 65.2541 49.02C65.0141 49.22 64.8675 49.4933 64.8141 49.84H67.4641C67.4108 49.5 67.2641 49.23 67.0241 49.03C66.7841 48.8233 66.4908 48.72 66.1441 48.72ZM69.9727 45.58H71.5327V53H69.9727V45.58ZM75.5405 53.08C74.9739 53.08 74.4639 52.9633 74.0105 52.73C73.5639 52.49 73.2139 52.16 72.9605 51.74C72.7072 51.32 72.5805 50.8433 72.5805 50.31C72.5805 49.7767 72.7072 49.3 72.9605 48.88C73.2139 48.46 73.5639 48.1333 74.0105 47.9C74.4639 47.66 74.9739 47.54 75.5405 47.54C76.1072 47.54 76.6139 47.66 77.0605 47.9C77.5072 48.1333 77.8572 48.46 78.1105 48.88C78.3639 49.3 78.4905 49.7767 78.4905 50.31C78.4905 50.8433 78.3639 51.32 78.1105 51.74C77.8572 52.16 77.5072 52.49 77.0605 52.73C76.6139 52.9633 76.1072 53.08 75.5405 53.08ZM75.5405 51.8C75.9405 51.8 76.2672 51.6667 76.5205 51.4C76.7805 51.1267 76.9105 50.7633 76.9105 50.31C76.9105 49.8567 76.7805 49.4967 76.5205 49.23C76.2672 48.9567 75.9405 48.82 75.5405 48.82C75.1405 48.82 74.8105 48.9567 74.5505 49.23C74.2905 49.4967 74.1605 49.8567 74.1605 50.31C74.1605 50.7633 74.2905 51.1267 74.5505 51.4C74.8105 51.6667 75.1405 51.8 75.5405 51.8ZM28.6901 57L26.4001 64H24.6601L23.1201 59.26L21.5301 64H19.8001L17.5001 57H19.1801L20.7601 61.92L22.4101 57H23.9101L25.5101 61.96L27.1401 57H28.6901ZM32.9009 58.54C33.5676 58.54 34.1043 58.74 34.5109 59.14C34.9243 59.54 35.1309 60.1333 35.1309 60.92V64H33.5709V61.16C33.5709 60.7333 33.4776 60.4167 33.2909 60.21C33.1043 59.9967 32.8343 59.89 32.4809 59.89C32.0876 59.89 31.7743 60.0133 31.5409 60.26C31.3076 60.5 31.1909 60.86 31.1909 61.34V64H29.6309V56.58H31.1909V59.18C31.3976 58.9733 31.6476 58.8167 31.9409 58.71C32.2343 58.5967 32.5543 58.54 32.9009 58.54ZM38.715 58.54C39.5483 58.54 40.1883 58.74 40.635 59.14C41.0817 59.5333 41.305 60.13 41.305 60.93V64H39.845V63.33C39.5517 63.83 39.005 64.08 38.205 64.08C37.7917 64.08 37.4317 64.01 37.125 63.87C36.825 63.73 36.595 63.5367 36.435 63.29C36.275 63.0433 36.195 62.7633 36.195 62.45C36.195 61.95 36.3817 61.5567 36.755 61.27C37.135 60.9833 37.7183 60.84 38.505 60.84H39.745C39.745 60.5 39.6417 60.24 39.435 60.06C39.2283 59.8733 38.9183 59.78 38.505 59.78C38.2183 59.78 37.935 59.8267 37.655 59.92C37.3817 60.0067 37.1483 60.1267 36.955 60.28L36.395 59.19C36.6883 58.9833 37.0383 58.8233 37.445 58.71C37.8583 58.5967 38.2817 58.54 38.715 58.54ZM38.595 63.03C38.8617 63.03 39.0983 62.97 39.305 62.85C39.5117 62.7233 39.6583 62.54 39.745 62.3V61.75H38.675C38.035 61.75 37.715 61.96 37.715 62.38C37.715 62.58 37.7917 62.74 37.945 62.86C38.105 62.9733 38.3217 63.03 38.595 63.03ZM46.1869 63.74C46.0335 63.8533 45.8435 63.94 45.6169 64C45.3969 64.0533 45.1635 64.08 44.9169 64.08C44.2769 64.08 43.7802 63.9167 43.4269 63.59C43.0802 63.2633 42.9069 62.7833 42.9069 62.15V59.94H42.0769V58.74H42.9069V57.43H44.4669V58.74H45.8069V59.94H44.4669V62.13C44.4669 62.3567 44.5235 62.5333 44.6369 62.66C44.7569 62.78 44.9235 62.84 45.1369 62.84C45.3835 62.84 45.5935 62.7733 45.7669 62.64L46.1869 63.74ZM48.8726 64.08C48.4259 64.08 47.9892 64.0267 47.5626 63.92C47.1359 63.8067 46.7959 63.6667 46.5426 63.5L47.0626 62.38C47.3026 62.5333 47.5926 62.66 47.9326 62.76C48.2726 62.8533 48.6059 62.9 48.9326 62.9C49.5926 62.9 49.9226 62.7367 49.9226 62.41C49.9226 62.2567 49.8326 62.1467 49.6526 62.08C49.4726 62.0133 49.1959 61.9567 48.8226 61.91C48.3826 61.8433 48.0192 61.7667 47.7326 61.68C47.4459 61.5933 47.1959 61.44 46.9826 61.22C46.7759 61 46.6726 60.6867 46.6726 60.28C46.6726 59.94 46.7692 59.64 46.9626 59.38C47.1626 59.1133 47.4492 58.9067 47.8226 58.76C48.2026 58.6133 48.6492 58.54 49.1626 58.54C49.5426 58.54 49.9192 58.5833 50.2926 58.67C50.6726 58.75 50.9859 58.8633 51.2326 59.01L50.7126 60.12C50.2392 59.8533 49.7226 59.72 49.1626 59.72C48.8292 59.72 48.5792 59.7667 48.4126 59.86C48.2459 59.9533 48.1626 60.0733 48.1626 60.22C48.1626 60.3867 48.2526 60.5033 48.4326 60.57C48.6126 60.6367 48.8992 60.7 49.2926 60.76C49.7326 60.8333 50.0926 60.9133 50.3726 61C50.6526 61.08 50.8959 61.23 51.1026 61.45C51.3092 61.67 51.4126 61.9767 51.4126 62.37C51.4126 62.7033 51.3126 63 51.1126 63.26C50.9126 63.52 50.6192 63.7233 50.2326 63.87C49.8526 64.01 49.3992 64.08 48.8726 64.08ZM57.0951 62.5H53.8451L53.2251 64H51.5651L54.6851 57H56.2851L59.4151 64H57.7151L57.0951 62.5ZM56.5851 61.27L55.4751 58.59L54.3651 61.27H56.5851ZM63.2113 58.54C63.7113 58.54 64.1647 58.6567 64.5713 58.89C64.9847 59.1167 65.308 59.44 65.5413 59.86C65.7747 60.2733 65.8913 60.7567 65.8913 61.31C65.8913 61.8633 65.7747 62.35 65.5413 62.77C65.308 63.1833 64.9847 63.5067 64.5713 63.74C64.1647 63.9667 63.7113 64.08 63.2113 64.08C62.5247 64.08 61.9847 63.8633 61.5913 63.43V65.94H60.0313V58.62H61.5213V59.24C61.908 58.7733 62.4713 58.54 63.2113 58.54ZM62.9413 62.8C63.3413 62.8 63.668 62.6667 63.9213 62.4C64.1813 62.1267 64.3113 61.7633 64.3113 61.31C64.3113 60.8567 64.1813 60.4967 63.9213 60.23C63.668 59.9567 63.3413 59.82 62.9413 59.82C62.5413 59.82 62.2113 59.9567 61.9513 60.23C61.698 60.4967 61.5713 60.8567 61.5713 61.31C61.5713 61.7633 61.698 62.1267 61.9513 62.4C62.2113 62.6667 62.5413 62.8 62.9413 62.8ZM70.1156 58.54C70.6156 58.54 71.069 58.6567 71.4756 58.89C71.889 59.1167 72.2123 59.44 72.4456 59.86C72.679 60.2733 72.7956 60.7567 72.7956 61.31C72.7956 61.8633 72.679 62.35 72.4456 62.77C72.2123 63.1833 71.889 63.5067 71.4756 63.74C71.069 63.9667 70.6156 64.08 70.1156 64.08C69.429 64.08 68.889 63.8633 68.4956 63.43V65.94H66.9356V58.62H68.4256V59.24C68.8123 58.7733 69.3756 58.54 70.1156 58.54ZM69.8456 62.8C70.2456 62.8 70.5723 62.6667 70.8256 62.4C71.0856 62.1267 71.2156 61.7633 71.2156 61.31C71.2156 60.8567 71.0856 60.4967 70.8256 60.23C70.5723 59.9567 70.2456 59.82 69.8456 59.82C69.4456 59.82 69.1156 59.9567 68.8556 60.23C68.6023 60.4967 68.4756 60.8567 68.4756 61.31C68.4756 61.7633 68.6023 62.1267 68.8556 62.4C69.1156 62.6667 69.4456 62.8 69.8456 62.8Z" fill="white"/>
<defs>
<clipPath id="clip0_69_151">
<rect width="40.8" height="40.8" fill="white" transform="translate(25.6)"/>
</clipPath>
</defs>
</svg>
