<svg xmlns="http://www.w3.org/2000/svg" xmlns:xlink="http://www.w3.org/1999/xlink" width="1920" zoomAndPan="magnify" viewBox="0 0 1440 809.999993" height="1080" preserveAspectRatio="xMidYMid meet" version="1.0"><path fill="#90e0ef" d="M 819.15625 290.199219 L 620.84375 290.199219 C 619.257812 290.203125 617.675781 290.28125 616.097656 290.4375 C 614.519531 290.59375 612.953125 290.828125 611.398438 291.140625 C 609.84375 291.449219 608.304688 291.835938 606.789062 292.296875 C 605.269531 292.757812 603.777344 293.292969 602.3125 293.902344 C 600.847656 294.507812 599.417969 295.1875 598.019531 295.933594 C 596.621094 296.683594 595.261719 297.5 593.941406 298.378906 C 592.625 299.261719 591.351562 300.207031 590.125 301.210938 C 588.898438 302.21875 587.726562 303.28125 586.605469 304.402344 C 585.480469 305.527344 584.417969 306.699219 583.410156 307.925781 C 582.40625 309.152344 581.460938 310.421875 580.578125 311.742188 C 579.699219 313.0625 578.882812 314.417969 578.136719 315.816406 C 577.386719 317.21875 576.707031 318.648438 576.101562 320.113281 C 575.492188 321.578125 574.957031 323.070312 574.496094 324.589844 C 574.035156 326.105469 573.648438 327.640625 573.339844 329.199219 C 573.027344 330.753906 572.792969 332.320312 572.636719 333.898438 C 572.480469 335.476562 572.402344 337.058594 572.398438 338.644531 L 572.398438 471.355469 C 572.402344 472.941406 572.480469 474.523438 572.636719 476.101562 C 572.792969 477.679688 573.027344 479.246094 573.339844 480.800781 C 573.648438 482.359375 574.035156 483.894531 574.496094 485.410156 C 574.957031 486.929688 575.492188 488.421875 576.101562 489.886719 C 576.707031 491.351562 577.386719 492.78125 578.136719 494.183594 C 578.882812 495.582031 579.699219 496.9375 580.578125 498.257812 C 581.460938 499.578125 582.40625 500.847656 583.410156 502.074219 C 584.417969 503.300781 585.480469 504.476562 586.605469 505.597656 C 587.726562 506.71875 588.898438 507.78125 590.125 508.789062 C 591.351562 509.792969 592.625 510.738281 593.941406 511.621094 C 595.261719 512.5 596.621094 513.316406 598.019531 514.066406 C 599.417969 514.8125 600.847656 515.492188 602.3125 516.097656 C 603.777344 516.707031 605.269531 517.242188 606.789062 517.703125 C 608.304688 518.164062 609.84375 518.550781 611.398438 518.859375 C 612.953125 519.171875 614.519531 519.40625 616.097656 519.5625 C 617.675781 519.71875 619.257812 519.796875 620.84375 519.800781 L 819.15625 519.800781 C 820.742188 519.796875 822.324219 519.71875 823.902344 519.5625 C 825.480469 519.40625 827.046875 519.171875 828.601562 518.859375 C 830.15625 518.550781 831.695312 518.164062 833.210938 517.703125 C 834.730469 517.242188 836.222656 516.707031 837.6875 516.097656 C 839.152344 515.492188 840.582031 514.8125 841.980469 514.066406 C 843.378906 513.316406 844.738281 512.5 846.058594 511.621094 C 847.375 510.738281 848.648438 509.792969 849.875 508.789062 C 851.101562 507.78125 852.273438 506.71875 853.394531 505.597656 C 854.519531 504.472656 855.582031 503.300781 856.589844 502.074219 C 857.59375 500.847656 858.539062 499.578125 859.421875 498.257812 C 860.300781 496.9375 861.117188 495.582031 861.863281 494.183594 C 862.613281 492.78125 863.292969 491.351562 863.898438 489.886719 C 864.507812 488.421875 865.042969 486.929688 865.503906 485.410156 C 865.964844 483.894531 866.351562 482.359375 866.660156 480.800781 C 866.972656 479.246094 867.207031 477.679688 867.363281 476.101562 C 867.519531 474.523438 867.597656 472.941406 867.601562 471.355469 L 867.601562 338.644531 C 867.597656 337.058594 867.519531 335.476562 867.363281 333.898438 C 867.207031 332.320312 866.972656 330.753906 866.660156 329.199219 C 866.351562 327.640625 865.964844 326.105469 865.503906 324.589844 C 865.042969 323.070312 864.507812 321.578125 863.898438 320.113281 C 863.292969 318.648438 862.613281 317.21875 861.863281 315.816406 C 861.117188 314.417969 860.300781 313.0625 859.421875 311.742188 C 858.539062 310.421875 857.59375 309.152344 856.589844 307.925781 C 855.582031 306.699219 854.519531 305.523438 853.394531 304.402344 C 852.273438 303.28125 851.101562 302.21875 849.875 301.210938 C 848.648438 300.207031 847.375 299.261719 846.058594 298.378906 C 844.738281 297.5 843.378906 296.683594 841.980469 295.933594 C 840.582031 295.1875 839.152344 294.507812 837.6875 293.902344 C 836.222656 293.292969 834.730469 292.757812 833.210938 292.296875 C 831.695312 291.835938 830.15625 291.449219 828.601562 291.140625 C 827.046875 290.828125 825.480469 290.59375 823.902344 290.4375 C 822.324219 290.28125 820.742188 290.203125 819.15625 290.199219 Z M 620.84375 323 L 819.15625 323 C 820.179688 323 821.199219 323.101562 822.207031 323.304688 C 823.210938 323.503906 824.191406 323.800781 825.140625 324.195312 C 826.085938 324.589844 826.988281 325.070312 827.84375 325.640625 C 828.695312 326.210938 829.488281 326.859375 830.210938 327.585938 C 830.9375 328.3125 831.585938 329.101562 832.160156 329.957031 C 832.730469 330.8125 833.210938 331.710938 833.605469 332.660156 C 834 333.609375 834.296875 334.585938 834.496094 335.59375 C 834.699219 336.601562 834.800781 337.617188 834.800781 338.644531 L 834.800781 344.433594 L 720 387.484375 L 605.199219 344.433594 L 605.199219 338.644531 C 605.199219 337.617188 605.300781 336.601562 605.503906 335.59375 C 605.703125 334.585938 606 333.609375 606.394531 332.660156 C 606.789062 331.710938 607.269531 330.8125 607.839844 329.957031 C 608.414062 329.101562 609.0625 328.3125 609.789062 327.585938 C 610.511719 326.859375 611.304688 326.210938 612.15625 325.640625 C 613.011719 325.070312 613.914062 324.589844 614.859375 324.195312 C 615.808594 323.800781 616.789062 323.503906 617.792969 323.304688 C 618.800781 323.101562 619.820312 323 620.84375 323 Z M 819.15625 487 L 620.84375 487 C 619.820312 487 618.800781 486.898438 617.792969 486.695312 C 616.789062 486.496094 615.808594 486.199219 614.859375 485.804688 C 613.914062 485.410156 613.011719 484.929688 612.15625 484.359375 C 611.304688 483.789062 610.511719 483.140625 609.789062 482.414062 C 609.0625 481.6875 608.414062 480.898438 607.839844 480.042969 C 607.269531 479.1875 606.789062 478.289062 606.394531 477.339844 C 606 476.390625 605.703125 475.414062 605.503906 474.40625 C 605.300781 473.398438 605.199219 472.382812 605.199219 471.355469 L 605.199219 379.515625 L 714.242188 420.414062 C 716.09375 421.101562 718.007812 421.445312 719.984375 421.445312 C 721.957031 421.445312 723.871094 421.101562 725.722656 420.414062 L 834.800781 379.464844 L 834.800781 471.304688 C 834.800781 472.335938 834.703125 473.355469 834.503906 474.363281 C 834.304688 475.375 834.011719 476.355469 833.617188 477.304688 C 833.226562 478.257812 832.746094 479.160156 832.175781 480.015625 C 831.605469 480.875 830.957031 481.667969 830.230469 482.394531 C 829.503906 483.125 828.710938 483.773438 827.859375 484.347656 C 827.003906 484.921875 826.101562 485.40625 825.152344 485.800781 C 824.199219 486.195312 823.21875 486.492188 822.210938 486.695312 C 821.203125 486.898438 820.183594 487 819.15625 487 Z M 819.15625 487 " fill-opacity="1" fill-rule="nonzero"/><path fill="#90e0ef" d="M 720 159 C 715.972656 159 711.949219 159.097656 707.929688 159.296875 C 703.910156 159.492188 699.894531 159.789062 695.886719 160.183594 C 691.882812 160.578125 687.886719 161.070312 683.902344 161.664062 C 679.921875 162.253906 675.957031 162.941406 672.007812 163.726562 C 668.058594 164.511719 664.132812 165.394531 660.226562 166.371094 C 656.320312 167.351562 652.441406 168.425781 648.589844 169.59375 C 644.738281 170.761719 640.914062 172.023438 637.125 173.378906 C 633.335938 174.738281 629.578125 176.183594 625.859375 177.726562 C 622.140625 179.265625 618.460938 180.898438 614.820312 182.617188 C 611.183594 184.339844 607.585938 186.148438 604.035156 188.046875 C 600.484375 189.945312 596.984375 191.929688 593.53125 194 C 590.078125 196.070312 586.675781 198.222656 583.328125 200.457031 C 579.980469 202.695312 576.691406 205.011719 573.457031 207.410156 C 570.222656 209.808594 567.050781 212.285156 563.9375 214.839844 C 560.828125 217.394531 557.78125 220.023438 554.796875 222.726562 C 551.8125 225.429688 548.898438 228.203125 546.050781 231.050781 C 543.203125 233.898438 540.429688 236.8125 537.726562 239.796875 C 535.023438 242.78125 532.394531 245.828125 529.839844 248.9375 C 527.285156 252.050781 524.808594 255.222656 522.410156 258.457031 C 520.011719 261.691406 517.695312 264.980469 515.457031 268.328125 C 513.222656 271.675781 511.070312 275.078125 509 278.53125 C 506.929688 281.984375 504.945312 285.484375 503.046875 289.035156 C 501.148438 292.585938 499.339844 296.183594 497.617188 299.820312 C 495.898438 303.460938 494.265625 307.140625 492.726562 310.859375 C 491.183594 314.578125 489.738281 318.335938 488.378906 322.125 C 487.023438 325.914062 485.761719 329.738281 484.59375 333.589844 C 483.425781 337.441406 482.351562 341.320312 481.371094 345.226562 C 480.394531 349.132812 479.511719 353.058594 478.726562 357.007812 C 477.941406 360.957031 477.253906 364.921875 476.664062 368.902344 C 476.070312 372.886719 475.578125 376.882812 475.183594 380.886719 C 474.789062 384.894531 474.492188 388.910156 474.296875 392.929688 C 474.097656 396.949219 474 400.972656 474 405 C 474 409.027344 474.097656 413.050781 474.296875 417.070312 C 474.492188 421.089844 474.789062 425.105469 475.183594 429.113281 C 475.578125 433.117188 476.070312 437.113281 476.664062 441.09375 C 477.253906 445.078125 477.941406 449.042969 478.726562 452.992188 C 479.511719 456.941406 480.394531 460.867188 481.371094 464.773438 C 482.351562 468.679688 483.425781 472.558594 484.59375 476.410156 C 485.761719 480.261719 487.023438 484.085938 488.378906 487.875 C 489.738281 491.664062 491.183594 495.421875 492.726562 499.140625 C 494.265625 502.859375 495.898438 506.539062 497.617188 510.179688 C 499.339844 513.816406 501.148438 517.414062 503.046875 520.964844 C 504.945312 524.515625 506.929688 528.015625 509 531.46875 C 511.070312 534.921875 513.222656 538.324219 515.457031 541.671875 C 517.695312 545.019531 520.011719 548.308594 522.410156 551.542969 C 524.808594 554.777344 527.285156 557.949219 529.839844 561.0625 C 532.394531 564.171875 535.023438 567.21875 537.726562 570.203125 C 540.429688 573.1875 543.203125 576.101562 546.050781 578.949219 C 548.898438 581.796875 551.8125 584.570312 554.796875 587.273438 C 557.78125 589.976562 560.828125 592.605469 563.9375 595.160156 C 567.050781 597.714844 570.222656 600.191406 573.457031 602.589844 C 576.691406 604.988281 579.980469 607.304688 583.328125 609.542969 C 586.675781 611.777344 590.078125 613.929688 593.53125 616 C 596.984375 618.070312 600.484375 620.054688 604.035156 621.953125 C 607.585938 623.851562 611.183594 625.660156 614.820312 627.382812 C 618.460938 629.101562 622.140625 630.734375 625.859375 632.273438 C 629.578125 633.816406 633.335938 635.261719 637.125 636.621094 C 640.914062 637.976562 644.738281 639.238281 648.589844 640.40625 C 652.441406 641.574219 656.320312 642.648438 660.226562 643.628906 C 664.132812 644.605469 668.058594 645.488281 672.007812 646.273438 C 675.957031 647.058594 679.921875 647.746094 683.90625 648.335938 C 687.886719 648.929688 691.882812 649.421875 695.886719 649.816406 C 699.894531 650.210938 703.910156 650.507812 707.929688 650.703125 C 711.949219 650.902344 715.972656 651 720 651 C 724.027344 651 728.050781 650.902344 732.070312 650.703125 C 736.089844 650.507812 740.105469 650.210938 744.113281 649.816406 C 748.117188 649.421875 752.113281 648.929688 756.09375 648.335938 C 760.078125 647.746094 764.042969 647.058594 767.992188 646.273438 C 771.941406 645.488281 775.867188 644.605469 779.773438 643.628906 C 783.679688 642.648438 787.558594 641.574219 791.410156 640.40625 C 795.261719 639.238281 799.085938 637.976562 802.875 636.621094 C 806.664062 635.261719 810.421875 633.816406 814.140625 632.273438 C 817.859375 630.734375 821.539062 629.101562 825.179688 627.382812 C 828.816406 625.660156 832.414062 623.851562 835.964844 621.953125 C 839.515625 620.054688 843.015625 618.070312 846.46875 616 C 849.921875 613.929688 853.324219 611.777344 856.671875 609.542969 C 860.019531 607.304688 863.308594 604.988281 866.542969 602.589844 C 869.777344 600.191406 872.949219 597.714844 876.0625 595.160156 C 879.171875 592.605469 882.21875 589.976562 885.203125 587.273438 C 888.1875 584.570312 891.101562 581.796875 893.949219 578.949219 C 896.796875 576.101562 899.570312 573.1875 902.273438 570.203125 C 904.976562 567.21875 907.605469 564.171875 910.160156 561.0625 C 912.714844 557.949219 915.191406 554.777344 917.589844 551.542969 C 919.988281 548.308594 922.304688 545.019531 924.542969 541.671875 C 926.777344 538.324219 928.929688 534.921875 931 531.46875 C 933.070312 528.015625 935.054688 524.515625 936.953125 520.964844 C 938.851562 517.414062 940.660156 513.816406 942.382812 510.179688 C 944.101562 506.539062 945.734375 502.859375 947.273438 499.140625 C 948.816406 495.421875 950.261719 491.664062 951.621094 487.875 C 952.976562 484.085938 954.238281 480.261719 955.40625 476.410156 C 956.574219 472.558594 957.648438 468.679688 958.628906 464.773438 C 959.605469 460.867188 960.488281 456.941406 961.273438 452.992188 C 962.058594 449.042969 962.746094 445.078125 963.335938 441.09375 C 963.929688 437.113281 964.421875 433.117188 964.816406 429.113281 C 965.210938 425.105469 965.507812 421.089844 965.703125 417.070312 C 965.902344 413.050781 966 409.027344 966 405 C 965.996094 400.976562 965.890625 396.953125 965.691406 392.933594 C 965.488281 388.914062 965.1875 384.902344 964.789062 380.894531 C 964.390625 376.890625 963.894531 372.898438 963.300781 368.917969 C 962.707031 364.9375 962.015625 360.972656 961.226562 357.027344 C 960.4375 353.082031 959.554688 349.15625 958.574219 345.253906 C 957.59375 341.347656 956.515625 337.472656 955.34375 333.621094 C 954.171875 329.769531 952.910156 325.949219 951.550781 322.164062 C 950.191406 318.375 948.742188 314.621094 947.199219 310.902344 C 945.65625 307.1875 944.023438 303.507812 942.300781 299.871094 C 940.578125 296.234375 938.769531 292.640625 936.871094 289.089844 C 934.972656 285.542969 932.988281 282.042969 930.917969 278.589844 C 928.847656 275.140625 926.691406 271.742188 924.457031 268.394531 C 922.21875 265.050781 919.902344 261.761719 917.503906 258.527344 C 915.105469 255.296875 912.628906 252.125 910.074219 249.015625 C 907.523438 245.902344 904.894531 242.855469 902.191406 239.875 C 899.488281 236.894531 896.710938 233.980469 893.867188 231.132812 C 891.019531 228.289062 888.105469 225.511719 885.125 222.808594 C 882.144531 220.105469 879.097656 217.476562 875.984375 214.925781 C 872.875 212.371094 869.703125 209.894531 866.472656 207.496094 C 863.238281 205.097656 859.949219 202.78125 856.605469 200.542969 C 853.257812 198.308594 849.859375 196.152344 846.410156 194.082031 C 842.957031 192.011719 839.457031 190.027344 835.910156 188.128906 C 832.359375 186.230469 828.765625 184.421875 825.128906 182.699219 C 821.492188 180.976562 817.8125 179.34375 814.097656 177.800781 C 810.378906 176.257812 806.625 174.808594 802.835938 173.449219 C 799.050781 172.089844 795.230469 170.828125 791.378906 169.65625 C 787.527344 168.484375 783.652344 167.40625 779.75 166.425781 C 775.84375 165.445312 771.917969 164.5625 767.972656 163.773438 C 764.027344 162.984375 760.0625 162.292969 756.082031 161.699219 C 752.101562 161.105469 748.109375 160.609375 744.105469 160.210938 C 740.097656 159.8125 736.085938 159.511719 732.066406 159.308594 C 728.046875 159.109375 724.023438 159.003906 720 159 Z M 720 618.199219 C 716.511719 618.199219 713.023438 618.113281 709.539062 617.941406 C 706.054688 617.773438 702.574219 617.515625 699.101562 617.171875 C 695.628906 616.832031 692.167969 616.40625 688.71875 615.890625 C 685.265625 615.378906 681.828125 614.785156 678.40625 614.101562 C 674.984375 613.421875 671.582031 612.660156 668.195312 611.8125 C 664.8125 610.960938 661.449219 610.03125 658.109375 609.019531 C 654.773438 608.007812 651.460938 606.914062 648.175781 605.738281 C 644.890625 604.5625 641.636719 603.304688 638.410156 601.972656 C 635.1875 600.636719 632 599.222656 628.84375 597.730469 C 625.691406 596.238281 622.574219 594.671875 619.5 593.027344 C 616.421875 591.378906 613.386719 589.660156 610.394531 587.867188 C 607.402344 586.074219 604.453125 584.207031 601.550781 582.269531 C 598.652344 580.332031 595.800781 578.324219 592.996094 576.242188 C 590.195312 574.164062 587.445312 572.019531 584.746094 569.804688 C 582.050781 567.59375 579.410156 565.3125 576.824219 562.972656 C 574.238281 560.628906 571.710938 558.222656 569.246094 555.753906 C 566.777344 553.289062 564.371094 550.761719 562.027344 548.175781 C 559.6875 545.589844 557.40625 542.949219 555.195312 540.253906 C 552.980469 537.554688 550.835938 534.804688 548.757812 532.003906 C 546.675781 529.199219 544.667969 526.347656 542.730469 523.449219 C 540.792969 520.546875 538.925781 517.597656 537.132812 514.605469 C 535.339844 511.613281 533.621094 508.578125 531.972656 505.5 C 530.328125 502.425781 528.761719 499.308594 527.269531 496.15625 C 525.777344 493 524.363281 489.8125 523.027344 486.589844 C 521.695312 483.363281 520.4375 480.109375 519.261719 476.824219 C 518.085938 473.539062 516.992188 470.226562 515.980469 466.890625 C 514.96875 463.550781 514.039062 460.1875 513.1875 456.804688 C 512.339844 453.417969 511.578125 450.015625 510.898438 446.59375 C 510.214844 443.171875 509.621094 439.734375 509.109375 436.28125 C 508.59375 432.832031 508.167969 429.371094 507.828125 425.898438 C 507.484375 422.425781 507.226562 418.945312 507.058594 415.460938 C 506.886719 411.976562 506.800781 408.488281 506.800781 405 C 506.800781 401.511719 506.886719 398.023438 507.058594 394.539062 C 507.226562 391.054688 507.484375 387.574219 507.828125 384.101562 C 508.167969 380.628906 508.59375 377.167969 509.109375 373.71875 C 509.621094 370.265625 510.214844 366.828125 510.898438 363.40625 C 511.578125 359.984375 512.339844 356.582031 513.1875 353.195312 C 514.039062 349.8125 514.96875 346.449219 515.980469 343.109375 C 516.992188 339.773438 518.085938 336.460938 519.261719 333.175781 C 520.4375 329.890625 521.695312 326.636719 523.027344 323.410156 C 524.363281 320.1875 525.777344 317 527.269531 313.84375 C 528.761719 310.691406 530.328125 307.574219 531.972656 304.5 C 533.621094 301.421875 535.339844 298.386719 537.132812 295.394531 C 538.925781 292.402344 540.792969 289.453125 542.730469 286.550781 C 544.667969 283.652344 546.675781 280.800781 548.757812 277.996094 C 550.835938 275.195312 552.980469 272.445312 555.195312 269.746094 C 557.40625 267.050781 559.6875 264.410156 562.027344 261.824219 C 564.371094 259.238281 566.777344 256.710938 569.246094 254.246094 C 571.710938 251.777344 574.238281 249.371094 576.824219 247.027344 C 579.410156 244.6875 582.050781 242.40625 584.746094 240.195312 C 587.445312 237.980469 590.195312 235.835938 592.996094 233.757812 C 595.800781 231.675781 598.652344 229.667969 601.550781 227.730469 C 604.453125 225.792969 607.402344 223.925781 610.394531 222.132812 C 613.386719 220.339844 616.421875 218.621094 619.5 216.972656 C 622.574219 215.328125 625.691406 213.761719 628.84375 212.269531 C 632 210.777344 635.1875 209.363281 638.410156 208.027344 C 641.636719 206.695312 644.890625 205.4375 648.175781 204.261719 C 651.460938 203.085938 654.773438 201.992188 658.109375 200.980469 C 661.449219 199.96875 664.8125 199.039062 668.195312 198.1875 C 671.582031 197.339844 674.984375 196.578125 678.40625 195.898438 C 681.828125 195.214844 685.265625 194.621094 688.71875 194.109375 C 692.167969 193.59375 695.628906 193.167969 699.101562 192.828125 C 702.574219 192.484375 706.054688 192.226562 709.539062 192.058594 C 713.023438 191.886719 716.511719 191.800781 720 191.800781 C 723.488281 191.800781 726.976562 191.886719 730.460938 192.058594 C 733.945312 192.226562 737.425781 192.484375 740.898438 192.828125 C 744.371094 193.167969 747.832031 193.59375 751.28125 194.109375 C 754.734375 194.621094 758.171875 195.214844 761.59375 195.898438 C 765.015625 196.578125 768.417969 197.339844 771.804688 198.1875 C 775.1875 199.039062 778.550781 199.96875 781.886719 200.980469 C 785.226562 201.992188 788.539062 203.085938 791.824219 204.261719 C 795.109375 205.4375 798.363281 206.695312 801.589844 208.027344 C 804.8125 209.363281 808 210.777344 811.15625 212.269531 C 814.308594 213.761719 817.425781 215.328125 820.5 216.972656 C 823.578125 218.621094 826.613281 220.339844 829.605469 222.132812 C 832.597656 223.925781 835.546875 225.792969 838.449219 227.730469 C 841.347656 229.667969 844.199219 231.675781 847.003906 233.757812 C 849.804688 235.835938 852.554688 237.980469 855.253906 240.195312 C 857.949219 242.40625 860.589844 244.6875 863.175781 247.027344 C 865.761719 249.371094 868.289062 251.777344 870.753906 254.246094 C 873.222656 256.710938 875.628906 259.238281 877.96875 261.824219 C 880.3125 264.410156 882.59375 267.050781 884.804688 269.746094 C 887.019531 272.445312 889.164062 275.195312 891.242188 277.996094 C 893.320312 280.800781 895.332031 283.652344 897.269531 286.550781 C 899.207031 289.453125 901.074219 292.402344 902.867188 295.394531 C 904.660156 298.386719 906.378906 301.421875 908.027344 304.5 C 909.671875 307.574219 911.238281 310.691406 912.730469 313.84375 C 914.222656 317 915.636719 320.1875 916.972656 323.410156 C 918.304688 326.636719 919.5625 329.890625 920.738281 333.175781 C 921.914062 336.460938 923.007812 339.773438 924.019531 343.109375 C 925.03125 346.449219 925.960938 349.8125 926.8125 353.195312 C 927.660156 356.582031 928.421875 359.984375 929.101562 363.40625 C 929.785156 366.828125 930.378906 370.265625 930.890625 373.71875 C 931.40625 377.167969 931.832031 380.628906 932.171875 384.101562 C 932.515625 387.574219 932.773438 391.054688 932.941406 394.539062 C 933.113281 398.023438 933.199219 401.511719 933.199219 405 C 933.195312 408.488281 933.105469 411.972656 932.929688 415.457031 C 932.757812 418.941406 932.496094 422.417969 932.152344 425.890625 C 931.804688 429.359375 931.375 432.820312 930.859375 436.269531 C 930.34375 439.71875 929.746094 443.15625 929.0625 446.578125 C 928.378906 449.996094 927.613281 453.398438 926.761719 456.78125 C 925.910156 460.164062 924.980469 463.523438 923.964844 466.859375 C 922.949219 470.199219 921.855469 473.507812 920.675781 476.792969 C 919.5 480.074219 918.242188 483.328125 916.90625 486.550781 C 915.570312 489.773438 914.152344 492.957031 912.660156 496.109375 C 911.167969 499.265625 909.597656 502.378906 907.953125 505.453125 C 906.308594 508.527344 904.585938 511.5625 902.792969 514.554688 C 901 517.542969 899.132812 520.488281 897.195312 523.390625 C 895.253906 526.289062 893.246094 529.140625 891.167969 531.941406 C 889.089844 534.742188 886.945312 537.492188 884.730469 540.1875 C 882.515625 542.882812 880.238281 545.523438 877.898438 548.105469 C 875.554688 550.691406 873.148438 553.21875 870.683594 555.683594 C 868.21875 558.148438 865.691406 560.554688 863.105469 562.898438 C 860.523438 565.238281 857.882812 567.515625 855.1875 569.730469 C 852.492188 571.945312 849.742188 574.089844 846.941406 576.167969 C 844.140625 578.246094 841.289062 580.253906 838.390625 582.195312 C 835.488281 584.132812 832.542969 586 829.554688 587.792969 C 826.5625 589.585938 823.527344 591.308594 820.453125 592.953125 C 817.378906 594.597656 814.265625 596.167969 811.109375 597.660156 C 807.957031 599.152344 804.773438 600.570312 801.550781 601.90625 C 798.328125 603.242188 795.074219 604.5 791.792969 605.675781 C 788.507812 606.855469 785.199219 607.949219 781.859375 608.964844 C 778.523438 609.980469 775.164062 610.914062 771.78125 611.761719 C 768.398438 612.613281 764.996094 613.378906 761.578125 614.0625 C 758.15625 614.746094 754.71875 615.34375 751.269531 615.859375 C 747.820312 616.375 744.359375 616.804688 740.890625 617.152344 C 737.417969 617.496094 733.941406 617.757812 730.457031 617.933594 C 726.972656 618.105469 723.488281 618.195312 720 618.199219 Z M 720 618.199219 " fill-opacity="1" fill-rule="nonzero"/></svg>