<svg xmlns="http://www.w3.org/2000/svg" xmlns:xlink="http://www.w3.org/1999/xlink" width="1920" zoomAndPan="magnify" viewBox="0 0 1440 809.999993" height="1080" preserveAspectRatio="xMidYMid meet" version="1.0"><defs><clipPath id="f59b605131"><path d="M 450 131.25 L 990 131.25 L 990 674 L 450 674 Z M 450 131.25 " clip-rule="nonzero"/></clipPath></defs><g clip-path="url(#f59b605131)"><path fill="#90e0ef" d="M 750.613281 416.753906 L 727.839844 416.753906 C 724.730469 416.753906 722.191406 419.292969 722.191406 422.402344 L 722.191406 520.484375 C 722.191406 523.59375 724.730469 526.132812 727.839844 526.132812 L 750.613281 526.132812 C 753.726562 526.132812 756.261719 523.59375 756.261719 520.484375 L 756.261719 422.402344 C 756.261719 419.292969 753.726562 416.753906 750.613281 416.753906 Z M 910.375 514.34375 C 954.351562 514.34375 990 549.996094 990 593.972656 C 990 637.949219 954.351562 673.597656 910.375 673.597656 C 866.394531 673.597656 830.746094 637.949219 830.746094 593.972656 C 830.746094 549.996094 866.394531 514.34375 910.375 514.34375 Z M 942.148438 566.289062 C 937.632812 555.53125 929.03125 549.316406 919.578125 546.921875 L 919.410156 546.878906 L 919.410156 543.585938 C 919.410156 538.59375 915.363281 534.546875 910.375 534.546875 C 905.382812 534.546875 901.335938 538.59375 901.335938 543.585938 L 901.335938 547.007812 C 887.90625 550.457031 877.78125 561.179688 878.480469 575.667969 C 879.316406 592.878906 893.941406 600.109375 909 602.582031 C 915.71875 603.683594 926.707031 605.996094 926.910156 614.652344 C 927.078125 621.695312 916.574219 623.96875 911.203125 624.097656 C 903.808594 624.273438 895.535156 621.070312 893.582031 613.238281 C 892.394531 608.402344 887.507812 605.449219 882.675781 606.636719 C 877.839844 607.824219 874.882812 612.710938 876.074219 617.542969 C 879.191406 630.054688 889.074219 638.304688 901.335938 641.082031 L 901.335938 644.359375 C 901.335938 649.351562 905.382812 653.398438 910.371094 653.398438 C 915.363281 653.398438 919.410156 649.351562 919.410156 644.359375 L 919.410156 641.265625 C 933.128906 638.53125 945.277344 629.464844 944.914062 614.226562 C 944.46875 595.164062 928.480469 587.511719 911.894531 584.789062 C 906.363281 583.878906 896.828125 581.839844 896.484375 574.816406 C 896.191406 568.773438 901.441406 565.292969 906.761719 564.222656 C 914.429688 562.675781 922.328125 565.761719 925.484375 573.277344 C 927.414062 577.878906 932.710938 580.042969 937.308594 578.113281 C 941.910156 576.183594 944.078125 570.890625 942.148438 566.289062 Z M 814.125 209.117188 C 809.503906 207.242188 807.277344 201.980469 809.148438 197.359375 C 811.019531 192.738281 816.285156 190.511719 820.902344 192.382812 C 866.75 211.097656 905.734375 243.179688 933.023438 283.792969 C 974.203125 345.085938 985.628906 421.574219 964.808594 491.953125 C 963.40625 496.726562 958.394531 499.464844 953.617188 498.058594 C 948.84375 496.65625 946.109375 491.644531 947.511719 486.867188 C 966.785156 421.710938 956.148438 350.519531 918.054688 293.816406 C 892.777344 256.199219 856.640625 226.46875 814.125 209.117188 Z M 803.835938 638.085938 C 808.53125 636.425781 813.683594 638.894531 815.34375 643.59375 C 817 648.289062 814.535156 653.445312 809.835938 655.101562 C 743 678.6875 668.480469 672.449219 606.425781 637.601562 C 569.351562 616.78125 538.175781 586.679688 516.050781 550.4375 C 513.457031 546.1875 514.800781 540.640625 519.050781 538.046875 C 523.300781 535.453125 528.847656 536.796875 531.441406 541.046875 C 551.949219 574.632812 580.855469 602.539062 615.25 621.855469 C 672.675781 654.101562 741.953125 659.921875 803.835938 638.085938 Z M 520.648438 322.042969 C 518.484375 326.527344 513.09375 328.40625 508.609375 326.242188 C 504.125 324.078125 502.246094 318.691406 504.410156 314.207031 C 513.136719 296.117188 523.980469 279.269531 536.613281 263.996094 C 549.304688 248.648438 563.863281 234.828125 579.949219 222.871094 C 583.945312 219.90625 589.589844 220.746094 592.554688 224.742188 C 595.515625 228.738281 594.679688 234.382812 590.683594 237.34375 C 575.84375 248.375 562.355469 261.195312 550.523438 275.503906 C 538.777344 289.710938 528.71875 305.324219 520.648438 322.042969 Z M 530.878906 348.957031 C 575.546875 348.957031 611.757812 385.167969 611.757812 429.835938 C 611.757812 474.503906 575.546875 510.71875 530.878906 510.71875 C 486.210938 510.71875 450 474.503906 450 429.835938 C 450 385.167969 486.210938 348.957031 530.878906 348.957031 Z M 570.023438 377.914062 L 565.089844 382.847656 C 561.558594 386.378906 561.558594 392.097656 565.089844 395.628906 C 568.617188 399.15625 574.339844 399.15625 577.867188 395.628906 L 582.804688 390.691406 C 586.332031 387.164062 586.332031 381.441406 582.804688 377.914062 C 579.273438 374.382812 573.554688 374.382812 570.023438 377.914062 Z M 521.839844 399.238281 L 521.839844 429.835938 C 521.839844 433.410156 523.917969 436.5 526.929688 437.96875 L 546.792969 449.433594 C 551.101562 451.929688 556.617188 450.460938 559.113281 446.152344 C 561.605469 441.84375 560.136719 436.328125 555.828125 433.832031 L 539.917969 424.644531 L 539.917969 399.238281 C 539.917969 394.246094 535.871094 390.199219 530.878906 390.199219 C 525.886719 390.199219 521.839844 394.246094 521.839844 399.238281 Z M 595.277344 420.800781 L 588.296875 420.800781 C 583.304688 420.800781 579.257812 424.847656 579.257812 429.835938 C 579.257812 434.828125 583.304688 438.875 588.296875 438.875 L 595.277344 438.875 C 600.265625 438.875 604.3125 434.828125 604.3125 429.835938 C 604.3125 424.847656 600.265625 420.800781 595.277344 420.800781 Z M 582.804688 468.980469 L 577.867188 464.046875 C 574.339844 460.515625 568.617188 460.515625 565.089844 464.046875 C 561.558594 467.574219 561.558594 473.296875 565.089844 476.824219 L 570.023438 481.761719 C 573.554688 485.289062 579.277344 485.289062 582.804688 481.761719 C 586.332031 478.234375 586.332031 472.511719 582.804688 468.980469 Z M 539.917969 494.234375 L 539.917969 487.253906 C 539.917969 482.261719 535.871094 478.214844 530.878906 478.214844 C 525.886719 478.214844 521.839844 482.261719 521.839844 487.253906 L 521.839844 494.234375 C 521.839844 499.222656 525.886719 503.269531 530.878906 503.269531 C 535.871094 503.269531 539.917969 499.222656 539.917969 494.234375 Z M 491.734375 481.761719 L 496.671875 476.824219 C 500.199219 473.296875 500.199219 467.574219 496.671875 464.046875 C 493.140625 460.519531 487.417969 460.519531 483.890625 464.046875 L 478.957031 468.984375 C 475.425781 472.511719 475.425781 478.234375 478.957031 481.761719 C 482.484375 485.289062 488.207031 485.289062 491.734375 481.761719 Z M 466.484375 438.875 L 473.464844 438.875 C 478.453125 438.875 482.5 434.828125 482.5 429.835938 C 482.5 424.847656 478.453125 420.800781 473.464844 420.800781 L 466.484375 420.800781 C 461.492188 420.800781 457.445312 424.847656 457.445312 429.835938 C 457.445312 434.828125 461.492188 438.875 466.484375 438.875 Z M 478.953125 390.691406 L 483.890625 395.628906 C 487.421875 399.15625 493.140625 399.15625 496.671875 395.628906 C 500.199219 392.097656 500.199219 386.378906 496.671875 382.847656 L 491.734375 377.914062 C 488.207031 374.382812 482.484375 374.382812 478.957031 377.914062 C 475.425781 381.441406 475.425781 387.164062 478.953125 390.691406 Z M 521.839844 365.441406 L 521.839844 372.421875 C 521.839844 377.414062 525.886719 381.460938 530.878906 381.460938 C 535.871094 381.460938 539.917969 377.414062 539.917969 372.421875 L 539.917969 365.441406 C 539.917969 360.449219 535.871094 356.402344 530.878906 356.402344 C 525.886719 356.402344 521.839844 360.449219 521.839844 365.441406 Z M 719.863281 144.691406 C 726.976562 146.386719 733.773438 149.207031 740 153.039062 L 750.957031 148.171875 C 752.265625 147.59375 753.71875 147.863281 754.730469 148.875 L 766.859375 161.003906 C 767.871094 162.015625 768.140625 163.46875 767.5625 164.777344 L 762.695312 175.730469 C 766.53125 181.957031 769.351562 188.757812 771.046875 195.871094 L 782.222656 200.175781 C 783.558594 200.6875 784.394531 201.90625 784.394531 203.335938 L 784.394531 220.492188 C 784.394531 221.921875 783.558594 223.140625 782.222656 223.652344 L 771.042969 227.957031 C 769.347656 235.070312 766.527344 241.867188 762.695312 248.09375 L 767.5625 259.050781 C 768.140625 260.359375 767.871094 261.8125 766.863281 262.824219 L 754.730469 274.953125 C 753.71875 275.964844 752.265625 276.234375 750.957031 275.65625 L 740.003906 270.789062 C 733.777344 274.625 726.980469 277.445312 719.863281 279.140625 L 715.558594 290.316406 C 715.046875 291.652344 713.828125 292.488281 712.398438 292.488281 L 695.242188 292.488281 C 693.8125 292.488281 692.59375 291.652344 692.082031 290.316406 L 687.777344 279.136719 C 680.664062 277.441406 673.867188 274.625 667.640625 270.789062 L 656.683594 275.65625 C 655.375 276.238281 653.921875 275.964844 652.910156 274.957031 L 640.777344 262.824219 C 639.769531 261.8125 639.5 260.359375 640.078125 259.050781 L 644.945312 248.097656 C 641.109375 241.871094 638.289062 235.074219 636.59375 227.957031 L 625.417969 223.65625 C 624.082031 223.140625 623.246094 221.921875 623.246094 220.492188 L 623.246094 203.335938 C 623.246094 201.90625 624.082031 200.6875 625.417969 200.175781 L 636.597656 195.871094 C 638.289062 188.757812 641.109375 181.960938 644.945312 175.734375 L 640.078125 164.777344 C 639.496094 163.46875 639.765625 162.015625 640.777344 161.003906 L 652.910156 148.875 C 653.921875 147.863281 655.375 147.59375 656.679688 148.171875 L 667.640625 153.039062 C 673.867188 149.207031 680.660156 146.382812 687.773438 144.691406 L 692.078125 133.511719 C 692.59375 132.175781 693.8125 131.339844 695.242188 131.339844 L 712.398438 131.339844 C 713.828125 131.339844 715.046875 132.175781 715.558594 133.511719 Z M 703.820312 173.878906 C 682.8125 173.878906 665.785156 190.90625 665.785156 211.914062 C 665.785156 232.921875 682.8125 249.949219 703.820312 249.949219 C 724.824219 249.949219 741.851562 232.921875 741.851562 211.914062 C 741.855469 190.90625 724.828125 173.878906 703.820312 173.878906 Z M 674.046875 415.445312 C 669.503906 417.492188 664.160156 415.46875 662.113281 410.925781 C 660.066406 406.382812 662.089844 401.042969 666.632812 398.996094 C 687.445312 389.625 708.285156 379.148438 728.949219 367.417969 C 742.496094 359.730469 756 351.484375 769.410156 342.640625 L 768.023438 342.542969 C 763.054688 342.214844 759.292969 337.914062 759.621094 332.941406 C 759.953125 327.96875 764.253906 324.207031 769.226562 324.539062 L 796.445312 326.421875 C 802.40625 326.820312 806.316406 332.875 804.355469 338.433594 L 797.308594 364.105469 C 796.003906 368.898438 791.054688 371.730469 786.257812 370.421875 C 781.460938 369.117188 778.632812 364.167969 779.9375 359.375 L 780.640625 356.820312 C 766.460938 366.214844 752.175781 374.953125 737.84375 383.09375 C 716.546875 395.183594 695.21875 405.914062 674.046875 415.445312 Z M 791.105469 390.761719 C 787.992188 390.761719 785.457031 393.300781 785.457031 396.410156 L 785.457031 520.484375 C 785.457031 523.59375 787.992188 526.132812 791.105469 526.132812 L 813.878906 526.132812 C 816.988281 526.132812 819.527344 523.59375 819.527344 520.484375 L 819.527344 396.410156 C 819.527344 393.300781 816.988281 390.761719 813.878906 390.761719 Z M 687.351562 445.648438 C 679.761719 445.648438 672.167969 445.648438 664.578125 445.648438 C 661.464844 445.648438 658.929688 448.183594 658.929688 451.296875 C 658.929688 475.679688 658.929688 496.097656 658.929688 520.484375 C 658.929688 523.59375 661.464844 526.132812 664.578125 526.132812 C 672.167969 526.132812 679.761719 526.132812 687.351562 526.132812 C 690.464844 526.132812 693 523.59375 693 520.484375 C 693 496.097656 693 475.679688 693 451.296875 C 693 448.183594 690.464844 445.648438 687.351562 445.648438 Z M 687.351562 445.648438 " fill-opacity="1" fill-rule="evenodd"/></g></svg>