<svg xmlns="http://www.w3.org/2000/svg" xmlns:xlink="http://www.w3.org/1999/xlink" width="1920" zoomAndPan="magnify" viewBox="0 0 1440 809.999993" height="1080" preserveAspectRatio="xMidYMid meet" version="1.0"><path fill="#90e0ef" d="M 879.136719 258.191406 L 972.828125 164.496094 L 972.816406 232.394531 C 972.816406 239.105469 978.261719 244.550781 984.96875 244.550781 C 991.679688 244.550781 997.125 239.105469 997.125 232.394531 L 997.136719 135.167969 C 997.136719 131.933594 995.859375 128.847656 993.574219 126.574219 C 991.304688 124.289062 988.203125 123.011719 984.980469 123.011719 L 887.742188 123.011719 C 881.03125 123.011719 875.585938 128.457031 875.585938 135.167969 C 875.585938 141.875 881.03125 147.324219 887.742188 147.324219 L 955.628906 147.324219 L 867.296875 235.652344 C 826.953125 168.203125 753.183594 123 668.949219 123 C 541.488281 123 438 226.488281 438 353.949219 C 438 481.40625 541.488281 584.894531 668.949219 584.894531 C 728.3125 584.894531 782.464844 562.457031 823.402344 525.589844 L 834.089844 536.277344 C 827.246094 543.117188 823.402344 552.394531 823.402344 562.058594 C 823.402344 571.730469 827.246094 581.007812 834.089844 587.851562 C 862.007812 615.769531 914.140625 667.890625 914.140625 667.890625 C 933.117188 686.867188 963.917969 686.867188 982.890625 667.890625 C 1001.867188 648.917969 1001.867188 618.117188 982.890625 599.140625 C 982.890625 599.140625 930.769531 547.007812 902.851562 519.089844 C 896.007812 512.246094 886.730469 508.402344 877.054688 508.402344 C 867.394531 508.402344 858.117188 512.246094 851.277344 519.089844 L 840.589844 508.402344 C 877.457031 467.464844 899.894531 413.3125 899.894531 353.949219 C 899.894531 319.804688 892.46875 287.375 879.136719 258.191406 Z M 965.703125 616.328125 C 975.199219 625.808594 975.199219 641.222656 965.703125 650.703125 C 956.222656 660.199219 940.808594 660.199219 931.328125 650.703125 L 851.277344 570.648438 C 848.992188 568.378906 847.714844 565.289062 847.714844 562.058594 C 847.714844 558.835938 848.992188 555.746094 851.277344 553.464844 C 851.277344 553.464844 868.464844 536.277344 868.464844 536.277344 C 870.746094 533.992188 873.835938 532.714844 877.054688 532.714844 C 880.289062 532.714844 883.378906 533.992188 885.648438 536.277344 Z M 849.5 253.4375 C 814.164062 190.144531 746.523438 147.308594 668.949219 147.308594 C 554.894531 147.308594 462.308594 239.894531 462.308594 353.949219 C 462.308594 468 554.894531 560.585938 668.949219 560.585938 C 783 560.585938 875.585938 468 875.585938 353.949219 C 875.585938 326.648438 870.273438 300.574219 860.636719 276.691406 L 841.722656 295.601562 C 847.921875 313.933594 851.277344 333.550781 851.277344 353.949219 C 851.277344 454.582031 769.582031 536.277344 668.949219 536.277344 C 568.316406 536.277344 486.621094 454.582031 486.621094 353.949219 C 486.621094 253.316406 568.316406 171.621094 668.949219 171.621094 C 739.886719 171.621094 801.402344 212.21875 831.535156 271.414062 Z M 813.316406 289.636719 C 788.664062 234.4375 733.261719 195.929688 668.949219 195.929688 C 581.734375 195.929688 510.929688 266.734375 510.929688 353.949219 C 510.929688 441.160156 581.734375 511.964844 668.949219 511.964844 C 756.160156 511.964844 826.964844 441.160156 826.964844 353.949219 C 826.964844 340.566406 825.300781 327.582031 822.164062 315.160156 L 750.472656 386.851562 C 745.730469 391.605469 738.027344 391.605469 733.285156 386.851562 C 733.285156 386.851562 693.257812 346.824219 693.257812 346.824219 L 653.230469 386.851562 C 648.492188 391.605469 640.785156 391.605469 636.042969 386.851562 C 636.042969 386.851562 596.015625 346.824219 596.015625 346.824219 L 555.988281 386.851562 C 551.25 391.59375 543.542969 391.59375 538.800781 386.851562 C 534.0625 382.113281 534.0625 374.40625 538.800781 369.664062 L 587.421875 321.042969 C 592.164062 316.292969 599.871094 316.292969 604.609375 321.042969 C 604.609375 321.042969 644.636719 361.070312 644.636719 361.070312 L 684.664062 321.042969 C 689.40625 316.292969 697.113281 316.292969 701.851562 321.042969 C 701.851562 321.042969 741.878906 361.070312 741.878906 361.070312 Z M 813.316406 289.636719 " fill-opacity="1" fill-rule="evenodd"/></svg>